%TF.GenerationSoftware,KiCad,Pcbnew,(5.1.10)-1*%
%TF.CreationDate,2021-06-11T23:30:18+03:00*%
%TF.ProjectId,chiller board,6368696c-6c65-4722-9062-6f6172642e6b,rev?*%
%TF.SameCoordinates,Original*%
%TF.FileFunction,Soldermask,Bot*%
%TF.FilePolarity,Negative*%
%FSLAX46Y46*%
G04 Gerber Fmt 4.6, Leading zero omitted, Abs format (unit mm)*
G04 Created by KiCad (PCBNEW (5.1.10)-1) date 2021-06-11 23:30:18*
%MOMM*%
%LPD*%
G01*
G04 APERTURE LIST*
%ADD10R,0.450000X1.750000*%
%ADD11O,1.700000X1.700000*%
%ADD12R,1.700000X1.700000*%
%ADD13C,1.650000*%
%ADD14C,1.950000*%
%ADD15R,2.000000X2.000000*%
%ADD16C,2.000000*%
%ADD17R,2.000000X3.200000*%
%ADD18O,1.501140X4.000500*%
%ADD19C,2.600000*%
%ADD20R,2.600000X2.600000*%
%ADD21C,2.340000*%
%ADD22R,1.500000X1.000000*%
G04 APERTURE END LIST*
D10*
%TO.C,U5*%
X117025000Y-100600000D03*
X117675000Y-100600000D03*
X118325000Y-100600000D03*
X118975000Y-100600000D03*
X119625000Y-100600000D03*
X120275000Y-100600000D03*
X120925000Y-100600000D03*
X121575000Y-100600000D03*
X122225000Y-100600000D03*
X122875000Y-100600000D03*
X123525000Y-100600000D03*
X124175000Y-100600000D03*
X124825000Y-100600000D03*
X125475000Y-100600000D03*
X125475000Y-93400000D03*
X124825000Y-93400000D03*
X124175000Y-93400000D03*
X123525000Y-93400000D03*
X122875000Y-93400000D03*
X122225000Y-93400000D03*
X121575000Y-93400000D03*
X120925000Y-93400000D03*
X120275000Y-93400000D03*
X119625000Y-93400000D03*
X118975000Y-93400000D03*
X118325000Y-93400000D03*
X117675000Y-93400000D03*
X117025000Y-93400000D03*
%TD*%
D11*
%TO.C,J2*%
X96500000Y-74670000D03*
X96500000Y-77210000D03*
D12*
X96500000Y-79750000D03*
%TD*%
D13*
%TO.C,K1*%
X103250000Y-86750000D03*
X100710000Y-86750000D03*
D14*
X90550000Y-86750000D03*
X85470000Y-86750000D03*
%TD*%
D15*
%TO.C,SW1*%
X161750000Y-65750000D03*
D16*
X164250000Y-65750000D03*
X166750000Y-65750000D03*
D17*
X158650000Y-58250000D03*
X169850000Y-58250000D03*
D16*
X161750000Y-51250000D03*
X166750000Y-51250000D03*
%TD*%
D18*
%TO.C,J1*%
X145251060Y-69050300D03*
X142711060Y-69050300D03*
X140171060Y-69050300D03*
X137631060Y-69050300D03*
X135091060Y-69050300D03*
X132551060Y-69050300D03*
X119851060Y-69050300D03*
X117311060Y-69050300D03*
X114771060Y-69050300D03*
X112231060Y-69050300D03*
X109691060Y-69050300D03*
X107151060Y-69050300D03*
%TD*%
D19*
%TO.C,J13*%
X166250000Y-70250000D03*
X166250000Y-75250000D03*
D20*
X166250000Y-80250000D03*
%TD*%
D19*
%TO.C,J6*%
X78250000Y-80750000D03*
X78250000Y-75750000D03*
X78250000Y-70750000D03*
X78250000Y-65750000D03*
X78250000Y-60750000D03*
D20*
X78250000Y-55750000D03*
%TD*%
D19*
%TO.C,J5*%
X120250000Y-40750000D03*
X125250000Y-40750000D03*
X130250000Y-40750000D03*
X135250000Y-40750000D03*
X140250000Y-40750000D03*
X145250000Y-40750000D03*
X150250000Y-40750000D03*
X155250000Y-40750000D03*
D20*
X160250000Y-40750000D03*
%TD*%
D19*
%TO.C,J3*%
X75250000Y-40750000D03*
X80250000Y-40750000D03*
X85250000Y-40750000D03*
X90250000Y-40750000D03*
X95250000Y-40750000D03*
X100250000Y-40750000D03*
X105250000Y-40750000D03*
X110250000Y-40750000D03*
D20*
X115250000Y-40750000D03*
%TD*%
%TO.C,R31*%
G36*
G01*
X162025000Y-60825000D02*
X161475000Y-60825000D01*
G75*
G02*
X161275000Y-60625000I0J200000D01*
G01*
X161275000Y-60225000D01*
G75*
G02*
X161475000Y-60025000I200000J0D01*
G01*
X162025000Y-60025000D01*
G75*
G02*
X162225000Y-60225000I0J-200000D01*
G01*
X162225000Y-60625000D01*
G75*
G02*
X162025000Y-60825000I-200000J0D01*
G01*
G37*
G36*
G01*
X162025000Y-62475000D02*
X161475000Y-62475000D01*
G75*
G02*
X161275000Y-62275000I0J200000D01*
G01*
X161275000Y-61875000D01*
G75*
G02*
X161475000Y-61675000I200000J0D01*
G01*
X162025000Y-61675000D01*
G75*
G02*
X162225000Y-61875000I0J-200000D01*
G01*
X162225000Y-62275000D01*
G75*
G02*
X162025000Y-62475000I-200000J0D01*
G01*
G37*
%TD*%
%TO.C,R30*%
G36*
G01*
X167025000Y-60825000D02*
X166475000Y-60825000D01*
G75*
G02*
X166275000Y-60625000I0J200000D01*
G01*
X166275000Y-60225000D01*
G75*
G02*
X166475000Y-60025000I200000J0D01*
G01*
X167025000Y-60025000D01*
G75*
G02*
X167225000Y-60225000I0J-200000D01*
G01*
X167225000Y-60625000D01*
G75*
G02*
X167025000Y-60825000I-200000J0D01*
G01*
G37*
G36*
G01*
X167025000Y-62475000D02*
X166475000Y-62475000D01*
G75*
G02*
X166275000Y-62275000I0J200000D01*
G01*
X166275000Y-61875000D01*
G75*
G02*
X166475000Y-61675000I200000J0D01*
G01*
X167025000Y-61675000D01*
G75*
G02*
X167225000Y-61875000I0J-200000D01*
G01*
X167225000Y-62275000D01*
G75*
G02*
X167025000Y-62475000I-200000J0D01*
G01*
G37*
%TD*%
%TO.C,R29*%
G36*
G01*
X162975000Y-56175000D02*
X163525000Y-56175000D01*
G75*
G02*
X163725000Y-56375000I0J-200000D01*
G01*
X163725000Y-56775000D01*
G75*
G02*
X163525000Y-56975000I-200000J0D01*
G01*
X162975000Y-56975000D01*
G75*
G02*
X162775000Y-56775000I0J200000D01*
G01*
X162775000Y-56375000D01*
G75*
G02*
X162975000Y-56175000I200000J0D01*
G01*
G37*
G36*
G01*
X162975000Y-54525000D02*
X163525000Y-54525000D01*
G75*
G02*
X163725000Y-54725000I0J-200000D01*
G01*
X163725000Y-55125000D01*
G75*
G02*
X163525000Y-55325000I-200000J0D01*
G01*
X162975000Y-55325000D01*
G75*
G02*
X162775000Y-55125000I0J200000D01*
G01*
X162775000Y-54725000D01*
G75*
G02*
X162975000Y-54525000I200000J0D01*
G01*
G37*
%TD*%
%TO.C,R28*%
G36*
G01*
X118175000Y-78275000D02*
X118175000Y-77725000D01*
G75*
G02*
X118375000Y-77525000I200000J0D01*
G01*
X118775000Y-77525000D01*
G75*
G02*
X118975000Y-77725000I0J-200000D01*
G01*
X118975000Y-78275000D01*
G75*
G02*
X118775000Y-78475000I-200000J0D01*
G01*
X118375000Y-78475000D01*
G75*
G02*
X118175000Y-78275000I0J200000D01*
G01*
G37*
G36*
G01*
X116525000Y-78275000D02*
X116525000Y-77725000D01*
G75*
G02*
X116725000Y-77525000I200000J0D01*
G01*
X117125000Y-77525000D01*
G75*
G02*
X117325000Y-77725000I0J-200000D01*
G01*
X117325000Y-78275000D01*
G75*
G02*
X117125000Y-78475000I-200000J0D01*
G01*
X116725000Y-78475000D01*
G75*
G02*
X116525000Y-78275000I0J200000D01*
G01*
G37*
%TD*%
%TO.C,R27*%
G36*
G01*
X127775000Y-84575000D02*
X127225000Y-84575000D01*
G75*
G02*
X127025000Y-84375000I0J200000D01*
G01*
X127025000Y-83975000D01*
G75*
G02*
X127225000Y-83775000I200000J0D01*
G01*
X127775000Y-83775000D01*
G75*
G02*
X127975000Y-83975000I0J-200000D01*
G01*
X127975000Y-84375000D01*
G75*
G02*
X127775000Y-84575000I-200000J0D01*
G01*
G37*
G36*
G01*
X127775000Y-86225000D02*
X127225000Y-86225000D01*
G75*
G02*
X127025000Y-86025000I0J200000D01*
G01*
X127025000Y-85625000D01*
G75*
G02*
X127225000Y-85425000I200000J0D01*
G01*
X127775000Y-85425000D01*
G75*
G02*
X127975000Y-85625000I0J-200000D01*
G01*
X127975000Y-86025000D01*
G75*
G02*
X127775000Y-86225000I-200000J0D01*
G01*
G37*
%TD*%
%TO.C,R26*%
G36*
G01*
X151825000Y-79725000D02*
X151825000Y-80275000D01*
G75*
G02*
X151625000Y-80475000I-200000J0D01*
G01*
X151225000Y-80475000D01*
G75*
G02*
X151025000Y-80275000I0J200000D01*
G01*
X151025000Y-79725000D01*
G75*
G02*
X151225000Y-79525000I200000J0D01*
G01*
X151625000Y-79525000D01*
G75*
G02*
X151825000Y-79725000I0J-200000D01*
G01*
G37*
G36*
G01*
X153475000Y-79725000D02*
X153475000Y-80275000D01*
G75*
G02*
X153275000Y-80475000I-200000J0D01*
G01*
X152875000Y-80475000D01*
G75*
G02*
X152675000Y-80275000I0J200000D01*
G01*
X152675000Y-79725000D01*
G75*
G02*
X152875000Y-79525000I200000J0D01*
G01*
X153275000Y-79525000D01*
G75*
G02*
X153475000Y-79725000I0J-200000D01*
G01*
G37*
%TD*%
%TO.C,R25*%
G36*
G01*
X151825000Y-78225000D02*
X151825000Y-78775000D01*
G75*
G02*
X151625000Y-78975000I-200000J0D01*
G01*
X151225000Y-78975000D01*
G75*
G02*
X151025000Y-78775000I0J200000D01*
G01*
X151025000Y-78225000D01*
G75*
G02*
X151225000Y-78025000I200000J0D01*
G01*
X151625000Y-78025000D01*
G75*
G02*
X151825000Y-78225000I0J-200000D01*
G01*
G37*
G36*
G01*
X153475000Y-78225000D02*
X153475000Y-78775000D01*
G75*
G02*
X153275000Y-78975000I-200000J0D01*
G01*
X152875000Y-78975000D01*
G75*
G02*
X152675000Y-78775000I0J200000D01*
G01*
X152675000Y-78225000D01*
G75*
G02*
X152875000Y-78025000I200000J0D01*
G01*
X153275000Y-78025000D01*
G75*
G02*
X153475000Y-78225000I0J-200000D01*
G01*
G37*
%TD*%
%TO.C,R24*%
G36*
G01*
X129025000Y-88575000D02*
X128475000Y-88575000D01*
G75*
G02*
X128275000Y-88375000I0J200000D01*
G01*
X128275000Y-87975000D01*
G75*
G02*
X128475000Y-87775000I200000J0D01*
G01*
X129025000Y-87775000D01*
G75*
G02*
X129225000Y-87975000I0J-200000D01*
G01*
X129225000Y-88375000D01*
G75*
G02*
X129025000Y-88575000I-200000J0D01*
G01*
G37*
G36*
G01*
X129025000Y-90225000D02*
X128475000Y-90225000D01*
G75*
G02*
X128275000Y-90025000I0J200000D01*
G01*
X128275000Y-89625000D01*
G75*
G02*
X128475000Y-89425000I200000J0D01*
G01*
X129025000Y-89425000D01*
G75*
G02*
X129225000Y-89625000I0J-200000D01*
G01*
X129225000Y-90025000D01*
G75*
G02*
X129025000Y-90225000I-200000J0D01*
G01*
G37*
%TD*%
%TO.C,R23*%
G36*
G01*
X127275000Y-88575000D02*
X126725000Y-88575000D01*
G75*
G02*
X126525000Y-88375000I0J200000D01*
G01*
X126525000Y-87975000D01*
G75*
G02*
X126725000Y-87775000I200000J0D01*
G01*
X127275000Y-87775000D01*
G75*
G02*
X127475000Y-87975000I0J-200000D01*
G01*
X127475000Y-88375000D01*
G75*
G02*
X127275000Y-88575000I-200000J0D01*
G01*
G37*
G36*
G01*
X127275000Y-90225000D02*
X126725000Y-90225000D01*
G75*
G02*
X126525000Y-90025000I0J200000D01*
G01*
X126525000Y-89625000D01*
G75*
G02*
X126725000Y-89425000I200000J0D01*
G01*
X127275000Y-89425000D01*
G75*
G02*
X127475000Y-89625000I0J-200000D01*
G01*
X127475000Y-90025000D01*
G75*
G02*
X127275000Y-90225000I-200000J0D01*
G01*
G37*
%TD*%
%TO.C,U3*%
G36*
G01*
X124350000Y-80075000D02*
X124350000Y-79925000D01*
G75*
G02*
X124425000Y-79850000I75000J0D01*
G01*
X125750000Y-79850000D01*
G75*
G02*
X125825000Y-79925000I0J-75000D01*
G01*
X125825000Y-80075000D01*
G75*
G02*
X125750000Y-80150000I-75000J0D01*
G01*
X124425000Y-80150000D01*
G75*
G02*
X124350000Y-80075000I0J75000D01*
G01*
G37*
G36*
G01*
X124350000Y-79575000D02*
X124350000Y-79425000D01*
G75*
G02*
X124425000Y-79350000I75000J0D01*
G01*
X125750000Y-79350000D01*
G75*
G02*
X125825000Y-79425000I0J-75000D01*
G01*
X125825000Y-79575000D01*
G75*
G02*
X125750000Y-79650000I-75000J0D01*
G01*
X124425000Y-79650000D01*
G75*
G02*
X124350000Y-79575000I0J75000D01*
G01*
G37*
G36*
G01*
X124350000Y-79075000D02*
X124350000Y-78925000D01*
G75*
G02*
X124425000Y-78850000I75000J0D01*
G01*
X125750000Y-78850000D01*
G75*
G02*
X125825000Y-78925000I0J-75000D01*
G01*
X125825000Y-79075000D01*
G75*
G02*
X125750000Y-79150000I-75000J0D01*
G01*
X124425000Y-79150000D01*
G75*
G02*
X124350000Y-79075000I0J75000D01*
G01*
G37*
G36*
G01*
X124350000Y-78575000D02*
X124350000Y-78425000D01*
G75*
G02*
X124425000Y-78350000I75000J0D01*
G01*
X125750000Y-78350000D01*
G75*
G02*
X125825000Y-78425000I0J-75000D01*
G01*
X125825000Y-78575000D01*
G75*
G02*
X125750000Y-78650000I-75000J0D01*
G01*
X124425000Y-78650000D01*
G75*
G02*
X124350000Y-78575000I0J75000D01*
G01*
G37*
G36*
G01*
X124350000Y-78075000D02*
X124350000Y-77925000D01*
G75*
G02*
X124425000Y-77850000I75000J0D01*
G01*
X125750000Y-77850000D01*
G75*
G02*
X125825000Y-77925000I0J-75000D01*
G01*
X125825000Y-78075000D01*
G75*
G02*
X125750000Y-78150000I-75000J0D01*
G01*
X124425000Y-78150000D01*
G75*
G02*
X124350000Y-78075000I0J75000D01*
G01*
G37*
G36*
G01*
X124350000Y-77575000D02*
X124350000Y-77425000D01*
G75*
G02*
X124425000Y-77350000I75000J0D01*
G01*
X125750000Y-77350000D01*
G75*
G02*
X125825000Y-77425000I0J-75000D01*
G01*
X125825000Y-77575000D01*
G75*
G02*
X125750000Y-77650000I-75000J0D01*
G01*
X124425000Y-77650000D01*
G75*
G02*
X124350000Y-77575000I0J75000D01*
G01*
G37*
G36*
G01*
X124350000Y-77075000D02*
X124350000Y-76925000D01*
G75*
G02*
X124425000Y-76850000I75000J0D01*
G01*
X125750000Y-76850000D01*
G75*
G02*
X125825000Y-76925000I0J-75000D01*
G01*
X125825000Y-77075000D01*
G75*
G02*
X125750000Y-77150000I-75000J0D01*
G01*
X124425000Y-77150000D01*
G75*
G02*
X124350000Y-77075000I0J75000D01*
G01*
G37*
G36*
G01*
X124350000Y-76575000D02*
X124350000Y-76425000D01*
G75*
G02*
X124425000Y-76350000I75000J0D01*
G01*
X125750000Y-76350000D01*
G75*
G02*
X125825000Y-76425000I0J-75000D01*
G01*
X125825000Y-76575000D01*
G75*
G02*
X125750000Y-76650000I-75000J0D01*
G01*
X124425000Y-76650000D01*
G75*
G02*
X124350000Y-76575000I0J75000D01*
G01*
G37*
G36*
G01*
X124350000Y-76075000D02*
X124350000Y-75925000D01*
G75*
G02*
X124425000Y-75850000I75000J0D01*
G01*
X125750000Y-75850000D01*
G75*
G02*
X125825000Y-75925000I0J-75000D01*
G01*
X125825000Y-76075000D01*
G75*
G02*
X125750000Y-76150000I-75000J0D01*
G01*
X124425000Y-76150000D01*
G75*
G02*
X124350000Y-76075000I0J75000D01*
G01*
G37*
G36*
G01*
X124350000Y-75575000D02*
X124350000Y-75425000D01*
G75*
G02*
X124425000Y-75350000I75000J0D01*
G01*
X125750000Y-75350000D01*
G75*
G02*
X125825000Y-75425000I0J-75000D01*
G01*
X125825000Y-75575000D01*
G75*
G02*
X125750000Y-75650000I-75000J0D01*
G01*
X124425000Y-75650000D01*
G75*
G02*
X124350000Y-75575000I0J75000D01*
G01*
G37*
G36*
G01*
X124350000Y-75075000D02*
X124350000Y-74925000D01*
G75*
G02*
X124425000Y-74850000I75000J0D01*
G01*
X125750000Y-74850000D01*
G75*
G02*
X125825000Y-74925000I0J-75000D01*
G01*
X125825000Y-75075000D01*
G75*
G02*
X125750000Y-75150000I-75000J0D01*
G01*
X124425000Y-75150000D01*
G75*
G02*
X124350000Y-75075000I0J75000D01*
G01*
G37*
G36*
G01*
X124350000Y-74575000D02*
X124350000Y-74425000D01*
G75*
G02*
X124425000Y-74350000I75000J0D01*
G01*
X125750000Y-74350000D01*
G75*
G02*
X125825000Y-74425000I0J-75000D01*
G01*
X125825000Y-74575000D01*
G75*
G02*
X125750000Y-74650000I-75000J0D01*
G01*
X124425000Y-74650000D01*
G75*
G02*
X124350000Y-74575000I0J75000D01*
G01*
G37*
G36*
G01*
X126350000Y-73750000D02*
X126350000Y-72425000D01*
G75*
G02*
X126425000Y-72350000I75000J0D01*
G01*
X126575000Y-72350000D01*
G75*
G02*
X126650000Y-72425000I0J-75000D01*
G01*
X126650000Y-73750000D01*
G75*
G02*
X126575000Y-73825000I-75000J0D01*
G01*
X126425000Y-73825000D01*
G75*
G02*
X126350000Y-73750000I0J75000D01*
G01*
G37*
G36*
G01*
X126850000Y-73750000D02*
X126850000Y-72425000D01*
G75*
G02*
X126925000Y-72350000I75000J0D01*
G01*
X127075000Y-72350000D01*
G75*
G02*
X127150000Y-72425000I0J-75000D01*
G01*
X127150000Y-73750000D01*
G75*
G02*
X127075000Y-73825000I-75000J0D01*
G01*
X126925000Y-73825000D01*
G75*
G02*
X126850000Y-73750000I0J75000D01*
G01*
G37*
G36*
G01*
X127350000Y-73750000D02*
X127350000Y-72425000D01*
G75*
G02*
X127425000Y-72350000I75000J0D01*
G01*
X127575000Y-72350000D01*
G75*
G02*
X127650000Y-72425000I0J-75000D01*
G01*
X127650000Y-73750000D01*
G75*
G02*
X127575000Y-73825000I-75000J0D01*
G01*
X127425000Y-73825000D01*
G75*
G02*
X127350000Y-73750000I0J75000D01*
G01*
G37*
G36*
G01*
X127850000Y-73750000D02*
X127850000Y-72425000D01*
G75*
G02*
X127925000Y-72350000I75000J0D01*
G01*
X128075000Y-72350000D01*
G75*
G02*
X128150000Y-72425000I0J-75000D01*
G01*
X128150000Y-73750000D01*
G75*
G02*
X128075000Y-73825000I-75000J0D01*
G01*
X127925000Y-73825000D01*
G75*
G02*
X127850000Y-73750000I0J75000D01*
G01*
G37*
G36*
G01*
X128350000Y-73750000D02*
X128350000Y-72425000D01*
G75*
G02*
X128425000Y-72350000I75000J0D01*
G01*
X128575000Y-72350000D01*
G75*
G02*
X128650000Y-72425000I0J-75000D01*
G01*
X128650000Y-73750000D01*
G75*
G02*
X128575000Y-73825000I-75000J0D01*
G01*
X128425000Y-73825000D01*
G75*
G02*
X128350000Y-73750000I0J75000D01*
G01*
G37*
G36*
G01*
X128850000Y-73750000D02*
X128850000Y-72425000D01*
G75*
G02*
X128925000Y-72350000I75000J0D01*
G01*
X129075000Y-72350000D01*
G75*
G02*
X129150000Y-72425000I0J-75000D01*
G01*
X129150000Y-73750000D01*
G75*
G02*
X129075000Y-73825000I-75000J0D01*
G01*
X128925000Y-73825000D01*
G75*
G02*
X128850000Y-73750000I0J75000D01*
G01*
G37*
G36*
G01*
X129350000Y-73750000D02*
X129350000Y-72425000D01*
G75*
G02*
X129425000Y-72350000I75000J0D01*
G01*
X129575000Y-72350000D01*
G75*
G02*
X129650000Y-72425000I0J-75000D01*
G01*
X129650000Y-73750000D01*
G75*
G02*
X129575000Y-73825000I-75000J0D01*
G01*
X129425000Y-73825000D01*
G75*
G02*
X129350000Y-73750000I0J75000D01*
G01*
G37*
G36*
G01*
X129850000Y-73750000D02*
X129850000Y-72425000D01*
G75*
G02*
X129925000Y-72350000I75000J0D01*
G01*
X130075000Y-72350000D01*
G75*
G02*
X130150000Y-72425000I0J-75000D01*
G01*
X130150000Y-73750000D01*
G75*
G02*
X130075000Y-73825000I-75000J0D01*
G01*
X129925000Y-73825000D01*
G75*
G02*
X129850000Y-73750000I0J75000D01*
G01*
G37*
G36*
G01*
X130350000Y-73750000D02*
X130350000Y-72425000D01*
G75*
G02*
X130425000Y-72350000I75000J0D01*
G01*
X130575000Y-72350000D01*
G75*
G02*
X130650000Y-72425000I0J-75000D01*
G01*
X130650000Y-73750000D01*
G75*
G02*
X130575000Y-73825000I-75000J0D01*
G01*
X130425000Y-73825000D01*
G75*
G02*
X130350000Y-73750000I0J75000D01*
G01*
G37*
G36*
G01*
X130850000Y-73750000D02*
X130850000Y-72425000D01*
G75*
G02*
X130925000Y-72350000I75000J0D01*
G01*
X131075000Y-72350000D01*
G75*
G02*
X131150000Y-72425000I0J-75000D01*
G01*
X131150000Y-73750000D01*
G75*
G02*
X131075000Y-73825000I-75000J0D01*
G01*
X130925000Y-73825000D01*
G75*
G02*
X130850000Y-73750000I0J75000D01*
G01*
G37*
G36*
G01*
X131350000Y-73750000D02*
X131350000Y-72425000D01*
G75*
G02*
X131425000Y-72350000I75000J0D01*
G01*
X131575000Y-72350000D01*
G75*
G02*
X131650000Y-72425000I0J-75000D01*
G01*
X131650000Y-73750000D01*
G75*
G02*
X131575000Y-73825000I-75000J0D01*
G01*
X131425000Y-73825000D01*
G75*
G02*
X131350000Y-73750000I0J75000D01*
G01*
G37*
G36*
G01*
X131850000Y-73750000D02*
X131850000Y-72425000D01*
G75*
G02*
X131925000Y-72350000I75000J0D01*
G01*
X132075000Y-72350000D01*
G75*
G02*
X132150000Y-72425000I0J-75000D01*
G01*
X132150000Y-73750000D01*
G75*
G02*
X132075000Y-73825000I-75000J0D01*
G01*
X131925000Y-73825000D01*
G75*
G02*
X131850000Y-73750000I0J75000D01*
G01*
G37*
G36*
G01*
X132675000Y-74575000D02*
X132675000Y-74425000D01*
G75*
G02*
X132750000Y-74350000I75000J0D01*
G01*
X134075000Y-74350000D01*
G75*
G02*
X134150000Y-74425000I0J-75000D01*
G01*
X134150000Y-74575000D01*
G75*
G02*
X134075000Y-74650000I-75000J0D01*
G01*
X132750000Y-74650000D01*
G75*
G02*
X132675000Y-74575000I0J75000D01*
G01*
G37*
G36*
G01*
X132675000Y-75075000D02*
X132675000Y-74925000D01*
G75*
G02*
X132750000Y-74850000I75000J0D01*
G01*
X134075000Y-74850000D01*
G75*
G02*
X134150000Y-74925000I0J-75000D01*
G01*
X134150000Y-75075000D01*
G75*
G02*
X134075000Y-75150000I-75000J0D01*
G01*
X132750000Y-75150000D01*
G75*
G02*
X132675000Y-75075000I0J75000D01*
G01*
G37*
G36*
G01*
X132675000Y-75575000D02*
X132675000Y-75425000D01*
G75*
G02*
X132750000Y-75350000I75000J0D01*
G01*
X134075000Y-75350000D01*
G75*
G02*
X134150000Y-75425000I0J-75000D01*
G01*
X134150000Y-75575000D01*
G75*
G02*
X134075000Y-75650000I-75000J0D01*
G01*
X132750000Y-75650000D01*
G75*
G02*
X132675000Y-75575000I0J75000D01*
G01*
G37*
G36*
G01*
X132675000Y-76075000D02*
X132675000Y-75925000D01*
G75*
G02*
X132750000Y-75850000I75000J0D01*
G01*
X134075000Y-75850000D01*
G75*
G02*
X134150000Y-75925000I0J-75000D01*
G01*
X134150000Y-76075000D01*
G75*
G02*
X134075000Y-76150000I-75000J0D01*
G01*
X132750000Y-76150000D01*
G75*
G02*
X132675000Y-76075000I0J75000D01*
G01*
G37*
G36*
G01*
X132675000Y-76575000D02*
X132675000Y-76425000D01*
G75*
G02*
X132750000Y-76350000I75000J0D01*
G01*
X134075000Y-76350000D01*
G75*
G02*
X134150000Y-76425000I0J-75000D01*
G01*
X134150000Y-76575000D01*
G75*
G02*
X134075000Y-76650000I-75000J0D01*
G01*
X132750000Y-76650000D01*
G75*
G02*
X132675000Y-76575000I0J75000D01*
G01*
G37*
G36*
G01*
X132675000Y-77075000D02*
X132675000Y-76925000D01*
G75*
G02*
X132750000Y-76850000I75000J0D01*
G01*
X134075000Y-76850000D01*
G75*
G02*
X134150000Y-76925000I0J-75000D01*
G01*
X134150000Y-77075000D01*
G75*
G02*
X134075000Y-77150000I-75000J0D01*
G01*
X132750000Y-77150000D01*
G75*
G02*
X132675000Y-77075000I0J75000D01*
G01*
G37*
G36*
G01*
X132675000Y-77575000D02*
X132675000Y-77425000D01*
G75*
G02*
X132750000Y-77350000I75000J0D01*
G01*
X134075000Y-77350000D01*
G75*
G02*
X134150000Y-77425000I0J-75000D01*
G01*
X134150000Y-77575000D01*
G75*
G02*
X134075000Y-77650000I-75000J0D01*
G01*
X132750000Y-77650000D01*
G75*
G02*
X132675000Y-77575000I0J75000D01*
G01*
G37*
G36*
G01*
X132675000Y-78075000D02*
X132675000Y-77925000D01*
G75*
G02*
X132750000Y-77850000I75000J0D01*
G01*
X134075000Y-77850000D01*
G75*
G02*
X134150000Y-77925000I0J-75000D01*
G01*
X134150000Y-78075000D01*
G75*
G02*
X134075000Y-78150000I-75000J0D01*
G01*
X132750000Y-78150000D01*
G75*
G02*
X132675000Y-78075000I0J75000D01*
G01*
G37*
G36*
G01*
X132675000Y-78575000D02*
X132675000Y-78425000D01*
G75*
G02*
X132750000Y-78350000I75000J0D01*
G01*
X134075000Y-78350000D01*
G75*
G02*
X134150000Y-78425000I0J-75000D01*
G01*
X134150000Y-78575000D01*
G75*
G02*
X134075000Y-78650000I-75000J0D01*
G01*
X132750000Y-78650000D01*
G75*
G02*
X132675000Y-78575000I0J75000D01*
G01*
G37*
G36*
G01*
X132675000Y-79075000D02*
X132675000Y-78925000D01*
G75*
G02*
X132750000Y-78850000I75000J0D01*
G01*
X134075000Y-78850000D01*
G75*
G02*
X134150000Y-78925000I0J-75000D01*
G01*
X134150000Y-79075000D01*
G75*
G02*
X134075000Y-79150000I-75000J0D01*
G01*
X132750000Y-79150000D01*
G75*
G02*
X132675000Y-79075000I0J75000D01*
G01*
G37*
G36*
G01*
X132675000Y-79575000D02*
X132675000Y-79425000D01*
G75*
G02*
X132750000Y-79350000I75000J0D01*
G01*
X134075000Y-79350000D01*
G75*
G02*
X134150000Y-79425000I0J-75000D01*
G01*
X134150000Y-79575000D01*
G75*
G02*
X134075000Y-79650000I-75000J0D01*
G01*
X132750000Y-79650000D01*
G75*
G02*
X132675000Y-79575000I0J75000D01*
G01*
G37*
G36*
G01*
X132675000Y-80075000D02*
X132675000Y-79925000D01*
G75*
G02*
X132750000Y-79850000I75000J0D01*
G01*
X134075000Y-79850000D01*
G75*
G02*
X134150000Y-79925000I0J-75000D01*
G01*
X134150000Y-80075000D01*
G75*
G02*
X134075000Y-80150000I-75000J0D01*
G01*
X132750000Y-80150000D01*
G75*
G02*
X132675000Y-80075000I0J75000D01*
G01*
G37*
G36*
G01*
X131850000Y-82075000D02*
X131850000Y-80750000D01*
G75*
G02*
X131925000Y-80675000I75000J0D01*
G01*
X132075000Y-80675000D01*
G75*
G02*
X132150000Y-80750000I0J-75000D01*
G01*
X132150000Y-82075000D01*
G75*
G02*
X132075000Y-82150000I-75000J0D01*
G01*
X131925000Y-82150000D01*
G75*
G02*
X131850000Y-82075000I0J75000D01*
G01*
G37*
G36*
G01*
X131350000Y-82075000D02*
X131350000Y-80750000D01*
G75*
G02*
X131425000Y-80675000I75000J0D01*
G01*
X131575000Y-80675000D01*
G75*
G02*
X131650000Y-80750000I0J-75000D01*
G01*
X131650000Y-82075000D01*
G75*
G02*
X131575000Y-82150000I-75000J0D01*
G01*
X131425000Y-82150000D01*
G75*
G02*
X131350000Y-82075000I0J75000D01*
G01*
G37*
G36*
G01*
X130850000Y-82075000D02*
X130850000Y-80750000D01*
G75*
G02*
X130925000Y-80675000I75000J0D01*
G01*
X131075000Y-80675000D01*
G75*
G02*
X131150000Y-80750000I0J-75000D01*
G01*
X131150000Y-82075000D01*
G75*
G02*
X131075000Y-82150000I-75000J0D01*
G01*
X130925000Y-82150000D01*
G75*
G02*
X130850000Y-82075000I0J75000D01*
G01*
G37*
G36*
G01*
X130350000Y-82075000D02*
X130350000Y-80750000D01*
G75*
G02*
X130425000Y-80675000I75000J0D01*
G01*
X130575000Y-80675000D01*
G75*
G02*
X130650000Y-80750000I0J-75000D01*
G01*
X130650000Y-82075000D01*
G75*
G02*
X130575000Y-82150000I-75000J0D01*
G01*
X130425000Y-82150000D01*
G75*
G02*
X130350000Y-82075000I0J75000D01*
G01*
G37*
G36*
G01*
X129850000Y-82075000D02*
X129850000Y-80750000D01*
G75*
G02*
X129925000Y-80675000I75000J0D01*
G01*
X130075000Y-80675000D01*
G75*
G02*
X130150000Y-80750000I0J-75000D01*
G01*
X130150000Y-82075000D01*
G75*
G02*
X130075000Y-82150000I-75000J0D01*
G01*
X129925000Y-82150000D01*
G75*
G02*
X129850000Y-82075000I0J75000D01*
G01*
G37*
G36*
G01*
X129350000Y-82075000D02*
X129350000Y-80750000D01*
G75*
G02*
X129425000Y-80675000I75000J0D01*
G01*
X129575000Y-80675000D01*
G75*
G02*
X129650000Y-80750000I0J-75000D01*
G01*
X129650000Y-82075000D01*
G75*
G02*
X129575000Y-82150000I-75000J0D01*
G01*
X129425000Y-82150000D01*
G75*
G02*
X129350000Y-82075000I0J75000D01*
G01*
G37*
G36*
G01*
X128850000Y-82075000D02*
X128850000Y-80750000D01*
G75*
G02*
X128925000Y-80675000I75000J0D01*
G01*
X129075000Y-80675000D01*
G75*
G02*
X129150000Y-80750000I0J-75000D01*
G01*
X129150000Y-82075000D01*
G75*
G02*
X129075000Y-82150000I-75000J0D01*
G01*
X128925000Y-82150000D01*
G75*
G02*
X128850000Y-82075000I0J75000D01*
G01*
G37*
G36*
G01*
X128350000Y-82075000D02*
X128350000Y-80750000D01*
G75*
G02*
X128425000Y-80675000I75000J0D01*
G01*
X128575000Y-80675000D01*
G75*
G02*
X128650000Y-80750000I0J-75000D01*
G01*
X128650000Y-82075000D01*
G75*
G02*
X128575000Y-82150000I-75000J0D01*
G01*
X128425000Y-82150000D01*
G75*
G02*
X128350000Y-82075000I0J75000D01*
G01*
G37*
G36*
G01*
X127850000Y-82075000D02*
X127850000Y-80750000D01*
G75*
G02*
X127925000Y-80675000I75000J0D01*
G01*
X128075000Y-80675000D01*
G75*
G02*
X128150000Y-80750000I0J-75000D01*
G01*
X128150000Y-82075000D01*
G75*
G02*
X128075000Y-82150000I-75000J0D01*
G01*
X127925000Y-82150000D01*
G75*
G02*
X127850000Y-82075000I0J75000D01*
G01*
G37*
G36*
G01*
X127350000Y-82075000D02*
X127350000Y-80750000D01*
G75*
G02*
X127425000Y-80675000I75000J0D01*
G01*
X127575000Y-80675000D01*
G75*
G02*
X127650000Y-80750000I0J-75000D01*
G01*
X127650000Y-82075000D01*
G75*
G02*
X127575000Y-82150000I-75000J0D01*
G01*
X127425000Y-82150000D01*
G75*
G02*
X127350000Y-82075000I0J75000D01*
G01*
G37*
G36*
G01*
X126850000Y-82075000D02*
X126850000Y-80750000D01*
G75*
G02*
X126925000Y-80675000I75000J0D01*
G01*
X127075000Y-80675000D01*
G75*
G02*
X127150000Y-80750000I0J-75000D01*
G01*
X127150000Y-82075000D01*
G75*
G02*
X127075000Y-82150000I-75000J0D01*
G01*
X126925000Y-82150000D01*
G75*
G02*
X126850000Y-82075000I0J75000D01*
G01*
G37*
G36*
G01*
X126350000Y-82075000D02*
X126350000Y-80750000D01*
G75*
G02*
X126425000Y-80675000I75000J0D01*
G01*
X126575000Y-80675000D01*
G75*
G02*
X126650000Y-80750000I0J-75000D01*
G01*
X126650000Y-82075000D01*
G75*
G02*
X126575000Y-82150000I-75000J0D01*
G01*
X126425000Y-82150000D01*
G75*
G02*
X126350000Y-82075000I0J75000D01*
G01*
G37*
%TD*%
D21*
%TO.C,RV1*%
X129250000Y-68250000D03*
X126750000Y-65750000D03*
X129250000Y-63250000D03*
%TD*%
D13*
%TO.C,K16*%
X141250000Y-130750000D03*
X143790000Y-130750000D03*
D14*
X153950000Y-130750000D03*
X159030000Y-130750000D03*
%TD*%
D13*
%TO.C,K15*%
X141250000Y-124750000D03*
X143790000Y-124750000D03*
D14*
X153950000Y-124750000D03*
X159030000Y-124750000D03*
%TD*%
D13*
%TO.C,K14*%
X141250000Y-118750000D03*
X143790000Y-118750000D03*
D14*
X153950000Y-118750000D03*
X159030000Y-118750000D03*
%TD*%
D13*
%TO.C,K13*%
X141250000Y-112750000D03*
X143790000Y-112750000D03*
D14*
X153950000Y-112750000D03*
X159030000Y-112750000D03*
%TD*%
D13*
%TO.C,K12*%
X141250000Y-106750000D03*
X143790000Y-106750000D03*
D14*
X153950000Y-106750000D03*
X159030000Y-106750000D03*
%TD*%
D13*
%TO.C,K11*%
X141250000Y-100750000D03*
X143790000Y-100750000D03*
D14*
X153950000Y-100750000D03*
X159030000Y-100750000D03*
%TD*%
D13*
%TO.C,K10*%
X141250000Y-94750000D03*
X143790000Y-94750000D03*
D14*
X153950000Y-94750000D03*
X159030000Y-94750000D03*
%TD*%
D13*
%TO.C,K9*%
X141250000Y-88750000D03*
X143790000Y-88750000D03*
D14*
X153950000Y-88750000D03*
X159030000Y-88750000D03*
%TD*%
D13*
%TO.C,K8*%
X103250000Y-128750000D03*
X100710000Y-128750000D03*
D14*
X90550000Y-128750000D03*
X85470000Y-128750000D03*
%TD*%
D13*
%TO.C,K7*%
X103250000Y-122750000D03*
X100710000Y-122750000D03*
D14*
X90550000Y-122750000D03*
X85470000Y-122750000D03*
%TD*%
D13*
%TO.C,K6*%
X103250000Y-116750000D03*
X100710000Y-116750000D03*
D14*
X90550000Y-116750000D03*
X85470000Y-116750000D03*
%TD*%
D13*
%TO.C,K5*%
X103250000Y-110750000D03*
X100710000Y-110750000D03*
D14*
X90550000Y-110750000D03*
X85470000Y-110750000D03*
%TD*%
D13*
%TO.C,K4*%
X103250000Y-104750000D03*
X100710000Y-104750000D03*
D14*
X90550000Y-104750000D03*
X85470000Y-104750000D03*
%TD*%
D13*
%TO.C,K3*%
X103250000Y-98750000D03*
X100710000Y-98750000D03*
D14*
X90550000Y-98750000D03*
X85470000Y-98750000D03*
%TD*%
D13*
%TO.C,K2*%
X103250000Y-92750000D03*
X100710000Y-92750000D03*
D14*
X90550000Y-92750000D03*
X85470000Y-92750000D03*
%TD*%
D22*
%TO.C,JP2*%
X129500000Y-84350000D03*
X129500000Y-85650000D03*
%TD*%
D20*
%TO.C,J12*%
X166250000Y-130750000D03*
D19*
X166250000Y-125750000D03*
X166250000Y-120750000D03*
X166250000Y-115750000D03*
X166250000Y-110750000D03*
X166250000Y-105750000D03*
X166250000Y-100750000D03*
X166250000Y-95750000D03*
X166250000Y-90750000D03*
X166250000Y-85750000D03*
%TD*%
D20*
%TO.C,J11*%
X78250000Y-85750000D03*
D19*
X78250000Y-90750000D03*
X78250000Y-95750000D03*
X78250000Y-100750000D03*
X78250000Y-105750000D03*
X78250000Y-110750000D03*
X78250000Y-115750000D03*
X78250000Y-120750000D03*
X78250000Y-125750000D03*
X78250000Y-130750000D03*
%TD*%
D12*
%TO.C,J8*%
X149250000Y-73750000D03*
D11*
X146710000Y-73750000D03*
X144170000Y-73750000D03*
X141630000Y-73750000D03*
%TD*%
D12*
%TO.C,J7*%
X149250000Y-81250000D03*
D11*
X146710000Y-81250000D03*
X144170000Y-81250000D03*
X141630000Y-81250000D03*
%TD*%
D12*
%TO.C,J4*%
X149250000Y-77500000D03*
D11*
X146710000Y-77500000D03*
X144170000Y-77500000D03*
X141630000Y-77500000D03*
%TD*%
%TO.C,C31*%
G36*
G01*
X124025000Y-103250000D02*
X124025000Y-102750000D01*
G75*
G02*
X124250000Y-102525000I225000J0D01*
G01*
X124700000Y-102525000D01*
G75*
G02*
X124925000Y-102750000I0J-225000D01*
G01*
X124925000Y-103250000D01*
G75*
G02*
X124700000Y-103475000I-225000J0D01*
G01*
X124250000Y-103475000D01*
G75*
G02*
X124025000Y-103250000I0J225000D01*
G01*
G37*
G36*
G01*
X125575000Y-103250000D02*
X125575000Y-102750000D01*
G75*
G02*
X125800000Y-102525000I225000J0D01*
G01*
X126250000Y-102525000D01*
G75*
G02*
X126475000Y-102750000I0J-225000D01*
G01*
X126475000Y-103250000D01*
G75*
G02*
X126250000Y-103475000I-225000J0D01*
G01*
X125800000Y-103475000D01*
G75*
G02*
X125575000Y-103250000I0J225000D01*
G01*
G37*
%TD*%
D15*
%TO.C,C28*%
X85250000Y-70750000D03*
D16*
X92750000Y-70750000D03*
%TD*%
D15*
%TO.C,C27*%
X92750000Y-79750000D03*
D16*
X85250000Y-79750000D03*
%TD*%
%TO.C,C26*%
G36*
G01*
X131975000Y-88200000D02*
X131025000Y-88200000D01*
G75*
G02*
X130775000Y-87950000I0J250000D01*
G01*
X130775000Y-87450000D01*
G75*
G02*
X131025000Y-87200000I250000J0D01*
G01*
X131975000Y-87200000D01*
G75*
G02*
X132225000Y-87450000I0J-250000D01*
G01*
X132225000Y-87950000D01*
G75*
G02*
X131975000Y-88200000I-250000J0D01*
G01*
G37*
G36*
G01*
X131975000Y-86300000D02*
X131025000Y-86300000D01*
G75*
G02*
X130775000Y-86050000I0J250000D01*
G01*
X130775000Y-85550000D01*
G75*
G02*
X131025000Y-85300000I250000J0D01*
G01*
X131975000Y-85300000D01*
G75*
G02*
X132225000Y-85550000I0J-250000D01*
G01*
X132225000Y-86050000D01*
G75*
G02*
X131975000Y-86300000I-250000J0D01*
G01*
G37*
%TD*%
%TO.C,C25*%
G36*
G01*
X130950000Y-70275000D02*
X130950000Y-71225000D01*
G75*
G02*
X130700000Y-71475000I-250000J0D01*
G01*
X130200000Y-71475000D01*
G75*
G02*
X129950000Y-71225000I0J250000D01*
G01*
X129950000Y-70275000D01*
G75*
G02*
X130200000Y-70025000I250000J0D01*
G01*
X130700000Y-70025000D01*
G75*
G02*
X130950000Y-70275000I0J-250000D01*
G01*
G37*
G36*
G01*
X129050000Y-70275000D02*
X129050000Y-71225000D01*
G75*
G02*
X128800000Y-71475000I-250000J0D01*
G01*
X128300000Y-71475000D01*
G75*
G02*
X128050000Y-71225000I0J250000D01*
G01*
X128050000Y-70275000D01*
G75*
G02*
X128300000Y-70025000I250000J0D01*
G01*
X128800000Y-70025000D01*
G75*
G02*
X129050000Y-70275000I0J-250000D01*
G01*
G37*
%TD*%
D15*
%TO.C,C24*%
X103250000Y-65750000D03*
D16*
X95750000Y-65750000D03*
%TD*%
%TO.C,C23*%
G36*
G01*
X118950000Y-75525000D02*
X118950000Y-76475000D01*
G75*
G02*
X118700000Y-76725000I-250000J0D01*
G01*
X118200000Y-76725000D01*
G75*
G02*
X117950000Y-76475000I0J250000D01*
G01*
X117950000Y-75525000D01*
G75*
G02*
X118200000Y-75275000I250000J0D01*
G01*
X118700000Y-75275000D01*
G75*
G02*
X118950000Y-75525000I0J-250000D01*
G01*
G37*
G36*
G01*
X117050000Y-75525000D02*
X117050000Y-76475000D01*
G75*
G02*
X116800000Y-76725000I-250000J0D01*
G01*
X116300000Y-76725000D01*
G75*
G02*
X116050000Y-76475000I0J250000D01*
G01*
X116050000Y-75525000D01*
G75*
G02*
X116300000Y-75275000I250000J0D01*
G01*
X116800000Y-75275000D01*
G75*
G02*
X117050000Y-75525000I0J-250000D01*
G01*
G37*
%TD*%
%TO.C,C22*%
G36*
G01*
X136300000Y-81225000D02*
X136300000Y-80275000D01*
G75*
G02*
X136550000Y-80025000I250000J0D01*
G01*
X137050000Y-80025000D01*
G75*
G02*
X137300000Y-80275000I0J-250000D01*
G01*
X137300000Y-81225000D01*
G75*
G02*
X137050000Y-81475000I-250000J0D01*
G01*
X136550000Y-81475000D01*
G75*
G02*
X136300000Y-81225000I0J250000D01*
G01*
G37*
G36*
G01*
X138200000Y-81225000D02*
X138200000Y-80275000D01*
G75*
G02*
X138450000Y-80025000I250000J0D01*
G01*
X138950000Y-80025000D01*
G75*
G02*
X139200000Y-80275000I0J-250000D01*
G01*
X139200000Y-81225000D01*
G75*
G02*
X138950000Y-81475000I-250000J0D01*
G01*
X138450000Y-81475000D01*
G75*
G02*
X138200000Y-81225000I0J250000D01*
G01*
G37*
%TD*%
D15*
%TO.C,C21*%
X103250000Y-70750000D03*
D16*
X95750000Y-70750000D03*
%TD*%
D15*
%TO.C,C19*%
X109000000Y-76000000D03*
D16*
X109000000Y-83500000D03*
%TD*%
D15*
%TO.C,C18*%
X85250000Y-65750000D03*
D16*
X92750000Y-65750000D03*
%TD*%
%TO.C,C15*%
G36*
G01*
X161300000Y-64225000D02*
X161300000Y-63275000D01*
G75*
G02*
X161550000Y-63025000I250000J0D01*
G01*
X162050000Y-63025000D01*
G75*
G02*
X162300000Y-63275000I0J-250000D01*
G01*
X162300000Y-64225000D01*
G75*
G02*
X162050000Y-64475000I-250000J0D01*
G01*
X161550000Y-64475000D01*
G75*
G02*
X161300000Y-64225000I0J250000D01*
G01*
G37*
G36*
G01*
X163200000Y-64225000D02*
X163200000Y-63275000D01*
G75*
G02*
X163450000Y-63025000I250000J0D01*
G01*
X163950000Y-63025000D01*
G75*
G02*
X164200000Y-63275000I0J-250000D01*
G01*
X164200000Y-64225000D01*
G75*
G02*
X163950000Y-64475000I-250000J0D01*
G01*
X163450000Y-64475000D01*
G75*
G02*
X163200000Y-64225000I0J250000D01*
G01*
G37*
%TD*%
%TO.C,C14*%
G36*
G01*
X167200000Y-63275000D02*
X167200000Y-64225000D01*
G75*
G02*
X166950000Y-64475000I-250000J0D01*
G01*
X166450000Y-64475000D01*
G75*
G02*
X166200000Y-64225000I0J250000D01*
G01*
X166200000Y-63275000D01*
G75*
G02*
X166450000Y-63025000I250000J0D01*
G01*
X166950000Y-63025000D01*
G75*
G02*
X167200000Y-63275000I0J-250000D01*
G01*
G37*
G36*
G01*
X165300000Y-63275000D02*
X165300000Y-64225000D01*
G75*
G02*
X165050000Y-64475000I-250000J0D01*
G01*
X164550000Y-64475000D01*
G75*
G02*
X164300000Y-64225000I0J250000D01*
G01*
X164300000Y-63275000D01*
G75*
G02*
X164550000Y-63025000I250000J0D01*
G01*
X165050000Y-63025000D01*
G75*
G02*
X165300000Y-63275000I0J-250000D01*
G01*
G37*
%TD*%
%TO.C,C12*%
G36*
G01*
X162800000Y-53725000D02*
X162800000Y-52775000D01*
G75*
G02*
X163050000Y-52525000I250000J0D01*
G01*
X163550000Y-52525000D01*
G75*
G02*
X163800000Y-52775000I0J-250000D01*
G01*
X163800000Y-53725000D01*
G75*
G02*
X163550000Y-53975000I-250000J0D01*
G01*
X163050000Y-53975000D01*
G75*
G02*
X162800000Y-53725000I0J250000D01*
G01*
G37*
G36*
G01*
X164700000Y-53725000D02*
X164700000Y-52775000D01*
G75*
G02*
X164950000Y-52525000I250000J0D01*
G01*
X165450000Y-52525000D01*
G75*
G02*
X165700000Y-52775000I0J-250000D01*
G01*
X165700000Y-53725000D01*
G75*
G02*
X165450000Y-53975000I-250000J0D01*
G01*
X164950000Y-53975000D01*
G75*
G02*
X164700000Y-53725000I0J250000D01*
G01*
G37*
%TD*%
%TO.C,C11*%
G36*
G01*
X166725000Y-58700000D02*
X165775000Y-58700000D01*
G75*
G02*
X165525000Y-58450000I0J250000D01*
G01*
X165525000Y-57950000D01*
G75*
G02*
X165775000Y-57700000I250000J0D01*
G01*
X166725000Y-57700000D01*
G75*
G02*
X166975000Y-57950000I0J-250000D01*
G01*
X166975000Y-58450000D01*
G75*
G02*
X166725000Y-58700000I-250000J0D01*
G01*
G37*
G36*
G01*
X166725000Y-56800000D02*
X165775000Y-56800000D01*
G75*
G02*
X165525000Y-56550000I0J250000D01*
G01*
X165525000Y-56050000D01*
G75*
G02*
X165775000Y-55800000I250000J0D01*
G01*
X166725000Y-55800000D01*
G75*
G02*
X166975000Y-56050000I0J-250000D01*
G01*
X166975000Y-56550000D01*
G75*
G02*
X166725000Y-56800000I-250000J0D01*
G01*
G37*
%TD*%
M02*
