%TF.GenerationSoftware,KiCad,Pcbnew,(5.1.10)-1*%
%TF.CreationDate,2021-06-11T23:30:18+03:00*%
%TF.ProjectId,chiller board,6368696c-6c65-4722-9062-6f6172642e6b,rev?*%
%TF.SameCoordinates,Original*%
%TF.FileFunction,Legend,Bot*%
%TF.FilePolarity,Positive*%
%FSLAX46Y46*%
G04 Gerber Fmt 4.6, Leading zero omitted, Abs format (unit mm)*
G04 Created by KiCad (PCBNEW (5.1.10)-1) date 2021-06-11 23:30:18*
%MOMM*%
%LPD*%
G01*
G04 APERTURE LIST*
%ADD10C,0.150000*%
%ADD11C,0.500000*%
%ADD12C,1.500000*%
%ADD13C,0.300000*%
%ADD14C,0.100000*%
%ADD15C,0.200000*%
%ADD16C,0.120000*%
%ADD17C,0.254000*%
G04 APERTURE END LIST*
D10*
X140285714Y-57452380D02*
X140285714Y-56452380D01*
X139857142Y-57452380D02*
X139857142Y-56928571D01*
X139904761Y-56833333D01*
X140000000Y-56785714D01*
X140142857Y-56785714D01*
X140238095Y-56833333D01*
X140285714Y-56880952D01*
X139523809Y-56785714D02*
X139142857Y-56785714D01*
X139380952Y-56452380D02*
X139380952Y-57309523D01*
X139333333Y-57404761D01*
X139238095Y-57452380D01*
X139142857Y-57452380D01*
X138952380Y-56785714D02*
X138571428Y-56785714D01*
X138809523Y-56452380D02*
X138809523Y-57309523D01*
X138761904Y-57404761D01*
X138666666Y-57452380D01*
X138571428Y-57452380D01*
X138238095Y-56785714D02*
X138238095Y-57785714D01*
X138238095Y-56833333D02*
X138142857Y-56785714D01*
X137952380Y-56785714D01*
X137857142Y-56833333D01*
X137809523Y-56880952D01*
X137761904Y-56976190D01*
X137761904Y-57261904D01*
X137809523Y-57357142D01*
X137857142Y-57404761D01*
X137952380Y-57452380D01*
X138142857Y-57452380D01*
X138238095Y-57404761D01*
X137380952Y-57404761D02*
X137285714Y-57452380D01*
X137095238Y-57452380D01*
X137000000Y-57404761D01*
X136952380Y-57309523D01*
X136952380Y-57261904D01*
X137000000Y-57166666D01*
X137095238Y-57119047D01*
X137238095Y-57119047D01*
X137333333Y-57071428D01*
X137380952Y-56976190D01*
X137380952Y-56928571D01*
X137333333Y-56833333D01*
X137238095Y-56785714D01*
X137095238Y-56785714D01*
X137000000Y-56833333D01*
X136523809Y-57357142D02*
X136476190Y-57404761D01*
X136523809Y-57452380D01*
X136571428Y-57404761D01*
X136523809Y-57357142D01*
X136523809Y-57452380D01*
X136523809Y-56833333D02*
X136476190Y-56880952D01*
X136523809Y-56928571D01*
X136571428Y-56880952D01*
X136523809Y-56833333D01*
X136523809Y-56928571D01*
X135333333Y-56404761D02*
X136190476Y-57690476D01*
X134285714Y-56404761D02*
X135142857Y-57690476D01*
X133523809Y-56785714D02*
X133523809Y-57595238D01*
X133571428Y-57690476D01*
X133619047Y-57738095D01*
X133714285Y-57785714D01*
X133857142Y-57785714D01*
X133952380Y-57738095D01*
X133523809Y-57404761D02*
X133619047Y-57452380D01*
X133809523Y-57452380D01*
X133904761Y-57404761D01*
X133952380Y-57357142D01*
X134000000Y-57261904D01*
X134000000Y-56976190D01*
X133952380Y-56880952D01*
X133904761Y-56833333D01*
X133809523Y-56785714D01*
X133619047Y-56785714D01*
X133523809Y-56833333D01*
X133047619Y-57452380D02*
X133047619Y-56785714D01*
X133047619Y-56452380D02*
X133095238Y-56500000D01*
X133047619Y-56547619D01*
X133000000Y-56500000D01*
X133047619Y-56452380D01*
X133047619Y-56547619D01*
X132714285Y-56785714D02*
X132333333Y-56785714D01*
X132571428Y-56452380D02*
X132571428Y-57309523D01*
X132523809Y-57404761D01*
X132428571Y-57452380D01*
X132333333Y-57452380D01*
X132000000Y-57452380D02*
X132000000Y-56452380D01*
X131571428Y-57452380D02*
X131571428Y-56928571D01*
X131619047Y-56833333D01*
X131714285Y-56785714D01*
X131857142Y-56785714D01*
X131952380Y-56833333D01*
X132000000Y-56880952D01*
X130666666Y-56785714D02*
X130666666Y-57452380D01*
X131095238Y-56785714D02*
X131095238Y-57309523D01*
X131047619Y-57404761D01*
X130952380Y-57452380D01*
X130809523Y-57452380D01*
X130714285Y-57404761D01*
X130666666Y-57357142D01*
X130190476Y-57452380D02*
X130190476Y-56452380D01*
X130190476Y-56833333D02*
X130095238Y-56785714D01*
X129904761Y-56785714D01*
X129809523Y-56833333D01*
X129761904Y-56880952D01*
X129714285Y-56976190D01*
X129714285Y-57261904D01*
X129761904Y-57357142D01*
X129809523Y-57404761D01*
X129904761Y-57452380D01*
X130095238Y-57452380D01*
X130190476Y-57404761D01*
X129285714Y-57357142D02*
X129238095Y-57404761D01*
X129285714Y-57452380D01*
X129333333Y-57404761D01*
X129285714Y-57357142D01*
X129285714Y-57452380D01*
X128380952Y-57404761D02*
X128476190Y-57452380D01*
X128666666Y-57452380D01*
X128761904Y-57404761D01*
X128809523Y-57357142D01*
X128857142Y-57261904D01*
X128857142Y-56976190D01*
X128809523Y-56880952D01*
X128761904Y-56833333D01*
X128666666Y-56785714D01*
X128476190Y-56785714D01*
X128380952Y-56833333D01*
X127809523Y-57452380D02*
X127904761Y-57404761D01*
X127952380Y-57357142D01*
X128000000Y-57261904D01*
X128000000Y-56976190D01*
X127952380Y-56880952D01*
X127904761Y-56833333D01*
X127809523Y-56785714D01*
X127666666Y-56785714D01*
X127571428Y-56833333D01*
X127523809Y-56880952D01*
X127476190Y-56976190D01*
X127476190Y-57261904D01*
X127523809Y-57357142D01*
X127571428Y-57404761D01*
X127666666Y-57452380D01*
X127809523Y-57452380D01*
X127047619Y-57452380D02*
X127047619Y-56785714D01*
X127047619Y-56880952D02*
X127000000Y-56833333D01*
X126904761Y-56785714D01*
X126761904Y-56785714D01*
X126666666Y-56833333D01*
X126619047Y-56928571D01*
X126619047Y-57452380D01*
X126619047Y-56928571D02*
X126571428Y-56833333D01*
X126476190Y-56785714D01*
X126333333Y-56785714D01*
X126238095Y-56833333D01*
X126190476Y-56928571D01*
X126190476Y-57452380D01*
X125000000Y-56404761D02*
X125857142Y-57690476D01*
X124761904Y-57452380D02*
X124238095Y-56785714D01*
X124761904Y-56785714D02*
X124238095Y-57452380D01*
X123857142Y-57452380D02*
X123857142Y-56785714D01*
X123857142Y-56452380D02*
X123904761Y-56500000D01*
X123857142Y-56547619D01*
X123809523Y-56500000D01*
X123857142Y-56452380D01*
X123857142Y-56547619D01*
X123523809Y-56785714D02*
X123142857Y-56785714D01*
X123380952Y-56452380D02*
X123380952Y-57309523D01*
X123333333Y-57404761D01*
X123238095Y-57452380D01*
X123142857Y-57452380D01*
X122809523Y-57452380D02*
X122809523Y-56785714D01*
X122809523Y-56880952D02*
X122761904Y-56833333D01*
X122666666Y-56785714D01*
X122523809Y-56785714D01*
X122428571Y-56833333D01*
X122380952Y-56928571D01*
X122380952Y-57452380D01*
X122380952Y-56928571D02*
X122333333Y-56833333D01*
X122238095Y-56785714D01*
X122095238Y-56785714D01*
X122000000Y-56833333D01*
X121952380Y-56928571D01*
X121952380Y-57452380D01*
X121047619Y-57452380D02*
X121047619Y-56928571D01*
X121095238Y-56833333D01*
X121190476Y-56785714D01*
X121380952Y-56785714D01*
X121476190Y-56833333D01*
X121047619Y-57404761D02*
X121142857Y-57452380D01*
X121380952Y-57452380D01*
X121476190Y-57404761D01*
X121523809Y-57309523D01*
X121523809Y-57214285D01*
X121476190Y-57119047D01*
X121380952Y-57071428D01*
X121142857Y-57071428D01*
X121047619Y-57023809D01*
X120571428Y-56785714D02*
X120571428Y-57452380D01*
X120571428Y-56880952D02*
X120523809Y-56833333D01*
X120428571Y-56785714D01*
X120285714Y-56785714D01*
X120190476Y-56833333D01*
X120142857Y-56928571D01*
X120142857Y-57452380D01*
X119761904Y-56452380D02*
X119142857Y-56452380D01*
X119476190Y-56833333D01*
X119333333Y-56833333D01*
X119238095Y-56880952D01*
X119190476Y-56928571D01*
X119142857Y-57023809D01*
X119142857Y-57261904D01*
X119190476Y-57357142D01*
X119238095Y-57404761D01*
X119333333Y-57452380D01*
X119619047Y-57452380D01*
X119714285Y-57404761D01*
X119761904Y-57357142D01*
X118761904Y-56547619D02*
X118714285Y-56500000D01*
X118619047Y-56452380D01*
X118380952Y-56452380D01*
X118285714Y-56500000D01*
X118238095Y-56547619D01*
X118190476Y-56642857D01*
X118190476Y-56738095D01*
X118238095Y-56880952D01*
X118809523Y-57452380D01*
X118190476Y-57452380D01*
X117857142Y-56452380D02*
X117190476Y-56452380D01*
X117619047Y-57452380D01*
X116095238Y-56404761D02*
X116952380Y-57690476D01*
X115333333Y-57404761D02*
X115428571Y-57452380D01*
X115619047Y-57452380D01*
X115714285Y-57404761D01*
X115761904Y-57357142D01*
X115809523Y-57261904D01*
X115809523Y-56976190D01*
X115761904Y-56880952D01*
X115714285Y-56833333D01*
X115619047Y-56785714D01*
X115428571Y-56785714D01*
X115333333Y-56833333D01*
X114904761Y-57452380D02*
X114904761Y-56452380D01*
X114476190Y-57452380D02*
X114476190Y-56928571D01*
X114523809Y-56833333D01*
X114619047Y-56785714D01*
X114761904Y-56785714D01*
X114857142Y-56833333D01*
X114904761Y-56880952D01*
X114000000Y-57452380D02*
X114000000Y-56785714D01*
X114000000Y-56452380D02*
X114047619Y-56500000D01*
X114000000Y-56547619D01*
X113952380Y-56500000D01*
X114000000Y-56452380D01*
X114000000Y-56547619D01*
X113380952Y-57452380D02*
X113476190Y-57404761D01*
X113523809Y-57309523D01*
X113523809Y-56452380D01*
X112857142Y-57452380D02*
X112952380Y-57404761D01*
X113000000Y-57309523D01*
X113000000Y-56452380D01*
X112095238Y-57404761D02*
X112190476Y-57452380D01*
X112380952Y-57452380D01*
X112476190Y-57404761D01*
X112523809Y-57309523D01*
X112523809Y-56928571D01*
X112476190Y-56833333D01*
X112380952Y-56785714D01*
X112190476Y-56785714D01*
X112095238Y-56833333D01*
X112047619Y-56928571D01*
X112047619Y-57023809D01*
X112523809Y-57119047D01*
X111619047Y-57452380D02*
X111619047Y-56785714D01*
X111619047Y-56976190D02*
X111571428Y-56880952D01*
X111523809Y-56833333D01*
X111428571Y-56785714D01*
X111333333Y-56785714D01*
X111238095Y-57547619D02*
X110476190Y-57547619D01*
X110238095Y-57452380D02*
X110238095Y-56452380D01*
X110238095Y-56833333D02*
X110142857Y-56785714D01*
X109952380Y-56785714D01*
X109857142Y-56833333D01*
X109809523Y-56880952D01*
X109761904Y-56976190D01*
X109761904Y-57261904D01*
X109809523Y-57357142D01*
X109857142Y-57404761D01*
X109952380Y-57452380D01*
X110142857Y-57452380D01*
X110238095Y-57404761D01*
X109190476Y-57452380D02*
X109285714Y-57404761D01*
X109333333Y-57357142D01*
X109380952Y-57261904D01*
X109380952Y-56976190D01*
X109333333Y-56880952D01*
X109285714Y-56833333D01*
X109190476Y-56785714D01*
X109047619Y-56785714D01*
X108952380Y-56833333D01*
X108904761Y-56880952D01*
X108857142Y-56976190D01*
X108857142Y-57261904D01*
X108904761Y-57357142D01*
X108952380Y-57404761D01*
X109047619Y-57452380D01*
X109190476Y-57452380D01*
X108000000Y-57452380D02*
X108000000Y-56928571D01*
X108047619Y-56833333D01*
X108142857Y-56785714D01*
X108333333Y-56785714D01*
X108428571Y-56833333D01*
X108000000Y-57404761D02*
X108095238Y-57452380D01*
X108333333Y-57452380D01*
X108428571Y-57404761D01*
X108476190Y-57309523D01*
X108476190Y-57214285D01*
X108428571Y-57119047D01*
X108333333Y-57071428D01*
X108095238Y-57071428D01*
X108000000Y-57023809D01*
X107523809Y-57452380D02*
X107523809Y-56785714D01*
X107523809Y-56976190D02*
X107476190Y-56880952D01*
X107428571Y-56833333D01*
X107333333Y-56785714D01*
X107238095Y-56785714D01*
X106476190Y-57452380D02*
X106476190Y-56452380D01*
X106476190Y-57404761D02*
X106571428Y-57452380D01*
X106761904Y-57452380D01*
X106857142Y-57404761D01*
X106904761Y-57357142D01*
X106952380Y-57261904D01*
X106952380Y-56976190D01*
X106904761Y-56880952D01*
X106857142Y-56833333D01*
X106761904Y-56785714D01*
X106571428Y-56785714D01*
X106476190Y-56833333D01*
X106238095Y-57547619D02*
X105476190Y-57547619D01*
X104666666Y-57452380D02*
X105000000Y-56976190D01*
X105238095Y-57452380D02*
X105238095Y-56452380D01*
X104857142Y-56452380D01*
X104761904Y-56500000D01*
X104714285Y-56547619D01*
X104666666Y-56642857D01*
X104666666Y-56785714D01*
X104714285Y-56880952D01*
X104761904Y-56928571D01*
X104857142Y-56976190D01*
X105238095Y-56976190D01*
X104238095Y-56928571D02*
X103904761Y-56928571D01*
X103761904Y-57452380D02*
X104238095Y-57452380D01*
X104238095Y-56452380D01*
X103761904Y-56452380D01*
X103476190Y-56452380D02*
X103142857Y-57452380D01*
X102809523Y-56452380D01*
X102476190Y-57357142D02*
X102428571Y-57404761D01*
X102476190Y-57452380D01*
X102523809Y-57404761D01*
X102476190Y-57357142D01*
X102476190Y-57452380D01*
X102047619Y-57166666D02*
X101571428Y-57166666D01*
X102142857Y-57452380D02*
X101809523Y-56452380D01*
X101476190Y-57452380D01*
X100952380Y-56452380D02*
X100857142Y-56452380D01*
X100761904Y-56500000D01*
X100714285Y-56547619D01*
X100666666Y-56642857D01*
X100619047Y-56833333D01*
X100619047Y-57071428D01*
X100666666Y-57261904D01*
X100714285Y-57357142D01*
X100761904Y-57404761D01*
X100857142Y-57452380D01*
X100952380Y-57452380D01*
X101047619Y-57404761D01*
X101095238Y-57357142D01*
X101142857Y-57261904D01*
X101190476Y-57071428D01*
X101190476Y-56833333D01*
X101142857Y-56642857D01*
X101095238Y-56547619D01*
X101047619Y-56500000D01*
X100952380Y-56452380D01*
X99666666Y-57452380D02*
X100238095Y-57452380D01*
X99952380Y-57452380D02*
X99952380Y-56452380D01*
X100047619Y-56595238D01*
X100142857Y-56690476D01*
X100238095Y-56738095D01*
D11*
X133000000Y-55357142D02*
X134000000Y-53928571D01*
X134714285Y-55357142D02*
X134714285Y-52357142D01*
X133571428Y-52357142D01*
X133285714Y-52500000D01*
X133142857Y-52642857D01*
X133000000Y-52928571D01*
X133000000Y-53357142D01*
X133142857Y-53642857D01*
X133285714Y-53785714D01*
X133571428Y-53928571D01*
X134714285Y-53928571D01*
X131714285Y-53785714D02*
X130714285Y-53785714D01*
X130285714Y-55357142D02*
X131714285Y-55357142D01*
X131714285Y-52357142D01*
X130285714Y-52357142D01*
X129142857Y-54500000D02*
X127714285Y-54500000D01*
X129428571Y-55357142D02*
X128428571Y-52357142D01*
X127428571Y-55357142D01*
X126428571Y-55357142D02*
X126428571Y-52357142D01*
X125714285Y-52357142D01*
X125285714Y-52500000D01*
X125000000Y-52785714D01*
X124857142Y-53071428D01*
X124714285Y-53642857D01*
X124714285Y-54071428D01*
X124857142Y-54642857D01*
X125000000Y-54928571D01*
X125285714Y-55214285D01*
X125714285Y-55357142D01*
X126428571Y-55357142D01*
X121142857Y-55357142D02*
X121142857Y-52357142D01*
X120142857Y-54500000D01*
X119142857Y-52357142D01*
X119142857Y-55357142D01*
X117857142Y-54500000D02*
X116428571Y-54500000D01*
X118142857Y-55357142D02*
X117142857Y-52357142D01*
X116142857Y-55357142D01*
X115142857Y-55357142D02*
X115142857Y-52357142D01*
X113428571Y-55357142D01*
X113428571Y-52357142D01*
X112000000Y-52357142D02*
X112000000Y-54785714D01*
X111857142Y-55071428D01*
X111714285Y-55214285D01*
X111428571Y-55357142D01*
X110857142Y-55357142D01*
X110571428Y-55214285D01*
X110428571Y-55071428D01*
X110285714Y-54785714D01*
X110285714Y-52357142D01*
X109000000Y-54500000D02*
X107571428Y-54500000D01*
X109285714Y-55357142D02*
X108285714Y-52357142D01*
X107285714Y-55357142D01*
X104857142Y-55357142D02*
X106285714Y-55357142D01*
X106285714Y-52357142D01*
X117750000Y-117250000D02*
X117750000Y-130250000D01*
X127500000Y-117250000D02*
X117750000Y-117250000D01*
X127500000Y-130250000D02*
X127500000Y-117250000D01*
X117750000Y-130250000D02*
X127500000Y-130250000D01*
D12*
X125130952Y-125916666D02*
X120369047Y-125916666D01*
X126083333Y-128773809D02*
X122750000Y-118773809D01*
X119416666Y-128773809D01*
D10*
X114000000Y-83250000D02*
X114000000Y-84000000D01*
X129500000Y-83232234D02*
X114000000Y-83250000D01*
X114000000Y-86750000D02*
X114000000Y-84000000D01*
X114500000Y-86750000D02*
X114000000Y-86750000D01*
X129500000Y-86767766D02*
X114500000Y-86750000D01*
X131267767Y-85000000D02*
G75*
G03*
X131267767Y-85000000I-1767767J0D01*
G01*
D13*
X124392857Y-85142857D02*
X124178571Y-85214285D01*
X124107142Y-85285714D01*
X124035714Y-85428571D01*
X124035714Y-85642857D01*
X124107142Y-85785714D01*
X124178571Y-85857142D01*
X124321428Y-85928571D01*
X124892857Y-85928571D01*
X124892857Y-84428571D01*
X124392857Y-84428571D01*
X124250000Y-84500000D01*
X124178571Y-84571428D01*
X124107142Y-84714285D01*
X124107142Y-84857142D01*
X124178571Y-85000000D01*
X124250000Y-85071428D01*
X124392857Y-85142857D01*
X124892857Y-85142857D01*
X123107142Y-84428571D02*
X122821428Y-84428571D01*
X122678571Y-84500000D01*
X122535714Y-84642857D01*
X122464285Y-84928571D01*
X122464285Y-85428571D01*
X122535714Y-85714285D01*
X122678571Y-85857142D01*
X122821428Y-85928571D01*
X123107142Y-85928571D01*
X123250000Y-85857142D01*
X123392857Y-85714285D01*
X123464285Y-85428571D01*
X123464285Y-84928571D01*
X123392857Y-84642857D01*
X123250000Y-84500000D01*
X123107142Y-84428571D01*
X121535714Y-84428571D02*
X121250000Y-84428571D01*
X121107142Y-84500000D01*
X120964285Y-84642857D01*
X120892857Y-84928571D01*
X120892857Y-85428571D01*
X120964285Y-85714285D01*
X121107142Y-85857142D01*
X121250000Y-85928571D01*
X121535714Y-85928571D01*
X121678571Y-85857142D01*
X121821428Y-85714285D01*
X121892857Y-85428571D01*
X121892857Y-84928571D01*
X121821428Y-84642857D01*
X121678571Y-84500000D01*
X121535714Y-84428571D01*
X120464285Y-84428571D02*
X119607142Y-84428571D01*
X120035714Y-85928571D02*
X120035714Y-84428571D01*
X118821428Y-84428571D02*
X118678571Y-84428571D01*
X118535714Y-84500000D01*
X118464285Y-84571428D01*
X118392857Y-84714285D01*
X118321428Y-85000000D01*
X118321428Y-85357142D01*
X118392857Y-85642857D01*
X118464285Y-85785714D01*
X118535714Y-85857142D01*
X118678571Y-85928571D01*
X118821428Y-85928571D01*
X118964285Y-85857142D01*
X119035714Y-85785714D01*
X119107142Y-85642857D01*
X119178571Y-85357142D01*
X119178571Y-85000000D01*
X119107142Y-84714285D01*
X119035714Y-84571428D01*
X118964285Y-84500000D01*
X118821428Y-84428571D01*
X118035714Y-86071428D02*
X116892857Y-86071428D01*
X116107142Y-84428571D02*
X116107142Y-85500000D01*
X116178571Y-85714285D01*
X116321428Y-85857142D01*
X116535714Y-85928571D01*
X116678571Y-85928571D01*
X115392857Y-85928571D02*
X115392857Y-84428571D01*
X114821428Y-84428571D01*
X114678571Y-84500000D01*
X114607142Y-84571428D01*
X114535714Y-84714285D01*
X114535714Y-84928571D01*
X114607142Y-85071428D01*
X114678571Y-85142857D01*
X114821428Y-85214285D01*
X115392857Y-85214285D01*
D11*
X167154761Y-37119047D02*
X166202380Y-36452380D01*
X167154761Y-35976190D02*
X165154761Y-35976190D01*
X165154761Y-36738095D01*
X165250000Y-36928571D01*
X165345238Y-37023809D01*
X165535714Y-37119047D01*
X165821428Y-37119047D01*
X166011904Y-37023809D01*
X166107142Y-36928571D01*
X166202380Y-36738095D01*
X166202380Y-35976190D01*
X166107142Y-37976190D02*
X166107142Y-38642857D01*
X167154761Y-38928571D02*
X167154761Y-37976190D01*
X165154761Y-37976190D01*
X165154761Y-38928571D01*
X165154761Y-39500000D02*
X167154761Y-40166666D01*
X165154761Y-40833333D01*
X166964285Y-41500000D02*
X167059523Y-41595238D01*
X167154761Y-41500000D01*
X167059523Y-41404761D01*
X166964285Y-41500000D01*
X167154761Y-41500000D01*
X166583333Y-42357142D02*
X166583333Y-43309523D01*
X167154761Y-42166666D02*
X165154761Y-42833333D01*
X167154761Y-43500000D01*
X165154761Y-44547619D02*
X165154761Y-44738095D01*
X165250000Y-44928571D01*
X165345238Y-45023809D01*
X165535714Y-45119047D01*
X165916666Y-45214285D01*
X166392857Y-45214285D01*
X166773809Y-45119047D01*
X166964285Y-45023809D01*
X167059523Y-44928571D01*
X167154761Y-44738095D01*
X167154761Y-44547619D01*
X167059523Y-44357142D01*
X166964285Y-44261904D01*
X166773809Y-44166666D01*
X166392857Y-44071428D01*
X165916666Y-44071428D01*
X165535714Y-44166666D01*
X165345238Y-44261904D01*
X165250000Y-44357142D01*
X165154761Y-44547619D01*
X167154761Y-47119047D02*
X167154761Y-45976190D01*
X167154761Y-46547619D02*
X165154761Y-46547619D01*
X165440476Y-46357142D01*
X165630952Y-46166666D01*
X165726190Y-45976190D01*
X168654761Y-37595238D02*
X170654761Y-38928571D01*
X168654761Y-38928571D02*
X170654761Y-37595238D01*
X170654761Y-39690476D02*
X168654761Y-39690476D01*
X168654761Y-40357142D02*
X168654761Y-41500000D01*
X170654761Y-40928571D02*
X168654761Y-40928571D01*
X168654761Y-42547619D02*
X168654761Y-42928571D01*
X168750000Y-43119047D01*
X168940476Y-43309523D01*
X169321428Y-43404761D01*
X169988095Y-43404761D01*
X170369047Y-43309523D01*
X170559523Y-43119047D01*
X170654761Y-42928571D01*
X170654761Y-42547619D01*
X170559523Y-42357142D01*
X170369047Y-42166666D01*
X169988095Y-42071428D01*
X169321428Y-42071428D01*
X168940476Y-42166666D01*
X168750000Y-42357142D01*
X168654761Y-42547619D01*
X170559523Y-44166666D02*
X170654761Y-44452380D01*
X170654761Y-44928571D01*
X170559523Y-45119047D01*
X170464285Y-45214285D01*
X170273809Y-45309523D01*
X170083333Y-45309523D01*
X169892857Y-45214285D01*
X169797619Y-45119047D01*
X169702380Y-44928571D01*
X169607142Y-44547619D01*
X169511904Y-44357142D01*
X169416666Y-44261904D01*
X169226190Y-44166666D01*
X169035714Y-44166666D01*
X168845238Y-44261904D01*
X168750000Y-44357142D01*
X168654761Y-44547619D01*
X168654761Y-45023809D01*
X168750000Y-45309523D01*
D13*
X159357142Y-74378571D02*
X159357142Y-75592857D01*
X159285714Y-75735714D01*
X159214285Y-75807142D01*
X159071428Y-75878571D01*
X158785714Y-75878571D01*
X158642857Y-75807142D01*
X158571428Y-75735714D01*
X158500000Y-75592857D01*
X158500000Y-74378571D01*
X157857142Y-75450000D02*
X157142857Y-75450000D01*
X158000000Y-75878571D02*
X157500000Y-74378571D01*
X157000000Y-75878571D01*
X155642857Y-75878571D02*
X156142857Y-75164285D01*
X156500000Y-75878571D02*
X156500000Y-74378571D01*
X155928571Y-74378571D01*
X155785714Y-74450000D01*
X155714285Y-74521428D01*
X155642857Y-74664285D01*
X155642857Y-74878571D01*
X155714285Y-75021428D01*
X155785714Y-75092857D01*
X155928571Y-75164285D01*
X156500000Y-75164285D01*
X155214285Y-74378571D02*
X154357142Y-74378571D01*
X154785714Y-75878571D02*
X154785714Y-74378571D01*
X153071428Y-75878571D02*
X153928571Y-75878571D01*
X153500000Y-75878571D02*
X153500000Y-74378571D01*
X153642857Y-74592857D01*
X153785714Y-74735714D01*
X153928571Y-74807142D01*
X161821428Y-78357142D02*
X161607142Y-78428571D01*
X161250000Y-78428571D01*
X161107142Y-78357142D01*
X161035714Y-78285714D01*
X160964285Y-78142857D01*
X160964285Y-78000000D01*
X161035714Y-77857142D01*
X161107142Y-77785714D01*
X161250000Y-77714285D01*
X161535714Y-77642857D01*
X161678571Y-77571428D01*
X161750000Y-77500000D01*
X161821428Y-77357142D01*
X161821428Y-77214285D01*
X161750000Y-77071428D01*
X161678571Y-77000000D01*
X161535714Y-76928571D01*
X161178571Y-76928571D01*
X160964285Y-77000000D01*
X160464285Y-76928571D02*
X160107142Y-78428571D01*
X159821428Y-77357142D01*
X159535714Y-78428571D01*
X159178571Y-76928571D01*
X157464285Y-78428571D02*
X157464285Y-76928571D01*
X157107142Y-76928571D01*
X156892857Y-77000000D01*
X156750000Y-77142857D01*
X156678571Y-77285714D01*
X156607142Y-77571428D01*
X156607142Y-77785714D01*
X156678571Y-78071428D01*
X156750000Y-78214285D01*
X156892857Y-78357142D01*
X157107142Y-78428571D01*
X157464285Y-78428571D01*
X155964285Y-77642857D02*
X155464285Y-77642857D01*
X155250000Y-78428571D02*
X155964285Y-78428571D01*
X155964285Y-76928571D01*
X155250000Y-76928571D01*
X154107142Y-77642857D02*
X153892857Y-77714285D01*
X153821428Y-77785714D01*
X153750000Y-77928571D01*
X153750000Y-78142857D01*
X153821428Y-78285714D01*
X153892857Y-78357142D01*
X154035714Y-78428571D01*
X154607142Y-78428571D01*
X154607142Y-76928571D01*
X154107142Y-76928571D01*
X153964285Y-77000000D01*
X153892857Y-77071428D01*
X153821428Y-77214285D01*
X153821428Y-77357142D01*
X153892857Y-77500000D01*
X153964285Y-77571428D01*
X154107142Y-77642857D01*
X154607142Y-77642857D01*
X153107142Y-76928571D02*
X153107142Y-78142857D01*
X153035714Y-78285714D01*
X152964285Y-78357142D01*
X152821428Y-78428571D01*
X152535714Y-78428571D01*
X152392857Y-78357142D01*
X152321428Y-78285714D01*
X152250000Y-78142857D01*
X152250000Y-76928571D01*
X150750000Y-77000000D02*
X150892857Y-76928571D01*
X151107142Y-76928571D01*
X151321428Y-77000000D01*
X151464285Y-77142857D01*
X151535714Y-77285714D01*
X151607142Y-77571428D01*
X151607142Y-77785714D01*
X151535714Y-78071428D01*
X151464285Y-78214285D01*
X151321428Y-78357142D01*
X151107142Y-78428571D01*
X150964285Y-78428571D01*
X150750000Y-78357142D01*
X150678571Y-78285714D01*
X150678571Y-77785714D01*
X150964285Y-77785714D01*
X160500000Y-80550000D02*
X159785714Y-80550000D01*
X160642857Y-80978571D02*
X160142857Y-79478571D01*
X159642857Y-80978571D01*
X159142857Y-79478571D02*
X159142857Y-80692857D01*
X159071428Y-80835714D01*
X159000000Y-80907142D01*
X158857142Y-80978571D01*
X158571428Y-80978571D01*
X158428571Y-80907142D01*
X158357142Y-80835714D01*
X158285714Y-80692857D01*
X158285714Y-79478571D01*
X157714285Y-79478571D02*
X156714285Y-80978571D01*
X156714285Y-79478571D02*
X157714285Y-80978571D01*
X155000000Y-80978571D02*
X155000000Y-79478571D01*
X154357142Y-79621428D02*
X154285714Y-79550000D01*
X154142857Y-79478571D01*
X153785714Y-79478571D01*
X153642857Y-79550000D01*
X153571428Y-79621428D01*
X153500000Y-79764285D01*
X153500000Y-79907142D01*
X153571428Y-80121428D01*
X154428571Y-80978571D01*
X153500000Y-80978571D01*
X152000000Y-80835714D02*
X152071428Y-80907142D01*
X152285714Y-80978571D01*
X152428571Y-80978571D01*
X152642857Y-80907142D01*
X152785714Y-80764285D01*
X152857142Y-80621428D01*
X152928571Y-80335714D01*
X152928571Y-80121428D01*
X152857142Y-79835714D01*
X152785714Y-79692857D01*
X152642857Y-79550000D01*
X152428571Y-79478571D01*
X152285714Y-79478571D01*
X152071428Y-79550000D01*
X152000000Y-79621428D01*
D10*
%TO.C,U5*%
X115925000Y-94125000D02*
X116500000Y-94125000D01*
X115925000Y-99875000D02*
X116575000Y-99875000D01*
X126575000Y-99875000D02*
X125925000Y-99875000D01*
X126575000Y-94125000D02*
X125925000Y-94125000D01*
X115925000Y-94125000D02*
X115925000Y-99875000D01*
X126575000Y-94125000D02*
X126575000Y-99875000D01*
X116500000Y-94125000D02*
X116500000Y-92525000D01*
D14*
%TO.C,K1*%
X99250000Y-85550000D02*
X92000000Y-85550000D01*
X92000000Y-85550000D02*
X92000000Y-85550000D01*
X92000000Y-85550000D02*
X99250000Y-85550000D01*
X99250000Y-85550000D02*
X99250000Y-85550000D01*
X89000000Y-85550000D02*
X87000000Y-85550000D01*
X87000000Y-85550000D02*
X87000000Y-85550000D01*
X87000000Y-85550000D02*
X89000000Y-85550000D01*
X89000000Y-85550000D02*
X89000000Y-85550000D01*
X84370000Y-90550000D02*
X104370000Y-90550000D01*
X104370000Y-90550000D02*
X104370000Y-90550000D01*
X104370000Y-90550000D02*
X84370000Y-90550000D01*
X84370000Y-90550000D02*
X84370000Y-90550000D01*
X104370000Y-85550000D02*
X104000000Y-85550000D01*
X104000000Y-85550000D02*
X104000000Y-85550000D01*
X104000000Y-85550000D02*
X104370000Y-85550000D01*
X104370000Y-85550000D02*
X104370000Y-85550000D01*
X84370000Y-85550000D02*
X84750000Y-85550000D01*
X84750000Y-85550000D02*
X84750000Y-85550000D01*
X84750000Y-85550000D02*
X84370000Y-85550000D01*
X84370000Y-85550000D02*
X84370000Y-85550000D01*
X84370000Y-88250000D02*
X84370000Y-88250000D01*
X84370000Y-88250000D02*
X84370000Y-90550000D01*
X84370000Y-90550000D02*
X84370000Y-90550000D01*
X84370000Y-90550000D02*
X84370000Y-88250000D01*
X104370000Y-90550000D02*
X104370000Y-90550000D01*
X104370000Y-90550000D02*
X104370000Y-88000000D01*
X104370000Y-88000000D02*
X104370000Y-88000000D01*
X104370000Y-88000000D02*
X104370000Y-90550000D01*
X104370000Y-86000000D02*
X104370000Y-86000000D01*
X104370000Y-86000000D02*
X104370000Y-85550000D01*
X104370000Y-85550000D02*
X104370000Y-85550000D01*
X104370000Y-85550000D02*
X104370000Y-86000000D01*
X84370000Y-85750000D02*
X84370000Y-85750000D01*
X84370000Y-85750000D02*
X84370000Y-85550000D01*
X84370000Y-85550000D02*
X84370000Y-85550000D01*
X84370000Y-85550000D02*
X84370000Y-85750000D01*
D15*
X103250000Y-84850000D02*
X103250000Y-84850000D01*
X103250000Y-84650000D02*
X103250000Y-84650000D01*
X103250000Y-84850000D02*
X103250000Y-84850000D01*
X103250000Y-84650000D02*
G75*
G03*
X103250000Y-84850000I0J-100000D01*
G01*
X103250000Y-84850000D02*
G75*
G03*
X103250000Y-84650000I0J100000D01*
G01*
X103250000Y-84650000D02*
G75*
G03*
X103250000Y-84850000I0J-100000D01*
G01*
D16*
%TO.C,J13*%
X161350000Y-83050000D02*
X161350000Y-82550000D01*
X162090000Y-83050000D02*
X161350000Y-83050000D01*
X165227000Y-71477000D02*
X165181000Y-71524000D01*
X167525000Y-69180000D02*
X167489000Y-69215000D01*
X165011000Y-71284000D02*
X164976000Y-71319000D01*
X167319000Y-68975000D02*
X167273000Y-69022000D01*
X165227000Y-76477000D02*
X165181000Y-76524000D01*
X167525000Y-74180000D02*
X167489000Y-74215000D01*
X165011000Y-76284000D02*
X164976000Y-76319000D01*
X167319000Y-73975000D02*
X167273000Y-74022000D01*
X171511000Y-67690000D02*
X161590000Y-67690000D01*
X171511000Y-82810000D02*
X161590000Y-82810000D01*
X161590000Y-82810000D02*
X161590000Y-67690000D01*
X171511000Y-82810000D02*
X171511000Y-67690000D01*
X168551000Y-82810000D02*
X168551000Y-67690000D01*
X163650000Y-82810000D02*
X163650000Y-67690000D01*
X162150000Y-82810000D02*
X162150000Y-67690000D01*
X167930000Y-70250000D02*
G75*
G03*
X167930000Y-70250000I-1680000J0D01*
G01*
X167930000Y-75250000D02*
G75*
G03*
X167930000Y-75250000I-1680000J0D01*
G01*
X164569747Y-80221195D02*
G75*
G03*
X164715000Y-80934000I1680253J-28805D01*
G01*
X165566958Y-81785426D02*
G75*
G03*
X166934000Y-81785000I683042J1535426D01*
G01*
X167785426Y-80933042D02*
G75*
G03*
X167785000Y-79566000I-1535426J683042D01*
G01*
X166933042Y-78714574D02*
G75*
G03*
X165566000Y-78715000I-683042J-1535426D01*
G01*
X164715244Y-79566682D02*
G75*
G03*
X164570000Y-80250000I1534756J-683318D01*
G01*
%TO.C,J6*%
X83150000Y-52950000D02*
X83150000Y-53450000D01*
X82410000Y-52950000D02*
X83150000Y-52950000D01*
X79273000Y-79523000D02*
X79319000Y-79476000D01*
X76975000Y-81820000D02*
X77011000Y-81785000D01*
X79489000Y-79716000D02*
X79524000Y-79681000D01*
X77181000Y-82025000D02*
X77227000Y-81978000D01*
X79273000Y-74523000D02*
X79319000Y-74476000D01*
X76975000Y-76820000D02*
X77011000Y-76785000D01*
X79489000Y-74716000D02*
X79524000Y-74681000D01*
X77181000Y-77025000D02*
X77227000Y-76978000D01*
X79273000Y-69523000D02*
X79319000Y-69476000D01*
X76975000Y-71820000D02*
X77011000Y-71785000D01*
X79489000Y-69716000D02*
X79524000Y-69681000D01*
X77181000Y-72025000D02*
X77227000Y-71978000D01*
X79273000Y-64523000D02*
X79319000Y-64476000D01*
X76975000Y-66820000D02*
X77011000Y-66785000D01*
X79489000Y-64716000D02*
X79524000Y-64681000D01*
X77181000Y-67025000D02*
X77227000Y-66978000D01*
X79273000Y-59523000D02*
X79319000Y-59476000D01*
X76975000Y-61820000D02*
X77011000Y-61785000D01*
X79489000Y-59716000D02*
X79524000Y-59681000D01*
X77181000Y-62025000D02*
X77227000Y-61978000D01*
X72989000Y-83310000D02*
X82910000Y-83310000D01*
X72989000Y-53190000D02*
X82910000Y-53190000D01*
X82910000Y-53190000D02*
X82910000Y-83310000D01*
X72989000Y-53190000D02*
X72989000Y-83310000D01*
X75949000Y-53190000D02*
X75949000Y-83310000D01*
X80850000Y-53190000D02*
X80850000Y-83310000D01*
X82350000Y-53190000D02*
X82350000Y-83310000D01*
X79930000Y-80750000D02*
G75*
G03*
X79930000Y-80750000I-1680000J0D01*
G01*
X79930000Y-75750000D02*
G75*
G03*
X79930000Y-75750000I-1680000J0D01*
G01*
X79930000Y-70750000D02*
G75*
G03*
X79930000Y-70750000I-1680000J0D01*
G01*
X79930000Y-65750000D02*
G75*
G03*
X79930000Y-65750000I-1680000J0D01*
G01*
X79930000Y-60750000D02*
G75*
G03*
X79930000Y-60750000I-1680000J0D01*
G01*
X79930253Y-55778805D02*
G75*
G03*
X79785000Y-55066000I-1680253J28805D01*
G01*
X78933042Y-54214574D02*
G75*
G03*
X77566000Y-54215000I-683042J-1535426D01*
G01*
X76714574Y-55066958D02*
G75*
G03*
X76715000Y-56434000I1535426J-683042D01*
G01*
X77566958Y-57285426D02*
G75*
G03*
X78934000Y-57285000I683042J1535426D01*
G01*
X79784756Y-56433318D02*
G75*
G03*
X79930000Y-55750000I-1534756J683318D01*
G01*
%TO.C,J5*%
X163050000Y-45650000D02*
X162550000Y-45650000D01*
X163050000Y-44910000D02*
X163050000Y-45650000D01*
X121477000Y-41773000D02*
X121524000Y-41819000D01*
X119180000Y-39475000D02*
X119215000Y-39511000D01*
X121284000Y-41989000D02*
X121319000Y-42024000D01*
X118975000Y-39681000D02*
X119022000Y-39727000D01*
X126477000Y-41773000D02*
X126524000Y-41819000D01*
X124180000Y-39475000D02*
X124215000Y-39511000D01*
X126284000Y-41989000D02*
X126319000Y-42024000D01*
X123975000Y-39681000D02*
X124022000Y-39727000D01*
X131477000Y-41773000D02*
X131524000Y-41819000D01*
X129180000Y-39475000D02*
X129215000Y-39511000D01*
X131284000Y-41989000D02*
X131319000Y-42024000D01*
X128975000Y-39681000D02*
X129022000Y-39727000D01*
X136477000Y-41773000D02*
X136524000Y-41819000D01*
X134180000Y-39475000D02*
X134215000Y-39511000D01*
X136284000Y-41989000D02*
X136319000Y-42024000D01*
X133975000Y-39681000D02*
X134022000Y-39727000D01*
X141477000Y-41773000D02*
X141524000Y-41819000D01*
X139180000Y-39475000D02*
X139215000Y-39511000D01*
X141284000Y-41989000D02*
X141319000Y-42024000D01*
X138975000Y-39681000D02*
X139022000Y-39727000D01*
X146477000Y-41773000D02*
X146524000Y-41819000D01*
X144180000Y-39475000D02*
X144215000Y-39511000D01*
X146284000Y-41989000D02*
X146319000Y-42024000D01*
X143975000Y-39681000D02*
X144022000Y-39727000D01*
X151477000Y-41773000D02*
X151524000Y-41819000D01*
X149180000Y-39475000D02*
X149215000Y-39511000D01*
X151284000Y-41989000D02*
X151319000Y-42024000D01*
X148975000Y-39681000D02*
X149022000Y-39727000D01*
X156477000Y-41773000D02*
X156524000Y-41819000D01*
X154180000Y-39475000D02*
X154215000Y-39511000D01*
X156284000Y-41989000D02*
X156319000Y-42024000D01*
X153975000Y-39681000D02*
X154022000Y-39727000D01*
X117690000Y-35489000D02*
X117690000Y-45410000D01*
X162810000Y-35489000D02*
X162810000Y-45410000D01*
X162810000Y-45410000D02*
X117690000Y-45410000D01*
X162810000Y-35489000D02*
X117690000Y-35489000D01*
X162810000Y-38449000D02*
X117690000Y-38449000D01*
X162810000Y-43350000D02*
X117690000Y-43350000D01*
X162810000Y-44850000D02*
X117690000Y-44850000D01*
X121930000Y-40750000D02*
G75*
G03*
X121930000Y-40750000I-1680000J0D01*
G01*
X126930000Y-40750000D02*
G75*
G03*
X126930000Y-40750000I-1680000J0D01*
G01*
X131930000Y-40750000D02*
G75*
G03*
X131930000Y-40750000I-1680000J0D01*
G01*
X136930000Y-40750000D02*
G75*
G03*
X136930000Y-40750000I-1680000J0D01*
G01*
X141930000Y-40750000D02*
G75*
G03*
X141930000Y-40750000I-1680000J0D01*
G01*
X146930000Y-40750000D02*
G75*
G03*
X146930000Y-40750000I-1680000J0D01*
G01*
X151930000Y-40750000D02*
G75*
G03*
X151930000Y-40750000I-1680000J0D01*
G01*
X156930000Y-40750000D02*
G75*
G03*
X156930000Y-40750000I-1680000J0D01*
G01*
X160221195Y-42430253D02*
G75*
G03*
X160934000Y-42285000I28805J1680253D01*
G01*
X161785426Y-41433042D02*
G75*
G03*
X161785000Y-40066000I-1535426J683042D01*
G01*
X160933042Y-39214574D02*
G75*
G03*
X159566000Y-39215000I-683042J-1535426D01*
G01*
X158714574Y-40066958D02*
G75*
G03*
X158715000Y-41434000I1535426J-683042D01*
G01*
X159566682Y-42284756D02*
G75*
G03*
X160250000Y-42430000I683318J1534756D01*
G01*
%TO.C,J3*%
X118050000Y-45650000D02*
X117550000Y-45650000D01*
X118050000Y-44910000D02*
X118050000Y-45650000D01*
X76477000Y-41773000D02*
X76524000Y-41819000D01*
X74180000Y-39475000D02*
X74215000Y-39511000D01*
X76284000Y-41989000D02*
X76319000Y-42024000D01*
X73975000Y-39681000D02*
X74022000Y-39727000D01*
X81477000Y-41773000D02*
X81524000Y-41819000D01*
X79180000Y-39475000D02*
X79215000Y-39511000D01*
X81284000Y-41989000D02*
X81319000Y-42024000D01*
X78975000Y-39681000D02*
X79022000Y-39727000D01*
X86477000Y-41773000D02*
X86524000Y-41819000D01*
X84180000Y-39475000D02*
X84215000Y-39511000D01*
X86284000Y-41989000D02*
X86319000Y-42024000D01*
X83975000Y-39681000D02*
X84022000Y-39727000D01*
X91477000Y-41773000D02*
X91524000Y-41819000D01*
X89180000Y-39475000D02*
X89215000Y-39511000D01*
X91284000Y-41989000D02*
X91319000Y-42024000D01*
X88975000Y-39681000D02*
X89022000Y-39727000D01*
X96477000Y-41773000D02*
X96524000Y-41819000D01*
X94180000Y-39475000D02*
X94215000Y-39511000D01*
X96284000Y-41989000D02*
X96319000Y-42024000D01*
X93975000Y-39681000D02*
X94022000Y-39727000D01*
X101477000Y-41773000D02*
X101524000Y-41819000D01*
X99180000Y-39475000D02*
X99215000Y-39511000D01*
X101284000Y-41989000D02*
X101319000Y-42024000D01*
X98975000Y-39681000D02*
X99022000Y-39727000D01*
X106477000Y-41773000D02*
X106524000Y-41819000D01*
X104180000Y-39475000D02*
X104215000Y-39511000D01*
X106284000Y-41989000D02*
X106319000Y-42024000D01*
X103975000Y-39681000D02*
X104022000Y-39727000D01*
X111477000Y-41773000D02*
X111524000Y-41819000D01*
X109180000Y-39475000D02*
X109215000Y-39511000D01*
X111284000Y-41989000D02*
X111319000Y-42024000D01*
X108975000Y-39681000D02*
X109022000Y-39727000D01*
X72690000Y-35489000D02*
X72690000Y-45410000D01*
X117810000Y-35489000D02*
X117810000Y-45410000D01*
X117810000Y-45410000D02*
X72690000Y-45410000D01*
X117810000Y-35489000D02*
X72690000Y-35489000D01*
X117810000Y-38449000D02*
X72690000Y-38449000D01*
X117810000Y-43350000D02*
X72690000Y-43350000D01*
X117810000Y-44850000D02*
X72690000Y-44850000D01*
X76930000Y-40750000D02*
G75*
G03*
X76930000Y-40750000I-1680000J0D01*
G01*
X81930000Y-40750000D02*
G75*
G03*
X81930000Y-40750000I-1680000J0D01*
G01*
X86930000Y-40750000D02*
G75*
G03*
X86930000Y-40750000I-1680000J0D01*
G01*
X91930000Y-40750000D02*
G75*
G03*
X91930000Y-40750000I-1680000J0D01*
G01*
X96930000Y-40750000D02*
G75*
G03*
X96930000Y-40750000I-1680000J0D01*
G01*
X101930000Y-40750000D02*
G75*
G03*
X101930000Y-40750000I-1680000J0D01*
G01*
X106930000Y-40750000D02*
G75*
G03*
X106930000Y-40750000I-1680000J0D01*
G01*
X111930000Y-40750000D02*
G75*
G03*
X111930000Y-40750000I-1680000J0D01*
G01*
X115221195Y-42430253D02*
G75*
G03*
X115934000Y-42285000I28805J1680253D01*
G01*
X116785426Y-41433042D02*
G75*
G03*
X116785000Y-40066000I-1535426J683042D01*
G01*
X115933042Y-39214574D02*
G75*
G03*
X114566000Y-39215000I-683042J-1535426D01*
G01*
X113714574Y-40066958D02*
G75*
G03*
X113715000Y-41434000I1535426J-683042D01*
G01*
X114566682Y-42284756D02*
G75*
G03*
X115250000Y-42430000I683318J1534756D01*
G01*
%TO.C,R31*%
X162272500Y-61487258D02*
X162272500Y-61012742D01*
X161227500Y-61487258D02*
X161227500Y-61012742D01*
%TO.C,R30*%
X167272500Y-61487258D02*
X167272500Y-61012742D01*
X166227500Y-61487258D02*
X166227500Y-61012742D01*
%TO.C,R29*%
X162727500Y-55512742D02*
X162727500Y-55987258D01*
X163772500Y-55512742D02*
X163772500Y-55987258D01*
%TO.C,R28*%
X117512742Y-78522500D02*
X117987258Y-78522500D01*
X117512742Y-77477500D02*
X117987258Y-77477500D01*
%TO.C,R27*%
X128022500Y-85237258D02*
X128022500Y-84762742D01*
X126977500Y-85237258D02*
X126977500Y-84762742D01*
%TO.C,R26*%
X152487258Y-79477500D02*
X152012742Y-79477500D01*
X152487258Y-80522500D02*
X152012742Y-80522500D01*
%TO.C,R25*%
X152487258Y-77977500D02*
X152012742Y-77977500D01*
X152487258Y-79022500D02*
X152012742Y-79022500D01*
%TO.C,R24*%
X129272500Y-89237258D02*
X129272500Y-88762742D01*
X128227500Y-89237258D02*
X128227500Y-88762742D01*
%TO.C,R23*%
X127522500Y-89237258D02*
X127522500Y-88762742D01*
X126477500Y-89237258D02*
X126477500Y-88762742D01*
%TO.C,U3*%
X125640000Y-80410000D02*
X124350000Y-80410000D01*
X125640000Y-80860000D02*
X125640000Y-80410000D01*
X126090000Y-80860000D02*
X125640000Y-80860000D01*
X132860000Y-80860000D02*
X132860000Y-80410000D01*
X132410000Y-80860000D02*
X132860000Y-80860000D01*
X125640000Y-73640000D02*
X125640000Y-74090000D01*
X126090000Y-73640000D02*
X125640000Y-73640000D01*
X132860000Y-73640000D02*
X132860000Y-74090000D01*
X132410000Y-73640000D02*
X132860000Y-73640000D01*
%TO.C,RV1*%
X124330000Y-64130000D02*
X124330000Y-67370000D01*
X129371000Y-64676000D02*
X129371000Y-66825000D01*
X128013000Y-67370000D02*
X124330000Y-67370000D01*
X128013000Y-64130000D02*
X124330000Y-64130000D01*
X129371000Y-64676000D02*
X129371000Y-66825000D01*
X129371000Y-60729000D02*
X129371000Y-61824000D01*
X129371000Y-69675000D02*
X129371000Y-70770000D01*
X124330000Y-60729000D02*
X124330000Y-70770000D01*
X129371000Y-70770000D02*
X124330000Y-70770000D01*
X129371000Y-60729000D02*
X124330000Y-60729000D01*
D14*
%TO.C,K16*%
X145250000Y-131950000D02*
X152500000Y-131950000D01*
X152500000Y-131950000D02*
X152500000Y-131950000D01*
X152500000Y-131950000D02*
X145250000Y-131950000D01*
X145250000Y-131950000D02*
X145250000Y-131950000D01*
X155500000Y-131950000D02*
X157500000Y-131950000D01*
X157500000Y-131950000D02*
X157500000Y-131950000D01*
X157500000Y-131950000D02*
X155500000Y-131950000D01*
X155500000Y-131950000D02*
X155500000Y-131950000D01*
X160130000Y-126950000D02*
X140130000Y-126950000D01*
X140130000Y-126950000D02*
X140130000Y-126950000D01*
X140130000Y-126950000D02*
X160130000Y-126950000D01*
X160130000Y-126950000D02*
X160130000Y-126950000D01*
X140130000Y-131950000D02*
X140500000Y-131950000D01*
X140500000Y-131950000D02*
X140500000Y-131950000D01*
X140500000Y-131950000D02*
X140130000Y-131950000D01*
X140130000Y-131950000D02*
X140130000Y-131950000D01*
X160130000Y-131950000D02*
X159750000Y-131950000D01*
X159750000Y-131950000D02*
X159750000Y-131950000D01*
X159750000Y-131950000D02*
X160130000Y-131950000D01*
X160130000Y-131950000D02*
X160130000Y-131950000D01*
X160130000Y-129250000D02*
X160130000Y-129250000D01*
X160130000Y-129250000D02*
X160130000Y-126950000D01*
X160130000Y-126950000D02*
X160130000Y-126950000D01*
X160130000Y-126950000D02*
X160130000Y-129250000D01*
X140130000Y-126950000D02*
X140130000Y-126950000D01*
X140130000Y-126950000D02*
X140130000Y-129500000D01*
X140130000Y-129500000D02*
X140130000Y-129500000D01*
X140130000Y-129500000D02*
X140130000Y-126950000D01*
X140130000Y-131500000D02*
X140130000Y-131500000D01*
X140130000Y-131500000D02*
X140130000Y-131950000D01*
X140130000Y-131950000D02*
X140130000Y-131950000D01*
X140130000Y-131950000D02*
X140130000Y-131500000D01*
X160130000Y-131750000D02*
X160130000Y-131750000D01*
X160130000Y-131750000D02*
X160130000Y-131950000D01*
X160130000Y-131950000D02*
X160130000Y-131950000D01*
X160130000Y-131950000D02*
X160130000Y-131750000D01*
D15*
X141250000Y-132650000D02*
X141250000Y-132650000D01*
X141250000Y-132850000D02*
X141250000Y-132850000D01*
X141250000Y-132650000D02*
X141250000Y-132650000D01*
X141250000Y-132850000D02*
G75*
G03*
X141250000Y-132650000I0J100000D01*
G01*
X141250000Y-132650000D02*
G75*
G03*
X141250000Y-132850000I0J-100000D01*
G01*
X141250000Y-132850000D02*
G75*
G03*
X141250000Y-132650000I0J100000D01*
G01*
D14*
%TO.C,K15*%
X145250000Y-125950000D02*
X152500000Y-125950000D01*
X152500000Y-125950000D02*
X152500000Y-125950000D01*
X152500000Y-125950000D02*
X145250000Y-125950000D01*
X145250000Y-125950000D02*
X145250000Y-125950000D01*
X155500000Y-125950000D02*
X157500000Y-125950000D01*
X157500000Y-125950000D02*
X157500000Y-125950000D01*
X157500000Y-125950000D02*
X155500000Y-125950000D01*
X155500000Y-125950000D02*
X155500000Y-125950000D01*
X160130000Y-120950000D02*
X140130000Y-120950000D01*
X140130000Y-120950000D02*
X140130000Y-120950000D01*
X140130000Y-120950000D02*
X160130000Y-120950000D01*
X160130000Y-120950000D02*
X160130000Y-120950000D01*
X140130000Y-125950000D02*
X140500000Y-125950000D01*
X140500000Y-125950000D02*
X140500000Y-125950000D01*
X140500000Y-125950000D02*
X140130000Y-125950000D01*
X140130000Y-125950000D02*
X140130000Y-125950000D01*
X160130000Y-125950000D02*
X159750000Y-125950000D01*
X159750000Y-125950000D02*
X159750000Y-125950000D01*
X159750000Y-125950000D02*
X160130000Y-125950000D01*
X160130000Y-125950000D02*
X160130000Y-125950000D01*
X160130000Y-123250000D02*
X160130000Y-123250000D01*
X160130000Y-123250000D02*
X160130000Y-120950000D01*
X160130000Y-120950000D02*
X160130000Y-120950000D01*
X160130000Y-120950000D02*
X160130000Y-123250000D01*
X140130000Y-120950000D02*
X140130000Y-120950000D01*
X140130000Y-120950000D02*
X140130000Y-123500000D01*
X140130000Y-123500000D02*
X140130000Y-123500000D01*
X140130000Y-123500000D02*
X140130000Y-120950000D01*
X140130000Y-125500000D02*
X140130000Y-125500000D01*
X140130000Y-125500000D02*
X140130000Y-125950000D01*
X140130000Y-125950000D02*
X140130000Y-125950000D01*
X140130000Y-125950000D02*
X140130000Y-125500000D01*
X160130000Y-125750000D02*
X160130000Y-125750000D01*
X160130000Y-125750000D02*
X160130000Y-125950000D01*
X160130000Y-125950000D02*
X160130000Y-125950000D01*
X160130000Y-125950000D02*
X160130000Y-125750000D01*
D15*
X141250000Y-126650000D02*
X141250000Y-126650000D01*
X141250000Y-126850000D02*
X141250000Y-126850000D01*
X141250000Y-126650000D02*
X141250000Y-126650000D01*
X141250000Y-126850000D02*
G75*
G03*
X141250000Y-126650000I0J100000D01*
G01*
X141250000Y-126650000D02*
G75*
G03*
X141250000Y-126850000I0J-100000D01*
G01*
X141250000Y-126850000D02*
G75*
G03*
X141250000Y-126650000I0J100000D01*
G01*
D14*
%TO.C,K14*%
X145250000Y-119950000D02*
X152500000Y-119950000D01*
X152500000Y-119950000D02*
X152500000Y-119950000D01*
X152500000Y-119950000D02*
X145250000Y-119950000D01*
X145250000Y-119950000D02*
X145250000Y-119950000D01*
X155500000Y-119950000D02*
X157500000Y-119950000D01*
X157500000Y-119950000D02*
X157500000Y-119950000D01*
X157500000Y-119950000D02*
X155500000Y-119950000D01*
X155500000Y-119950000D02*
X155500000Y-119950000D01*
X160130000Y-114950000D02*
X140130000Y-114950000D01*
X140130000Y-114950000D02*
X140130000Y-114950000D01*
X140130000Y-114950000D02*
X160130000Y-114950000D01*
X160130000Y-114950000D02*
X160130000Y-114950000D01*
X140130000Y-119950000D02*
X140500000Y-119950000D01*
X140500000Y-119950000D02*
X140500000Y-119950000D01*
X140500000Y-119950000D02*
X140130000Y-119950000D01*
X140130000Y-119950000D02*
X140130000Y-119950000D01*
X160130000Y-119950000D02*
X159750000Y-119950000D01*
X159750000Y-119950000D02*
X159750000Y-119950000D01*
X159750000Y-119950000D02*
X160130000Y-119950000D01*
X160130000Y-119950000D02*
X160130000Y-119950000D01*
X160130000Y-117250000D02*
X160130000Y-117250000D01*
X160130000Y-117250000D02*
X160130000Y-114950000D01*
X160130000Y-114950000D02*
X160130000Y-114950000D01*
X160130000Y-114950000D02*
X160130000Y-117250000D01*
X140130000Y-114950000D02*
X140130000Y-114950000D01*
X140130000Y-114950000D02*
X140130000Y-117500000D01*
X140130000Y-117500000D02*
X140130000Y-117500000D01*
X140130000Y-117500000D02*
X140130000Y-114950000D01*
X140130000Y-119500000D02*
X140130000Y-119500000D01*
X140130000Y-119500000D02*
X140130000Y-119950000D01*
X140130000Y-119950000D02*
X140130000Y-119950000D01*
X140130000Y-119950000D02*
X140130000Y-119500000D01*
X160130000Y-119750000D02*
X160130000Y-119750000D01*
X160130000Y-119750000D02*
X160130000Y-119950000D01*
X160130000Y-119950000D02*
X160130000Y-119950000D01*
X160130000Y-119950000D02*
X160130000Y-119750000D01*
D15*
X141250000Y-120650000D02*
X141250000Y-120650000D01*
X141250000Y-120850000D02*
X141250000Y-120850000D01*
X141250000Y-120650000D02*
X141250000Y-120650000D01*
X141250000Y-120850000D02*
G75*
G03*
X141250000Y-120650000I0J100000D01*
G01*
X141250000Y-120650000D02*
G75*
G03*
X141250000Y-120850000I0J-100000D01*
G01*
X141250000Y-120850000D02*
G75*
G03*
X141250000Y-120650000I0J100000D01*
G01*
D14*
%TO.C,K13*%
X145250000Y-113950000D02*
X152500000Y-113950000D01*
X152500000Y-113950000D02*
X152500000Y-113950000D01*
X152500000Y-113950000D02*
X145250000Y-113950000D01*
X145250000Y-113950000D02*
X145250000Y-113950000D01*
X155500000Y-113950000D02*
X157500000Y-113950000D01*
X157500000Y-113950000D02*
X157500000Y-113950000D01*
X157500000Y-113950000D02*
X155500000Y-113950000D01*
X155500000Y-113950000D02*
X155500000Y-113950000D01*
X160130000Y-108950000D02*
X140130000Y-108950000D01*
X140130000Y-108950000D02*
X140130000Y-108950000D01*
X140130000Y-108950000D02*
X160130000Y-108950000D01*
X160130000Y-108950000D02*
X160130000Y-108950000D01*
X140130000Y-113950000D02*
X140500000Y-113950000D01*
X140500000Y-113950000D02*
X140500000Y-113950000D01*
X140500000Y-113950000D02*
X140130000Y-113950000D01*
X140130000Y-113950000D02*
X140130000Y-113950000D01*
X160130000Y-113950000D02*
X159750000Y-113950000D01*
X159750000Y-113950000D02*
X159750000Y-113950000D01*
X159750000Y-113950000D02*
X160130000Y-113950000D01*
X160130000Y-113950000D02*
X160130000Y-113950000D01*
X160130000Y-111250000D02*
X160130000Y-111250000D01*
X160130000Y-111250000D02*
X160130000Y-108950000D01*
X160130000Y-108950000D02*
X160130000Y-108950000D01*
X160130000Y-108950000D02*
X160130000Y-111250000D01*
X140130000Y-108950000D02*
X140130000Y-108950000D01*
X140130000Y-108950000D02*
X140130000Y-111500000D01*
X140130000Y-111500000D02*
X140130000Y-111500000D01*
X140130000Y-111500000D02*
X140130000Y-108950000D01*
X140130000Y-113500000D02*
X140130000Y-113500000D01*
X140130000Y-113500000D02*
X140130000Y-113950000D01*
X140130000Y-113950000D02*
X140130000Y-113950000D01*
X140130000Y-113950000D02*
X140130000Y-113500000D01*
X160130000Y-113750000D02*
X160130000Y-113750000D01*
X160130000Y-113750000D02*
X160130000Y-113950000D01*
X160130000Y-113950000D02*
X160130000Y-113950000D01*
X160130000Y-113950000D02*
X160130000Y-113750000D01*
D15*
X141250000Y-114650000D02*
X141250000Y-114650000D01*
X141250000Y-114850000D02*
X141250000Y-114850000D01*
X141250000Y-114650000D02*
X141250000Y-114650000D01*
X141250000Y-114850000D02*
G75*
G03*
X141250000Y-114650000I0J100000D01*
G01*
X141250000Y-114650000D02*
G75*
G03*
X141250000Y-114850000I0J-100000D01*
G01*
X141250000Y-114850000D02*
G75*
G03*
X141250000Y-114650000I0J100000D01*
G01*
D14*
%TO.C,K12*%
X145250000Y-107950000D02*
X152500000Y-107950000D01*
X152500000Y-107950000D02*
X152500000Y-107950000D01*
X152500000Y-107950000D02*
X145250000Y-107950000D01*
X145250000Y-107950000D02*
X145250000Y-107950000D01*
X155500000Y-107950000D02*
X157500000Y-107950000D01*
X157500000Y-107950000D02*
X157500000Y-107950000D01*
X157500000Y-107950000D02*
X155500000Y-107950000D01*
X155500000Y-107950000D02*
X155500000Y-107950000D01*
X160130000Y-102950000D02*
X140130000Y-102950000D01*
X140130000Y-102950000D02*
X140130000Y-102950000D01*
X140130000Y-102950000D02*
X160130000Y-102950000D01*
X160130000Y-102950000D02*
X160130000Y-102950000D01*
X140130000Y-107950000D02*
X140500000Y-107950000D01*
X140500000Y-107950000D02*
X140500000Y-107950000D01*
X140500000Y-107950000D02*
X140130000Y-107950000D01*
X140130000Y-107950000D02*
X140130000Y-107950000D01*
X160130000Y-107950000D02*
X159750000Y-107950000D01*
X159750000Y-107950000D02*
X159750000Y-107950000D01*
X159750000Y-107950000D02*
X160130000Y-107950000D01*
X160130000Y-107950000D02*
X160130000Y-107950000D01*
X160130000Y-105250000D02*
X160130000Y-105250000D01*
X160130000Y-105250000D02*
X160130000Y-102950000D01*
X160130000Y-102950000D02*
X160130000Y-102950000D01*
X160130000Y-102950000D02*
X160130000Y-105250000D01*
X140130000Y-102950000D02*
X140130000Y-102950000D01*
X140130000Y-102950000D02*
X140130000Y-105500000D01*
X140130000Y-105500000D02*
X140130000Y-105500000D01*
X140130000Y-105500000D02*
X140130000Y-102950000D01*
X140130000Y-107500000D02*
X140130000Y-107500000D01*
X140130000Y-107500000D02*
X140130000Y-107950000D01*
X140130000Y-107950000D02*
X140130000Y-107950000D01*
X140130000Y-107950000D02*
X140130000Y-107500000D01*
X160130000Y-107750000D02*
X160130000Y-107750000D01*
X160130000Y-107750000D02*
X160130000Y-107950000D01*
X160130000Y-107950000D02*
X160130000Y-107950000D01*
X160130000Y-107950000D02*
X160130000Y-107750000D01*
D15*
X141250000Y-108650000D02*
X141250000Y-108650000D01*
X141250000Y-108850000D02*
X141250000Y-108850000D01*
X141250000Y-108650000D02*
X141250000Y-108650000D01*
X141250000Y-108850000D02*
G75*
G03*
X141250000Y-108650000I0J100000D01*
G01*
X141250000Y-108650000D02*
G75*
G03*
X141250000Y-108850000I0J-100000D01*
G01*
X141250000Y-108850000D02*
G75*
G03*
X141250000Y-108650000I0J100000D01*
G01*
D14*
%TO.C,K11*%
X145250000Y-101950000D02*
X152500000Y-101950000D01*
X152500000Y-101950000D02*
X152500000Y-101950000D01*
X152500000Y-101950000D02*
X145250000Y-101950000D01*
X145250000Y-101950000D02*
X145250000Y-101950000D01*
X155500000Y-101950000D02*
X157500000Y-101950000D01*
X157500000Y-101950000D02*
X157500000Y-101950000D01*
X157500000Y-101950000D02*
X155500000Y-101950000D01*
X155500000Y-101950000D02*
X155500000Y-101950000D01*
X160130000Y-96950000D02*
X140130000Y-96950000D01*
X140130000Y-96950000D02*
X140130000Y-96950000D01*
X140130000Y-96950000D02*
X160130000Y-96950000D01*
X160130000Y-96950000D02*
X160130000Y-96950000D01*
X140130000Y-101950000D02*
X140500000Y-101950000D01*
X140500000Y-101950000D02*
X140500000Y-101950000D01*
X140500000Y-101950000D02*
X140130000Y-101950000D01*
X140130000Y-101950000D02*
X140130000Y-101950000D01*
X160130000Y-101950000D02*
X159750000Y-101950000D01*
X159750000Y-101950000D02*
X159750000Y-101950000D01*
X159750000Y-101950000D02*
X160130000Y-101950000D01*
X160130000Y-101950000D02*
X160130000Y-101950000D01*
X160130000Y-99250000D02*
X160130000Y-99250000D01*
X160130000Y-99250000D02*
X160130000Y-96950000D01*
X160130000Y-96950000D02*
X160130000Y-96950000D01*
X160130000Y-96950000D02*
X160130000Y-99250000D01*
X140130000Y-96950000D02*
X140130000Y-96950000D01*
X140130000Y-96950000D02*
X140130000Y-99500000D01*
X140130000Y-99500000D02*
X140130000Y-99500000D01*
X140130000Y-99500000D02*
X140130000Y-96950000D01*
X140130000Y-101500000D02*
X140130000Y-101500000D01*
X140130000Y-101500000D02*
X140130000Y-101950000D01*
X140130000Y-101950000D02*
X140130000Y-101950000D01*
X140130000Y-101950000D02*
X140130000Y-101500000D01*
X160130000Y-101750000D02*
X160130000Y-101750000D01*
X160130000Y-101750000D02*
X160130000Y-101950000D01*
X160130000Y-101950000D02*
X160130000Y-101950000D01*
X160130000Y-101950000D02*
X160130000Y-101750000D01*
D15*
X141250000Y-102650000D02*
X141250000Y-102650000D01*
X141250000Y-102850000D02*
X141250000Y-102850000D01*
X141250000Y-102650000D02*
X141250000Y-102650000D01*
X141250000Y-102850000D02*
G75*
G03*
X141250000Y-102650000I0J100000D01*
G01*
X141250000Y-102650000D02*
G75*
G03*
X141250000Y-102850000I0J-100000D01*
G01*
X141250000Y-102850000D02*
G75*
G03*
X141250000Y-102650000I0J100000D01*
G01*
D14*
%TO.C,K10*%
X145250000Y-95950000D02*
X152500000Y-95950000D01*
X152500000Y-95950000D02*
X152500000Y-95950000D01*
X152500000Y-95950000D02*
X145250000Y-95950000D01*
X145250000Y-95950000D02*
X145250000Y-95950000D01*
X155500000Y-95950000D02*
X157500000Y-95950000D01*
X157500000Y-95950000D02*
X157500000Y-95950000D01*
X157500000Y-95950000D02*
X155500000Y-95950000D01*
X155500000Y-95950000D02*
X155500000Y-95950000D01*
X160130000Y-90950000D02*
X140130000Y-90950000D01*
X140130000Y-90950000D02*
X140130000Y-90950000D01*
X140130000Y-90950000D02*
X160130000Y-90950000D01*
X160130000Y-90950000D02*
X160130000Y-90950000D01*
X140130000Y-95950000D02*
X140500000Y-95950000D01*
X140500000Y-95950000D02*
X140500000Y-95950000D01*
X140500000Y-95950000D02*
X140130000Y-95950000D01*
X140130000Y-95950000D02*
X140130000Y-95950000D01*
X160130000Y-95950000D02*
X159750000Y-95950000D01*
X159750000Y-95950000D02*
X159750000Y-95950000D01*
X159750000Y-95950000D02*
X160130000Y-95950000D01*
X160130000Y-95950000D02*
X160130000Y-95950000D01*
X160130000Y-93250000D02*
X160130000Y-93250000D01*
X160130000Y-93250000D02*
X160130000Y-90950000D01*
X160130000Y-90950000D02*
X160130000Y-90950000D01*
X160130000Y-90950000D02*
X160130000Y-93250000D01*
X140130000Y-90950000D02*
X140130000Y-90950000D01*
X140130000Y-90950000D02*
X140130000Y-93500000D01*
X140130000Y-93500000D02*
X140130000Y-93500000D01*
X140130000Y-93500000D02*
X140130000Y-90950000D01*
X140130000Y-95500000D02*
X140130000Y-95500000D01*
X140130000Y-95500000D02*
X140130000Y-95950000D01*
X140130000Y-95950000D02*
X140130000Y-95950000D01*
X140130000Y-95950000D02*
X140130000Y-95500000D01*
X160130000Y-95750000D02*
X160130000Y-95750000D01*
X160130000Y-95750000D02*
X160130000Y-95950000D01*
X160130000Y-95950000D02*
X160130000Y-95950000D01*
X160130000Y-95950000D02*
X160130000Y-95750000D01*
D15*
X141250000Y-96650000D02*
X141250000Y-96650000D01*
X141250000Y-96850000D02*
X141250000Y-96850000D01*
X141250000Y-96650000D02*
X141250000Y-96650000D01*
X141250000Y-96850000D02*
G75*
G03*
X141250000Y-96650000I0J100000D01*
G01*
X141250000Y-96650000D02*
G75*
G03*
X141250000Y-96850000I0J-100000D01*
G01*
X141250000Y-96850000D02*
G75*
G03*
X141250000Y-96650000I0J100000D01*
G01*
D14*
%TO.C,K9*%
X145250000Y-89950000D02*
X152500000Y-89950000D01*
X152500000Y-89950000D02*
X152500000Y-89950000D01*
X152500000Y-89950000D02*
X145250000Y-89950000D01*
X145250000Y-89950000D02*
X145250000Y-89950000D01*
X155500000Y-89950000D02*
X157500000Y-89950000D01*
X157500000Y-89950000D02*
X157500000Y-89950000D01*
X157500000Y-89950000D02*
X155500000Y-89950000D01*
X155500000Y-89950000D02*
X155500000Y-89950000D01*
X160130000Y-84950000D02*
X140130000Y-84950000D01*
X140130000Y-84950000D02*
X140130000Y-84950000D01*
X140130000Y-84950000D02*
X160130000Y-84950000D01*
X160130000Y-84950000D02*
X160130000Y-84950000D01*
X140130000Y-89950000D02*
X140500000Y-89950000D01*
X140500000Y-89950000D02*
X140500000Y-89950000D01*
X140500000Y-89950000D02*
X140130000Y-89950000D01*
X140130000Y-89950000D02*
X140130000Y-89950000D01*
X160130000Y-89950000D02*
X159750000Y-89950000D01*
X159750000Y-89950000D02*
X159750000Y-89950000D01*
X159750000Y-89950000D02*
X160130000Y-89950000D01*
X160130000Y-89950000D02*
X160130000Y-89950000D01*
X160130000Y-87250000D02*
X160130000Y-87250000D01*
X160130000Y-87250000D02*
X160130000Y-84950000D01*
X160130000Y-84950000D02*
X160130000Y-84950000D01*
X160130000Y-84950000D02*
X160130000Y-87250000D01*
X140130000Y-84950000D02*
X140130000Y-84950000D01*
X140130000Y-84950000D02*
X140130000Y-87500000D01*
X140130000Y-87500000D02*
X140130000Y-87500000D01*
X140130000Y-87500000D02*
X140130000Y-84950000D01*
X140130000Y-89500000D02*
X140130000Y-89500000D01*
X140130000Y-89500000D02*
X140130000Y-89950000D01*
X140130000Y-89950000D02*
X140130000Y-89950000D01*
X140130000Y-89950000D02*
X140130000Y-89500000D01*
X160130000Y-89750000D02*
X160130000Y-89750000D01*
X160130000Y-89750000D02*
X160130000Y-89950000D01*
X160130000Y-89950000D02*
X160130000Y-89950000D01*
X160130000Y-89950000D02*
X160130000Y-89750000D01*
D15*
X141250000Y-90650000D02*
X141250000Y-90650000D01*
X141250000Y-90850000D02*
X141250000Y-90850000D01*
X141250000Y-90650000D02*
X141250000Y-90650000D01*
X141250000Y-90850000D02*
G75*
G03*
X141250000Y-90650000I0J100000D01*
G01*
X141250000Y-90650000D02*
G75*
G03*
X141250000Y-90850000I0J-100000D01*
G01*
X141250000Y-90850000D02*
G75*
G03*
X141250000Y-90650000I0J100000D01*
G01*
D14*
%TO.C,K8*%
X99250000Y-127550000D02*
X92000000Y-127550000D01*
X92000000Y-127550000D02*
X92000000Y-127550000D01*
X92000000Y-127550000D02*
X99250000Y-127550000D01*
X99250000Y-127550000D02*
X99250000Y-127550000D01*
X89000000Y-127550000D02*
X87000000Y-127550000D01*
X87000000Y-127550000D02*
X87000000Y-127550000D01*
X87000000Y-127550000D02*
X89000000Y-127550000D01*
X89000000Y-127550000D02*
X89000000Y-127550000D01*
X84370000Y-132550000D02*
X104370000Y-132550000D01*
X104370000Y-132550000D02*
X104370000Y-132550000D01*
X104370000Y-132550000D02*
X84370000Y-132550000D01*
X84370000Y-132550000D02*
X84370000Y-132550000D01*
X104370000Y-127550000D02*
X104000000Y-127550000D01*
X104000000Y-127550000D02*
X104000000Y-127550000D01*
X104000000Y-127550000D02*
X104370000Y-127550000D01*
X104370000Y-127550000D02*
X104370000Y-127550000D01*
X84370000Y-127550000D02*
X84750000Y-127550000D01*
X84750000Y-127550000D02*
X84750000Y-127550000D01*
X84750000Y-127550000D02*
X84370000Y-127550000D01*
X84370000Y-127550000D02*
X84370000Y-127550000D01*
X84370000Y-130250000D02*
X84370000Y-130250000D01*
X84370000Y-130250000D02*
X84370000Y-132550000D01*
X84370000Y-132550000D02*
X84370000Y-132550000D01*
X84370000Y-132550000D02*
X84370000Y-130250000D01*
X104370000Y-132550000D02*
X104370000Y-132550000D01*
X104370000Y-132550000D02*
X104370000Y-130000000D01*
X104370000Y-130000000D02*
X104370000Y-130000000D01*
X104370000Y-130000000D02*
X104370000Y-132550000D01*
X104370000Y-128000000D02*
X104370000Y-128000000D01*
X104370000Y-128000000D02*
X104370000Y-127550000D01*
X104370000Y-127550000D02*
X104370000Y-127550000D01*
X104370000Y-127550000D02*
X104370000Y-128000000D01*
X84370000Y-127750000D02*
X84370000Y-127750000D01*
X84370000Y-127750000D02*
X84370000Y-127550000D01*
X84370000Y-127550000D02*
X84370000Y-127550000D01*
X84370000Y-127550000D02*
X84370000Y-127750000D01*
D15*
X103250000Y-126850000D02*
X103250000Y-126850000D01*
X103250000Y-126650000D02*
X103250000Y-126650000D01*
X103250000Y-126850000D02*
X103250000Y-126850000D01*
X103250000Y-126650000D02*
G75*
G03*
X103250000Y-126850000I0J-100000D01*
G01*
X103250000Y-126850000D02*
G75*
G03*
X103250000Y-126650000I0J100000D01*
G01*
X103250000Y-126650000D02*
G75*
G03*
X103250000Y-126850000I0J-100000D01*
G01*
D14*
%TO.C,K7*%
X99250000Y-121550000D02*
X92000000Y-121550000D01*
X92000000Y-121550000D02*
X92000000Y-121550000D01*
X92000000Y-121550000D02*
X99250000Y-121550000D01*
X99250000Y-121550000D02*
X99250000Y-121550000D01*
X89000000Y-121550000D02*
X87000000Y-121550000D01*
X87000000Y-121550000D02*
X87000000Y-121550000D01*
X87000000Y-121550000D02*
X89000000Y-121550000D01*
X89000000Y-121550000D02*
X89000000Y-121550000D01*
X84370000Y-126550000D02*
X104370000Y-126550000D01*
X104370000Y-126550000D02*
X104370000Y-126550000D01*
X104370000Y-126550000D02*
X84370000Y-126550000D01*
X84370000Y-126550000D02*
X84370000Y-126550000D01*
X104370000Y-121550000D02*
X104000000Y-121550000D01*
X104000000Y-121550000D02*
X104000000Y-121550000D01*
X104000000Y-121550000D02*
X104370000Y-121550000D01*
X104370000Y-121550000D02*
X104370000Y-121550000D01*
X84370000Y-121550000D02*
X84750000Y-121550000D01*
X84750000Y-121550000D02*
X84750000Y-121550000D01*
X84750000Y-121550000D02*
X84370000Y-121550000D01*
X84370000Y-121550000D02*
X84370000Y-121550000D01*
X84370000Y-124250000D02*
X84370000Y-124250000D01*
X84370000Y-124250000D02*
X84370000Y-126550000D01*
X84370000Y-126550000D02*
X84370000Y-126550000D01*
X84370000Y-126550000D02*
X84370000Y-124250000D01*
X104370000Y-126550000D02*
X104370000Y-126550000D01*
X104370000Y-126550000D02*
X104370000Y-124000000D01*
X104370000Y-124000000D02*
X104370000Y-124000000D01*
X104370000Y-124000000D02*
X104370000Y-126550000D01*
X104370000Y-122000000D02*
X104370000Y-122000000D01*
X104370000Y-122000000D02*
X104370000Y-121550000D01*
X104370000Y-121550000D02*
X104370000Y-121550000D01*
X104370000Y-121550000D02*
X104370000Y-122000000D01*
X84370000Y-121750000D02*
X84370000Y-121750000D01*
X84370000Y-121750000D02*
X84370000Y-121550000D01*
X84370000Y-121550000D02*
X84370000Y-121550000D01*
X84370000Y-121550000D02*
X84370000Y-121750000D01*
D15*
X103250000Y-120850000D02*
X103250000Y-120850000D01*
X103250000Y-120650000D02*
X103250000Y-120650000D01*
X103250000Y-120850000D02*
X103250000Y-120850000D01*
X103250000Y-120650000D02*
G75*
G03*
X103250000Y-120850000I0J-100000D01*
G01*
X103250000Y-120850000D02*
G75*
G03*
X103250000Y-120650000I0J100000D01*
G01*
X103250000Y-120650000D02*
G75*
G03*
X103250000Y-120850000I0J-100000D01*
G01*
D14*
%TO.C,K6*%
X99250000Y-115550000D02*
X92000000Y-115550000D01*
X92000000Y-115550000D02*
X92000000Y-115550000D01*
X92000000Y-115550000D02*
X99250000Y-115550000D01*
X99250000Y-115550000D02*
X99250000Y-115550000D01*
X89000000Y-115550000D02*
X87000000Y-115550000D01*
X87000000Y-115550000D02*
X87000000Y-115550000D01*
X87000000Y-115550000D02*
X89000000Y-115550000D01*
X89000000Y-115550000D02*
X89000000Y-115550000D01*
X84370000Y-120550000D02*
X104370000Y-120550000D01*
X104370000Y-120550000D02*
X104370000Y-120550000D01*
X104370000Y-120550000D02*
X84370000Y-120550000D01*
X84370000Y-120550000D02*
X84370000Y-120550000D01*
X104370000Y-115550000D02*
X104000000Y-115550000D01*
X104000000Y-115550000D02*
X104000000Y-115550000D01*
X104000000Y-115550000D02*
X104370000Y-115550000D01*
X104370000Y-115550000D02*
X104370000Y-115550000D01*
X84370000Y-115550000D02*
X84750000Y-115550000D01*
X84750000Y-115550000D02*
X84750000Y-115550000D01*
X84750000Y-115550000D02*
X84370000Y-115550000D01*
X84370000Y-115550000D02*
X84370000Y-115550000D01*
X84370000Y-118250000D02*
X84370000Y-118250000D01*
X84370000Y-118250000D02*
X84370000Y-120550000D01*
X84370000Y-120550000D02*
X84370000Y-120550000D01*
X84370000Y-120550000D02*
X84370000Y-118250000D01*
X104370000Y-120550000D02*
X104370000Y-120550000D01*
X104370000Y-120550000D02*
X104370000Y-118000000D01*
X104370000Y-118000000D02*
X104370000Y-118000000D01*
X104370000Y-118000000D02*
X104370000Y-120550000D01*
X104370000Y-116000000D02*
X104370000Y-116000000D01*
X104370000Y-116000000D02*
X104370000Y-115550000D01*
X104370000Y-115550000D02*
X104370000Y-115550000D01*
X104370000Y-115550000D02*
X104370000Y-116000000D01*
X84370000Y-115750000D02*
X84370000Y-115750000D01*
X84370000Y-115750000D02*
X84370000Y-115550000D01*
X84370000Y-115550000D02*
X84370000Y-115550000D01*
X84370000Y-115550000D02*
X84370000Y-115750000D01*
D15*
X103250000Y-114850000D02*
X103250000Y-114850000D01*
X103250000Y-114650000D02*
X103250000Y-114650000D01*
X103250000Y-114850000D02*
X103250000Y-114850000D01*
X103250000Y-114650000D02*
G75*
G03*
X103250000Y-114850000I0J-100000D01*
G01*
X103250000Y-114850000D02*
G75*
G03*
X103250000Y-114650000I0J100000D01*
G01*
X103250000Y-114650000D02*
G75*
G03*
X103250000Y-114850000I0J-100000D01*
G01*
D14*
%TO.C,K5*%
X99250000Y-109550000D02*
X92000000Y-109550000D01*
X92000000Y-109550000D02*
X92000000Y-109550000D01*
X92000000Y-109550000D02*
X99250000Y-109550000D01*
X99250000Y-109550000D02*
X99250000Y-109550000D01*
X89000000Y-109550000D02*
X87000000Y-109550000D01*
X87000000Y-109550000D02*
X87000000Y-109550000D01*
X87000000Y-109550000D02*
X89000000Y-109550000D01*
X89000000Y-109550000D02*
X89000000Y-109550000D01*
X84370000Y-114550000D02*
X104370000Y-114550000D01*
X104370000Y-114550000D02*
X104370000Y-114550000D01*
X104370000Y-114550000D02*
X84370000Y-114550000D01*
X84370000Y-114550000D02*
X84370000Y-114550000D01*
X104370000Y-109550000D02*
X104000000Y-109550000D01*
X104000000Y-109550000D02*
X104000000Y-109550000D01*
X104000000Y-109550000D02*
X104370000Y-109550000D01*
X104370000Y-109550000D02*
X104370000Y-109550000D01*
X84370000Y-109550000D02*
X84750000Y-109550000D01*
X84750000Y-109550000D02*
X84750000Y-109550000D01*
X84750000Y-109550000D02*
X84370000Y-109550000D01*
X84370000Y-109550000D02*
X84370000Y-109550000D01*
X84370000Y-112250000D02*
X84370000Y-112250000D01*
X84370000Y-112250000D02*
X84370000Y-114550000D01*
X84370000Y-114550000D02*
X84370000Y-114550000D01*
X84370000Y-114550000D02*
X84370000Y-112250000D01*
X104370000Y-114550000D02*
X104370000Y-114550000D01*
X104370000Y-114550000D02*
X104370000Y-112000000D01*
X104370000Y-112000000D02*
X104370000Y-112000000D01*
X104370000Y-112000000D02*
X104370000Y-114550000D01*
X104370000Y-110000000D02*
X104370000Y-110000000D01*
X104370000Y-110000000D02*
X104370000Y-109550000D01*
X104370000Y-109550000D02*
X104370000Y-109550000D01*
X104370000Y-109550000D02*
X104370000Y-110000000D01*
X84370000Y-109750000D02*
X84370000Y-109750000D01*
X84370000Y-109750000D02*
X84370000Y-109550000D01*
X84370000Y-109550000D02*
X84370000Y-109550000D01*
X84370000Y-109550000D02*
X84370000Y-109750000D01*
D15*
X103250000Y-108850000D02*
X103250000Y-108850000D01*
X103250000Y-108650000D02*
X103250000Y-108650000D01*
X103250000Y-108850000D02*
X103250000Y-108850000D01*
X103250000Y-108650000D02*
G75*
G03*
X103250000Y-108850000I0J-100000D01*
G01*
X103250000Y-108850000D02*
G75*
G03*
X103250000Y-108650000I0J100000D01*
G01*
X103250000Y-108650000D02*
G75*
G03*
X103250000Y-108850000I0J-100000D01*
G01*
D14*
%TO.C,K4*%
X99250000Y-103550000D02*
X92000000Y-103550000D01*
X92000000Y-103550000D02*
X92000000Y-103550000D01*
X92000000Y-103550000D02*
X99250000Y-103550000D01*
X99250000Y-103550000D02*
X99250000Y-103550000D01*
X89000000Y-103550000D02*
X87000000Y-103550000D01*
X87000000Y-103550000D02*
X87000000Y-103550000D01*
X87000000Y-103550000D02*
X89000000Y-103550000D01*
X89000000Y-103550000D02*
X89000000Y-103550000D01*
X84370000Y-108550000D02*
X104370000Y-108550000D01*
X104370000Y-108550000D02*
X104370000Y-108550000D01*
X104370000Y-108550000D02*
X84370000Y-108550000D01*
X84370000Y-108550000D02*
X84370000Y-108550000D01*
X104370000Y-103550000D02*
X104000000Y-103550000D01*
X104000000Y-103550000D02*
X104000000Y-103550000D01*
X104000000Y-103550000D02*
X104370000Y-103550000D01*
X104370000Y-103550000D02*
X104370000Y-103550000D01*
X84370000Y-103550000D02*
X84750000Y-103550000D01*
X84750000Y-103550000D02*
X84750000Y-103550000D01*
X84750000Y-103550000D02*
X84370000Y-103550000D01*
X84370000Y-103550000D02*
X84370000Y-103550000D01*
X84370000Y-106250000D02*
X84370000Y-106250000D01*
X84370000Y-106250000D02*
X84370000Y-108550000D01*
X84370000Y-108550000D02*
X84370000Y-108550000D01*
X84370000Y-108550000D02*
X84370000Y-106250000D01*
X104370000Y-108550000D02*
X104370000Y-108550000D01*
X104370000Y-108550000D02*
X104370000Y-106000000D01*
X104370000Y-106000000D02*
X104370000Y-106000000D01*
X104370000Y-106000000D02*
X104370000Y-108550000D01*
X104370000Y-104000000D02*
X104370000Y-104000000D01*
X104370000Y-104000000D02*
X104370000Y-103550000D01*
X104370000Y-103550000D02*
X104370000Y-103550000D01*
X104370000Y-103550000D02*
X104370000Y-104000000D01*
X84370000Y-103750000D02*
X84370000Y-103750000D01*
X84370000Y-103750000D02*
X84370000Y-103550000D01*
X84370000Y-103550000D02*
X84370000Y-103550000D01*
X84370000Y-103550000D02*
X84370000Y-103750000D01*
D15*
X103250000Y-102850000D02*
X103250000Y-102850000D01*
X103250000Y-102650000D02*
X103250000Y-102650000D01*
X103250000Y-102850000D02*
X103250000Y-102850000D01*
X103250000Y-102650000D02*
G75*
G03*
X103250000Y-102850000I0J-100000D01*
G01*
X103250000Y-102850000D02*
G75*
G03*
X103250000Y-102650000I0J100000D01*
G01*
X103250000Y-102650000D02*
G75*
G03*
X103250000Y-102850000I0J-100000D01*
G01*
D14*
%TO.C,K3*%
X99250000Y-97550000D02*
X92000000Y-97550000D01*
X92000000Y-97550000D02*
X92000000Y-97550000D01*
X92000000Y-97550000D02*
X99250000Y-97550000D01*
X99250000Y-97550000D02*
X99250000Y-97550000D01*
X89000000Y-97550000D02*
X87000000Y-97550000D01*
X87000000Y-97550000D02*
X87000000Y-97550000D01*
X87000000Y-97550000D02*
X89000000Y-97550000D01*
X89000000Y-97550000D02*
X89000000Y-97550000D01*
X84370000Y-102550000D02*
X104370000Y-102550000D01*
X104370000Y-102550000D02*
X104370000Y-102550000D01*
X104370000Y-102550000D02*
X84370000Y-102550000D01*
X84370000Y-102550000D02*
X84370000Y-102550000D01*
X104370000Y-97550000D02*
X104000000Y-97550000D01*
X104000000Y-97550000D02*
X104000000Y-97550000D01*
X104000000Y-97550000D02*
X104370000Y-97550000D01*
X104370000Y-97550000D02*
X104370000Y-97550000D01*
X84370000Y-97550000D02*
X84750000Y-97550000D01*
X84750000Y-97550000D02*
X84750000Y-97550000D01*
X84750000Y-97550000D02*
X84370000Y-97550000D01*
X84370000Y-97550000D02*
X84370000Y-97550000D01*
X84370000Y-100250000D02*
X84370000Y-100250000D01*
X84370000Y-100250000D02*
X84370000Y-102550000D01*
X84370000Y-102550000D02*
X84370000Y-102550000D01*
X84370000Y-102550000D02*
X84370000Y-100250000D01*
X104370000Y-102550000D02*
X104370000Y-102550000D01*
X104370000Y-102550000D02*
X104370000Y-100000000D01*
X104370000Y-100000000D02*
X104370000Y-100000000D01*
X104370000Y-100000000D02*
X104370000Y-102550000D01*
X104370000Y-98000000D02*
X104370000Y-98000000D01*
X104370000Y-98000000D02*
X104370000Y-97550000D01*
X104370000Y-97550000D02*
X104370000Y-97550000D01*
X104370000Y-97550000D02*
X104370000Y-98000000D01*
X84370000Y-97750000D02*
X84370000Y-97750000D01*
X84370000Y-97750000D02*
X84370000Y-97550000D01*
X84370000Y-97550000D02*
X84370000Y-97550000D01*
X84370000Y-97550000D02*
X84370000Y-97750000D01*
D15*
X103250000Y-96850000D02*
X103250000Y-96850000D01*
X103250000Y-96650000D02*
X103250000Y-96650000D01*
X103250000Y-96850000D02*
X103250000Y-96850000D01*
X103250000Y-96650000D02*
G75*
G03*
X103250000Y-96850000I0J-100000D01*
G01*
X103250000Y-96850000D02*
G75*
G03*
X103250000Y-96650000I0J100000D01*
G01*
X103250000Y-96650000D02*
G75*
G03*
X103250000Y-96850000I0J-100000D01*
G01*
D14*
%TO.C,K2*%
X99250000Y-91550000D02*
X92000000Y-91550000D01*
X92000000Y-91550000D02*
X92000000Y-91550000D01*
X92000000Y-91550000D02*
X99250000Y-91550000D01*
X99250000Y-91550000D02*
X99250000Y-91550000D01*
X89000000Y-91550000D02*
X87000000Y-91550000D01*
X87000000Y-91550000D02*
X87000000Y-91550000D01*
X87000000Y-91550000D02*
X89000000Y-91550000D01*
X89000000Y-91550000D02*
X89000000Y-91550000D01*
X84370000Y-96550000D02*
X104370000Y-96550000D01*
X104370000Y-96550000D02*
X104370000Y-96550000D01*
X104370000Y-96550000D02*
X84370000Y-96550000D01*
X84370000Y-96550000D02*
X84370000Y-96550000D01*
X104370000Y-91550000D02*
X104000000Y-91550000D01*
X104000000Y-91550000D02*
X104000000Y-91550000D01*
X104000000Y-91550000D02*
X104370000Y-91550000D01*
X104370000Y-91550000D02*
X104370000Y-91550000D01*
X84370000Y-91550000D02*
X84750000Y-91550000D01*
X84750000Y-91550000D02*
X84750000Y-91550000D01*
X84750000Y-91550000D02*
X84370000Y-91550000D01*
X84370000Y-91550000D02*
X84370000Y-91550000D01*
X84370000Y-94250000D02*
X84370000Y-94250000D01*
X84370000Y-94250000D02*
X84370000Y-96550000D01*
X84370000Y-96550000D02*
X84370000Y-96550000D01*
X84370000Y-96550000D02*
X84370000Y-94250000D01*
X104370000Y-96550000D02*
X104370000Y-96550000D01*
X104370000Y-96550000D02*
X104370000Y-94000000D01*
X104370000Y-94000000D02*
X104370000Y-94000000D01*
X104370000Y-94000000D02*
X104370000Y-96550000D01*
X104370000Y-92000000D02*
X104370000Y-92000000D01*
X104370000Y-92000000D02*
X104370000Y-91550000D01*
X104370000Y-91550000D02*
X104370000Y-91550000D01*
X104370000Y-91550000D02*
X104370000Y-92000000D01*
X84370000Y-91750000D02*
X84370000Y-91750000D01*
X84370000Y-91750000D02*
X84370000Y-91550000D01*
X84370000Y-91550000D02*
X84370000Y-91550000D01*
X84370000Y-91550000D02*
X84370000Y-91750000D01*
D15*
X103250000Y-90850000D02*
X103250000Y-90850000D01*
X103250000Y-90650000D02*
X103250000Y-90650000D01*
X103250000Y-90850000D02*
X103250000Y-90850000D01*
X103250000Y-90650000D02*
G75*
G03*
X103250000Y-90850000I0J-100000D01*
G01*
X103250000Y-90850000D02*
G75*
G03*
X103250000Y-90650000I0J100000D01*
G01*
X103250000Y-90650000D02*
G75*
G03*
X103250000Y-90850000I0J-100000D01*
G01*
D16*
%TO.C,JP2*%
X130500000Y-86400000D02*
X130500000Y-83600000D01*
X130500000Y-83600000D02*
X128500000Y-83600000D01*
X128500000Y-83600000D02*
X128500000Y-86400000D01*
X128500000Y-86400000D02*
X130500000Y-86400000D01*
%TO.C,J12*%
X161350000Y-133550000D02*
X161350000Y-133050000D01*
X162090000Y-133550000D02*
X161350000Y-133550000D01*
X165227000Y-86977000D02*
X165181000Y-87024000D01*
X167525000Y-84680000D02*
X167489000Y-84715000D01*
X165011000Y-86784000D02*
X164976000Y-86819000D01*
X167319000Y-84475000D02*
X167273000Y-84522000D01*
X165227000Y-91977000D02*
X165181000Y-92024000D01*
X167525000Y-89680000D02*
X167489000Y-89715000D01*
X165011000Y-91784000D02*
X164976000Y-91819000D01*
X167319000Y-89475000D02*
X167273000Y-89522000D01*
X165227000Y-96977000D02*
X165181000Y-97024000D01*
X167525000Y-94680000D02*
X167489000Y-94715000D01*
X165011000Y-96784000D02*
X164976000Y-96819000D01*
X167319000Y-94475000D02*
X167273000Y-94522000D01*
X165227000Y-101977000D02*
X165181000Y-102024000D01*
X167525000Y-99680000D02*
X167489000Y-99715000D01*
X165011000Y-101784000D02*
X164976000Y-101819000D01*
X167319000Y-99475000D02*
X167273000Y-99522000D01*
X165227000Y-106977000D02*
X165181000Y-107024000D01*
X167525000Y-104680000D02*
X167489000Y-104715000D01*
X165011000Y-106784000D02*
X164976000Y-106819000D01*
X167319000Y-104475000D02*
X167273000Y-104522000D01*
X165227000Y-111977000D02*
X165181000Y-112024000D01*
X167525000Y-109680000D02*
X167489000Y-109715000D01*
X165011000Y-111784000D02*
X164976000Y-111819000D01*
X167319000Y-109475000D02*
X167273000Y-109522000D01*
X165227000Y-116977000D02*
X165181000Y-117024000D01*
X167525000Y-114680000D02*
X167489000Y-114715000D01*
X165011000Y-116784000D02*
X164976000Y-116819000D01*
X167319000Y-114475000D02*
X167273000Y-114522000D01*
X165227000Y-121977000D02*
X165181000Y-122024000D01*
X167525000Y-119680000D02*
X167489000Y-119715000D01*
X165011000Y-121784000D02*
X164976000Y-121819000D01*
X167319000Y-119475000D02*
X167273000Y-119522000D01*
X165227000Y-126977000D02*
X165181000Y-127024000D01*
X167525000Y-124680000D02*
X167489000Y-124715000D01*
X165011000Y-126784000D02*
X164976000Y-126819000D01*
X167319000Y-124475000D02*
X167273000Y-124522000D01*
X171511000Y-83190000D02*
X161590000Y-83190000D01*
X171511000Y-133310000D02*
X161590000Y-133310000D01*
X161590000Y-133310000D02*
X161590000Y-83190000D01*
X171511000Y-133310000D02*
X171511000Y-83190000D01*
X168551000Y-133310000D02*
X168551000Y-83190000D01*
X163650000Y-133310000D02*
X163650000Y-83190000D01*
X162150000Y-133310000D02*
X162150000Y-83190000D01*
X167930000Y-85750000D02*
G75*
G03*
X167930000Y-85750000I-1680000J0D01*
G01*
X167930000Y-90750000D02*
G75*
G03*
X167930000Y-90750000I-1680000J0D01*
G01*
X167930000Y-95750000D02*
G75*
G03*
X167930000Y-95750000I-1680000J0D01*
G01*
X167930000Y-100750000D02*
G75*
G03*
X167930000Y-100750000I-1680000J0D01*
G01*
X167930000Y-105750000D02*
G75*
G03*
X167930000Y-105750000I-1680000J0D01*
G01*
X167930000Y-110750000D02*
G75*
G03*
X167930000Y-110750000I-1680000J0D01*
G01*
X167930000Y-115750000D02*
G75*
G03*
X167930000Y-115750000I-1680000J0D01*
G01*
X167930000Y-120750000D02*
G75*
G03*
X167930000Y-120750000I-1680000J0D01*
G01*
X167930000Y-125750000D02*
G75*
G03*
X167930000Y-125750000I-1680000J0D01*
G01*
X164715244Y-130066682D02*
G75*
G03*
X164570000Y-130750000I1534756J-683318D01*
G01*
X166933042Y-129214574D02*
G75*
G03*
X165566000Y-129215000I-683042J-1535426D01*
G01*
X167785426Y-131433042D02*
G75*
G03*
X167785000Y-130066000I-1535426J683042D01*
G01*
X165566958Y-132285426D02*
G75*
G03*
X166934000Y-132285000I683042J1535426D01*
G01*
X164569747Y-130721195D02*
G75*
G03*
X164715000Y-131434000I1680253J-28805D01*
G01*
%TO.C,J11*%
X83150000Y-82950000D02*
X83150000Y-83450000D01*
X82410000Y-82950000D02*
X83150000Y-82950000D01*
X79273000Y-129523000D02*
X79319000Y-129476000D01*
X76975000Y-131820000D02*
X77011000Y-131785000D01*
X79489000Y-129716000D02*
X79524000Y-129681000D01*
X77181000Y-132025000D02*
X77227000Y-131978000D01*
X79273000Y-124523000D02*
X79319000Y-124476000D01*
X76975000Y-126820000D02*
X77011000Y-126785000D01*
X79489000Y-124716000D02*
X79524000Y-124681000D01*
X77181000Y-127025000D02*
X77227000Y-126978000D01*
X79273000Y-119523000D02*
X79319000Y-119476000D01*
X76975000Y-121820000D02*
X77011000Y-121785000D01*
X79489000Y-119716000D02*
X79524000Y-119681000D01*
X77181000Y-122025000D02*
X77227000Y-121978000D01*
X79273000Y-114523000D02*
X79319000Y-114476000D01*
X76975000Y-116820000D02*
X77011000Y-116785000D01*
X79489000Y-114716000D02*
X79524000Y-114681000D01*
X77181000Y-117025000D02*
X77227000Y-116978000D01*
X79273000Y-109523000D02*
X79319000Y-109476000D01*
X76975000Y-111820000D02*
X77011000Y-111785000D01*
X79489000Y-109716000D02*
X79524000Y-109681000D01*
X77181000Y-112025000D02*
X77227000Y-111978000D01*
X79273000Y-104523000D02*
X79319000Y-104476000D01*
X76975000Y-106820000D02*
X77011000Y-106785000D01*
X79489000Y-104716000D02*
X79524000Y-104681000D01*
X77181000Y-107025000D02*
X77227000Y-106978000D01*
X79273000Y-99523000D02*
X79319000Y-99476000D01*
X76975000Y-101820000D02*
X77011000Y-101785000D01*
X79489000Y-99716000D02*
X79524000Y-99681000D01*
X77181000Y-102025000D02*
X77227000Y-101978000D01*
X79273000Y-94523000D02*
X79319000Y-94476000D01*
X76975000Y-96820000D02*
X77011000Y-96785000D01*
X79489000Y-94716000D02*
X79524000Y-94681000D01*
X77181000Y-97025000D02*
X77227000Y-96978000D01*
X79273000Y-89523000D02*
X79319000Y-89476000D01*
X76975000Y-91820000D02*
X77011000Y-91785000D01*
X79489000Y-89716000D02*
X79524000Y-89681000D01*
X77181000Y-92025000D02*
X77227000Y-91978000D01*
X72989000Y-133310000D02*
X82910000Y-133310000D01*
X72989000Y-83190000D02*
X82910000Y-83190000D01*
X82910000Y-83190000D02*
X82910000Y-133310000D01*
X72989000Y-83190000D02*
X72989000Y-133310000D01*
X75949000Y-83190000D02*
X75949000Y-133310000D01*
X80850000Y-83190000D02*
X80850000Y-133310000D01*
X82350000Y-83190000D02*
X82350000Y-133310000D01*
X79930000Y-130750000D02*
G75*
G03*
X79930000Y-130750000I-1680000J0D01*
G01*
X79930000Y-125750000D02*
G75*
G03*
X79930000Y-125750000I-1680000J0D01*
G01*
X79930000Y-120750000D02*
G75*
G03*
X79930000Y-120750000I-1680000J0D01*
G01*
X79930000Y-115750000D02*
G75*
G03*
X79930000Y-115750000I-1680000J0D01*
G01*
X79930000Y-110750000D02*
G75*
G03*
X79930000Y-110750000I-1680000J0D01*
G01*
X79930000Y-105750000D02*
G75*
G03*
X79930000Y-105750000I-1680000J0D01*
G01*
X79930000Y-100750000D02*
G75*
G03*
X79930000Y-100750000I-1680000J0D01*
G01*
X79930000Y-95750000D02*
G75*
G03*
X79930000Y-95750000I-1680000J0D01*
G01*
X79930000Y-90750000D02*
G75*
G03*
X79930000Y-90750000I-1680000J0D01*
G01*
X79784756Y-86433318D02*
G75*
G03*
X79930000Y-85750000I-1534756J683318D01*
G01*
X77566958Y-87285426D02*
G75*
G03*
X78934000Y-87285000I683042J1535426D01*
G01*
X76714574Y-85066958D02*
G75*
G03*
X76715000Y-86434000I1535426J-683042D01*
G01*
X78933042Y-84214574D02*
G75*
G03*
X77566000Y-84215000I-683042J-1535426D01*
G01*
X79930253Y-85778805D02*
G75*
G03*
X79785000Y-85066000I-1680253J28805D01*
G01*
%TO.C,J8*%
X150580000Y-75080000D02*
X150580000Y-73750000D01*
X149250000Y-75080000D02*
X150580000Y-75080000D01*
X147980000Y-75080000D02*
X147980000Y-72420000D01*
X147980000Y-72420000D02*
X140300000Y-72420000D01*
X147980000Y-75080000D02*
X140300000Y-75080000D01*
X140300000Y-75080000D02*
X140300000Y-72420000D01*
%TO.C,J7*%
X150580000Y-82580000D02*
X150580000Y-81250000D01*
X149250000Y-82580000D02*
X150580000Y-82580000D01*
X147980000Y-82580000D02*
X147980000Y-79920000D01*
X147980000Y-79920000D02*
X140300000Y-79920000D01*
X147980000Y-82580000D02*
X140300000Y-82580000D01*
X140300000Y-82580000D02*
X140300000Y-79920000D01*
%TO.C,J4*%
X150580000Y-78830000D02*
X150580000Y-77500000D01*
X149250000Y-78830000D02*
X150580000Y-78830000D01*
X147980000Y-78830000D02*
X147980000Y-76170000D01*
X147980000Y-76170000D02*
X140300000Y-76170000D01*
X147980000Y-78830000D02*
X140300000Y-78830000D01*
X140300000Y-78830000D02*
X140300000Y-76170000D01*
%TO.C,C31*%
X125109420Y-102490000D02*
X125390580Y-102490000D01*
X125109420Y-103510000D02*
X125390580Y-103510000D01*
%TO.C,C28*%
X84020354Y-74125000D02*
X84020354Y-73125000D01*
X83520354Y-73625000D02*
X84520354Y-73625000D01*
X94081000Y-71349000D02*
X94081000Y-70151000D01*
X94041000Y-71612000D02*
X94041000Y-69888000D01*
X94001000Y-71812000D02*
X94001000Y-69688000D01*
X93921000Y-69509000D02*
X93921000Y-69372000D01*
X93921000Y-72128000D02*
X93921000Y-71991000D01*
X93881000Y-69509000D02*
X93881000Y-69240000D01*
X93881000Y-72260000D02*
X93881000Y-71991000D01*
X93841000Y-69509000D02*
X93841000Y-69120000D01*
X93841000Y-72380000D02*
X93841000Y-71991000D01*
X93801000Y-69509000D02*
X93801000Y-69008000D01*
X93801000Y-72492000D02*
X93801000Y-71991000D01*
X93761000Y-69509000D02*
X93761000Y-68904000D01*
X93761000Y-72596000D02*
X93761000Y-71991000D01*
X93721000Y-69509000D02*
X93721000Y-68806000D01*
X93721000Y-72694000D02*
X93721000Y-71991000D01*
X93681000Y-69509000D02*
X93681000Y-68713000D01*
X93681000Y-72787000D02*
X93681000Y-71991000D01*
X93641000Y-69509000D02*
X93641000Y-68625000D01*
X93641000Y-72875000D02*
X93641000Y-71991000D01*
X93601000Y-69509000D02*
X93601000Y-68541000D01*
X93601000Y-72959000D02*
X93601000Y-71991000D01*
X93561000Y-69509000D02*
X93561000Y-68461000D01*
X93561000Y-73039000D02*
X93561000Y-71991000D01*
X93521000Y-69509000D02*
X93521000Y-68385000D01*
X93521000Y-73115000D02*
X93521000Y-71991000D01*
X93481000Y-69509000D02*
X93481000Y-68311000D01*
X93481000Y-73189000D02*
X93481000Y-71991000D01*
X93441000Y-69509000D02*
X93441000Y-68240000D01*
X93441000Y-73260000D02*
X93441000Y-71991000D01*
X93401000Y-69509000D02*
X93401000Y-68171000D01*
X93401000Y-73329000D02*
X93401000Y-71991000D01*
X93361000Y-69509000D02*
X93361000Y-68105000D01*
X93361000Y-73395000D02*
X93361000Y-71991000D01*
X93321000Y-69509000D02*
X93321000Y-68041000D01*
X93321000Y-73459000D02*
X93321000Y-71991000D01*
X93281000Y-69509000D02*
X93281000Y-67980000D01*
X93281000Y-73520000D02*
X93281000Y-71991000D01*
X93241000Y-69509000D02*
X93241000Y-67920000D01*
X93241000Y-73580000D02*
X93241000Y-71991000D01*
X93201000Y-69509000D02*
X93201000Y-67861000D01*
X93201000Y-73639000D02*
X93201000Y-71991000D01*
X93161000Y-69509000D02*
X93161000Y-67805000D01*
X93161000Y-73695000D02*
X93161000Y-71991000D01*
X93121000Y-69509000D02*
X93121000Y-67750000D01*
X93121000Y-73750000D02*
X93121000Y-71991000D01*
X93081000Y-69509000D02*
X93081000Y-67696000D01*
X93081000Y-73804000D02*
X93081000Y-71991000D01*
X93041000Y-69509000D02*
X93041000Y-67644000D01*
X93041000Y-73856000D02*
X93041000Y-71991000D01*
X93001000Y-69509000D02*
X93001000Y-67594000D01*
X93001000Y-73906000D02*
X93001000Y-71991000D01*
X92961000Y-69509000D02*
X92961000Y-67544000D01*
X92961000Y-73956000D02*
X92961000Y-71991000D01*
X92921000Y-69509000D02*
X92921000Y-67496000D01*
X92921000Y-74004000D02*
X92921000Y-71991000D01*
X92881000Y-69509000D02*
X92881000Y-67449000D01*
X92881000Y-74051000D02*
X92881000Y-71991000D01*
X92841000Y-69509000D02*
X92841000Y-67403000D01*
X92841000Y-74097000D02*
X92841000Y-71991000D01*
X92801000Y-69509000D02*
X92801000Y-67358000D01*
X92801000Y-74142000D02*
X92801000Y-71991000D01*
X92761000Y-69509000D02*
X92761000Y-67314000D01*
X92761000Y-74186000D02*
X92761000Y-71991000D01*
X92721000Y-69509000D02*
X92721000Y-67272000D01*
X92721000Y-74228000D02*
X92721000Y-71991000D01*
X92681000Y-69509000D02*
X92681000Y-67230000D01*
X92681000Y-74270000D02*
X92681000Y-71991000D01*
X92641000Y-69509000D02*
X92641000Y-67189000D01*
X92641000Y-74311000D02*
X92641000Y-71991000D01*
X92601000Y-69509000D02*
X92601000Y-67149000D01*
X92601000Y-74351000D02*
X92601000Y-71991000D01*
X92561000Y-69509000D02*
X92561000Y-67110000D01*
X92561000Y-74390000D02*
X92561000Y-71991000D01*
X92521000Y-69509000D02*
X92521000Y-67071000D01*
X92521000Y-74429000D02*
X92521000Y-71991000D01*
X92481000Y-69509000D02*
X92481000Y-67034000D01*
X92481000Y-74466000D02*
X92481000Y-71991000D01*
X92441000Y-69509000D02*
X92441000Y-66997000D01*
X92441000Y-74503000D02*
X92441000Y-71991000D01*
X92401000Y-69509000D02*
X92401000Y-66961000D01*
X92401000Y-74539000D02*
X92401000Y-71991000D01*
X92361000Y-69509000D02*
X92361000Y-66926000D01*
X92361000Y-74574000D02*
X92361000Y-71991000D01*
X92321000Y-69509000D02*
X92321000Y-66892000D01*
X92321000Y-74608000D02*
X92321000Y-71991000D01*
X92281000Y-69509000D02*
X92281000Y-66858000D01*
X92281000Y-74642000D02*
X92281000Y-71991000D01*
X92241000Y-69509000D02*
X92241000Y-66825000D01*
X92241000Y-74675000D02*
X92241000Y-71991000D01*
X92201000Y-69509000D02*
X92201000Y-66793000D01*
X92201000Y-74707000D02*
X92201000Y-71991000D01*
X92161000Y-69509000D02*
X92161000Y-66761000D01*
X92161000Y-74739000D02*
X92161000Y-71991000D01*
X92121000Y-69509000D02*
X92121000Y-66730000D01*
X92121000Y-74770000D02*
X92121000Y-71991000D01*
X92081000Y-69509000D02*
X92081000Y-66700000D01*
X92081000Y-74800000D02*
X92081000Y-71991000D01*
X92041000Y-69509000D02*
X92041000Y-66670000D01*
X92041000Y-74830000D02*
X92041000Y-71991000D01*
X92001000Y-69509000D02*
X92001000Y-66640000D01*
X92001000Y-74860000D02*
X92001000Y-71991000D01*
X91961000Y-69509000D02*
X91961000Y-66612000D01*
X91961000Y-74888000D02*
X91961000Y-71991000D01*
X91921000Y-69509000D02*
X91921000Y-66584000D01*
X91921000Y-74916000D02*
X91921000Y-71991000D01*
X91881000Y-69509000D02*
X91881000Y-66556000D01*
X91881000Y-74944000D02*
X91881000Y-71991000D01*
X91841000Y-69509000D02*
X91841000Y-66529000D01*
X91841000Y-74971000D02*
X91841000Y-71991000D01*
X91801000Y-69509000D02*
X91801000Y-66503000D01*
X91801000Y-74997000D02*
X91801000Y-71991000D01*
X91761000Y-69509000D02*
X91761000Y-66477000D01*
X91761000Y-75023000D02*
X91761000Y-71991000D01*
X91721000Y-69509000D02*
X91721000Y-66452000D01*
X91721000Y-75048000D02*
X91721000Y-71991000D01*
X91681000Y-69509000D02*
X91681000Y-66427000D01*
X91681000Y-75073000D02*
X91681000Y-71991000D01*
X91641000Y-69509000D02*
X91641000Y-66403000D01*
X91641000Y-75097000D02*
X91641000Y-71991000D01*
X91601000Y-69509000D02*
X91601000Y-66379000D01*
X91601000Y-75121000D02*
X91601000Y-71991000D01*
X91561000Y-69509000D02*
X91561000Y-66355000D01*
X91561000Y-75145000D02*
X91561000Y-71991000D01*
X91521000Y-69509000D02*
X91521000Y-66333000D01*
X91521000Y-75167000D02*
X91521000Y-71991000D01*
X91481000Y-75190000D02*
X91481000Y-66310000D01*
X91441000Y-75212000D02*
X91441000Y-66288000D01*
X91401000Y-75233000D02*
X91401000Y-66267000D01*
X91361000Y-75254000D02*
X91361000Y-66246000D01*
X91321000Y-75275000D02*
X91321000Y-66225000D01*
X91281000Y-75295000D02*
X91281000Y-66205000D01*
X91241000Y-75314000D02*
X91241000Y-66186000D01*
X91201000Y-75334000D02*
X91201000Y-66166000D01*
X91161000Y-75353000D02*
X91161000Y-66147000D01*
X91121000Y-75371000D02*
X91121000Y-66129000D01*
X91081000Y-75389000D02*
X91081000Y-66111000D01*
X91041000Y-75407000D02*
X91041000Y-66093000D01*
X91001000Y-75424000D02*
X91001000Y-66076000D01*
X90961000Y-75440000D02*
X90961000Y-66060000D01*
X90921000Y-75457000D02*
X90921000Y-66043000D01*
X90881000Y-75473000D02*
X90881000Y-66027000D01*
X90841000Y-75488000D02*
X90841000Y-66012000D01*
X90801000Y-75504000D02*
X90801000Y-65996000D01*
X90761000Y-75518000D02*
X90761000Y-65982000D01*
X90721000Y-75533000D02*
X90721000Y-65967000D01*
X90681000Y-75547000D02*
X90681000Y-65953000D01*
X90641000Y-75561000D02*
X90641000Y-65939000D01*
X90601000Y-75574000D02*
X90601000Y-65926000D01*
X90561000Y-75587000D02*
X90561000Y-65913000D01*
X90521000Y-75600000D02*
X90521000Y-65900000D01*
X90481000Y-75612000D02*
X90481000Y-65888000D01*
X90441000Y-75624000D02*
X90441000Y-65876000D01*
X90401000Y-75635000D02*
X90401000Y-65865000D01*
X90361000Y-75647000D02*
X90361000Y-65853000D01*
X90321000Y-75657000D02*
X90321000Y-65843000D01*
X90281000Y-75668000D02*
X90281000Y-65832000D01*
X90241000Y-75678000D02*
X90241000Y-65822000D01*
X90201000Y-75688000D02*
X90201000Y-65812000D01*
X90161000Y-75697000D02*
X90161000Y-65803000D01*
X90121000Y-75706000D02*
X90121000Y-65794000D01*
X90081000Y-75715000D02*
X90081000Y-65785000D01*
X90041000Y-75724000D02*
X90041000Y-65776000D01*
X90001000Y-75732000D02*
X90001000Y-65768000D01*
X89961000Y-75740000D02*
X89961000Y-65760000D01*
X89921000Y-75747000D02*
X89921000Y-65753000D01*
X89881000Y-75754000D02*
X89881000Y-65746000D01*
X89841000Y-75761000D02*
X89841000Y-65739000D01*
X89801000Y-75768000D02*
X89801000Y-65732000D01*
X89761000Y-75774000D02*
X89761000Y-65726000D01*
X89721000Y-75780000D02*
X89721000Y-65720000D01*
X89680000Y-75785000D02*
X89680000Y-65715000D01*
X89640000Y-75790000D02*
X89640000Y-65710000D01*
X89600000Y-75795000D02*
X89600000Y-65705000D01*
X89560000Y-75800000D02*
X89560000Y-65700000D01*
X89520000Y-75804000D02*
X89520000Y-65696000D01*
X89480000Y-75808000D02*
X89480000Y-65692000D01*
X89440000Y-75812000D02*
X89440000Y-65688000D01*
X89400000Y-75815000D02*
X89400000Y-65685000D01*
X89360000Y-75818000D02*
X89360000Y-65682000D01*
X89320000Y-75820000D02*
X89320000Y-65680000D01*
X89280000Y-75823000D02*
X89280000Y-65677000D01*
X89240000Y-75825000D02*
X89240000Y-65675000D01*
X89200000Y-75827000D02*
X89200000Y-65673000D01*
X89160000Y-75828000D02*
X89160000Y-65672000D01*
X89120000Y-75829000D02*
X89120000Y-65671000D01*
X89080000Y-75830000D02*
X89080000Y-65670000D01*
X89040000Y-75830000D02*
X89040000Y-65670000D01*
X89000000Y-75830000D02*
X89000000Y-65670000D01*
X84037460Y-69490000D02*
G75*
G02*
X84037460Y-72010000I4962540J-1260000D01*
G01*
%TO.C,C27*%
X93979646Y-76375000D02*
X93979646Y-77375000D01*
X94479646Y-76875000D02*
X93479646Y-76875000D01*
X83919000Y-79151000D02*
X83919000Y-80349000D01*
X83959000Y-78888000D02*
X83959000Y-80612000D01*
X83999000Y-78688000D02*
X83999000Y-80812000D01*
X84079000Y-80991000D02*
X84079000Y-81128000D01*
X84079000Y-78372000D02*
X84079000Y-78509000D01*
X84119000Y-80991000D02*
X84119000Y-81260000D01*
X84119000Y-78240000D02*
X84119000Y-78509000D01*
X84159000Y-80991000D02*
X84159000Y-81380000D01*
X84159000Y-78120000D02*
X84159000Y-78509000D01*
X84199000Y-80991000D02*
X84199000Y-81492000D01*
X84199000Y-78008000D02*
X84199000Y-78509000D01*
X84239000Y-80991000D02*
X84239000Y-81596000D01*
X84239000Y-77904000D02*
X84239000Y-78509000D01*
X84279000Y-80991000D02*
X84279000Y-81694000D01*
X84279000Y-77806000D02*
X84279000Y-78509000D01*
X84319000Y-80991000D02*
X84319000Y-81787000D01*
X84319000Y-77713000D02*
X84319000Y-78509000D01*
X84359000Y-80991000D02*
X84359000Y-81875000D01*
X84359000Y-77625000D02*
X84359000Y-78509000D01*
X84399000Y-80991000D02*
X84399000Y-81959000D01*
X84399000Y-77541000D02*
X84399000Y-78509000D01*
X84439000Y-80991000D02*
X84439000Y-82039000D01*
X84439000Y-77461000D02*
X84439000Y-78509000D01*
X84479000Y-80991000D02*
X84479000Y-82115000D01*
X84479000Y-77385000D02*
X84479000Y-78509000D01*
X84519000Y-80991000D02*
X84519000Y-82189000D01*
X84519000Y-77311000D02*
X84519000Y-78509000D01*
X84559000Y-80991000D02*
X84559000Y-82260000D01*
X84559000Y-77240000D02*
X84559000Y-78509000D01*
X84599000Y-80991000D02*
X84599000Y-82329000D01*
X84599000Y-77171000D02*
X84599000Y-78509000D01*
X84639000Y-80991000D02*
X84639000Y-82395000D01*
X84639000Y-77105000D02*
X84639000Y-78509000D01*
X84679000Y-80991000D02*
X84679000Y-82459000D01*
X84679000Y-77041000D02*
X84679000Y-78509000D01*
X84719000Y-80991000D02*
X84719000Y-82520000D01*
X84719000Y-76980000D02*
X84719000Y-78509000D01*
X84759000Y-80991000D02*
X84759000Y-82580000D01*
X84759000Y-76920000D02*
X84759000Y-78509000D01*
X84799000Y-80991000D02*
X84799000Y-82639000D01*
X84799000Y-76861000D02*
X84799000Y-78509000D01*
X84839000Y-80991000D02*
X84839000Y-82695000D01*
X84839000Y-76805000D02*
X84839000Y-78509000D01*
X84879000Y-80991000D02*
X84879000Y-82750000D01*
X84879000Y-76750000D02*
X84879000Y-78509000D01*
X84919000Y-80991000D02*
X84919000Y-82804000D01*
X84919000Y-76696000D02*
X84919000Y-78509000D01*
X84959000Y-80991000D02*
X84959000Y-82856000D01*
X84959000Y-76644000D02*
X84959000Y-78509000D01*
X84999000Y-80991000D02*
X84999000Y-82906000D01*
X84999000Y-76594000D02*
X84999000Y-78509000D01*
X85039000Y-80991000D02*
X85039000Y-82956000D01*
X85039000Y-76544000D02*
X85039000Y-78509000D01*
X85079000Y-80991000D02*
X85079000Y-83004000D01*
X85079000Y-76496000D02*
X85079000Y-78509000D01*
X85119000Y-80991000D02*
X85119000Y-83051000D01*
X85119000Y-76449000D02*
X85119000Y-78509000D01*
X85159000Y-80991000D02*
X85159000Y-83097000D01*
X85159000Y-76403000D02*
X85159000Y-78509000D01*
X85199000Y-80991000D02*
X85199000Y-83142000D01*
X85199000Y-76358000D02*
X85199000Y-78509000D01*
X85239000Y-80991000D02*
X85239000Y-83186000D01*
X85239000Y-76314000D02*
X85239000Y-78509000D01*
X85279000Y-80991000D02*
X85279000Y-83228000D01*
X85279000Y-76272000D02*
X85279000Y-78509000D01*
X85319000Y-80991000D02*
X85319000Y-83270000D01*
X85319000Y-76230000D02*
X85319000Y-78509000D01*
X85359000Y-80991000D02*
X85359000Y-83311000D01*
X85359000Y-76189000D02*
X85359000Y-78509000D01*
X85399000Y-80991000D02*
X85399000Y-83351000D01*
X85399000Y-76149000D02*
X85399000Y-78509000D01*
X85439000Y-80991000D02*
X85439000Y-83390000D01*
X85439000Y-76110000D02*
X85439000Y-78509000D01*
X85479000Y-80991000D02*
X85479000Y-83429000D01*
X85479000Y-76071000D02*
X85479000Y-78509000D01*
X85519000Y-80991000D02*
X85519000Y-83466000D01*
X85519000Y-76034000D02*
X85519000Y-78509000D01*
X85559000Y-80991000D02*
X85559000Y-83503000D01*
X85559000Y-75997000D02*
X85559000Y-78509000D01*
X85599000Y-80991000D02*
X85599000Y-83539000D01*
X85599000Y-75961000D02*
X85599000Y-78509000D01*
X85639000Y-80991000D02*
X85639000Y-83574000D01*
X85639000Y-75926000D02*
X85639000Y-78509000D01*
X85679000Y-80991000D02*
X85679000Y-83608000D01*
X85679000Y-75892000D02*
X85679000Y-78509000D01*
X85719000Y-80991000D02*
X85719000Y-83642000D01*
X85719000Y-75858000D02*
X85719000Y-78509000D01*
X85759000Y-80991000D02*
X85759000Y-83675000D01*
X85759000Y-75825000D02*
X85759000Y-78509000D01*
X85799000Y-80991000D02*
X85799000Y-83707000D01*
X85799000Y-75793000D02*
X85799000Y-78509000D01*
X85839000Y-80991000D02*
X85839000Y-83739000D01*
X85839000Y-75761000D02*
X85839000Y-78509000D01*
X85879000Y-80991000D02*
X85879000Y-83770000D01*
X85879000Y-75730000D02*
X85879000Y-78509000D01*
X85919000Y-80991000D02*
X85919000Y-83800000D01*
X85919000Y-75700000D02*
X85919000Y-78509000D01*
X85959000Y-80991000D02*
X85959000Y-83830000D01*
X85959000Y-75670000D02*
X85959000Y-78509000D01*
X85999000Y-80991000D02*
X85999000Y-83860000D01*
X85999000Y-75640000D02*
X85999000Y-78509000D01*
X86039000Y-80991000D02*
X86039000Y-83888000D01*
X86039000Y-75612000D02*
X86039000Y-78509000D01*
X86079000Y-80991000D02*
X86079000Y-83916000D01*
X86079000Y-75584000D02*
X86079000Y-78509000D01*
X86119000Y-80991000D02*
X86119000Y-83944000D01*
X86119000Y-75556000D02*
X86119000Y-78509000D01*
X86159000Y-80991000D02*
X86159000Y-83971000D01*
X86159000Y-75529000D02*
X86159000Y-78509000D01*
X86199000Y-80991000D02*
X86199000Y-83997000D01*
X86199000Y-75503000D02*
X86199000Y-78509000D01*
X86239000Y-80991000D02*
X86239000Y-84023000D01*
X86239000Y-75477000D02*
X86239000Y-78509000D01*
X86279000Y-80991000D02*
X86279000Y-84048000D01*
X86279000Y-75452000D02*
X86279000Y-78509000D01*
X86319000Y-80991000D02*
X86319000Y-84073000D01*
X86319000Y-75427000D02*
X86319000Y-78509000D01*
X86359000Y-80991000D02*
X86359000Y-84097000D01*
X86359000Y-75403000D02*
X86359000Y-78509000D01*
X86399000Y-80991000D02*
X86399000Y-84121000D01*
X86399000Y-75379000D02*
X86399000Y-78509000D01*
X86439000Y-80991000D02*
X86439000Y-84145000D01*
X86439000Y-75355000D02*
X86439000Y-78509000D01*
X86479000Y-80991000D02*
X86479000Y-84167000D01*
X86479000Y-75333000D02*
X86479000Y-78509000D01*
X86519000Y-75310000D02*
X86519000Y-84190000D01*
X86559000Y-75288000D02*
X86559000Y-84212000D01*
X86599000Y-75267000D02*
X86599000Y-84233000D01*
X86639000Y-75246000D02*
X86639000Y-84254000D01*
X86679000Y-75225000D02*
X86679000Y-84275000D01*
X86719000Y-75205000D02*
X86719000Y-84295000D01*
X86759000Y-75186000D02*
X86759000Y-84314000D01*
X86799000Y-75166000D02*
X86799000Y-84334000D01*
X86839000Y-75147000D02*
X86839000Y-84353000D01*
X86879000Y-75129000D02*
X86879000Y-84371000D01*
X86919000Y-75111000D02*
X86919000Y-84389000D01*
X86959000Y-75093000D02*
X86959000Y-84407000D01*
X86999000Y-75076000D02*
X86999000Y-84424000D01*
X87039000Y-75060000D02*
X87039000Y-84440000D01*
X87079000Y-75043000D02*
X87079000Y-84457000D01*
X87119000Y-75027000D02*
X87119000Y-84473000D01*
X87159000Y-75012000D02*
X87159000Y-84488000D01*
X87199000Y-74996000D02*
X87199000Y-84504000D01*
X87239000Y-74982000D02*
X87239000Y-84518000D01*
X87279000Y-74967000D02*
X87279000Y-84533000D01*
X87319000Y-74953000D02*
X87319000Y-84547000D01*
X87359000Y-74939000D02*
X87359000Y-84561000D01*
X87399000Y-74926000D02*
X87399000Y-84574000D01*
X87439000Y-74913000D02*
X87439000Y-84587000D01*
X87479000Y-74900000D02*
X87479000Y-84600000D01*
X87519000Y-74888000D02*
X87519000Y-84612000D01*
X87559000Y-74876000D02*
X87559000Y-84624000D01*
X87599000Y-74865000D02*
X87599000Y-84635000D01*
X87639000Y-74853000D02*
X87639000Y-84647000D01*
X87679000Y-74843000D02*
X87679000Y-84657000D01*
X87719000Y-74832000D02*
X87719000Y-84668000D01*
X87759000Y-74822000D02*
X87759000Y-84678000D01*
X87799000Y-74812000D02*
X87799000Y-84688000D01*
X87839000Y-74803000D02*
X87839000Y-84697000D01*
X87879000Y-74794000D02*
X87879000Y-84706000D01*
X87919000Y-74785000D02*
X87919000Y-84715000D01*
X87959000Y-74776000D02*
X87959000Y-84724000D01*
X87999000Y-74768000D02*
X87999000Y-84732000D01*
X88039000Y-74760000D02*
X88039000Y-84740000D01*
X88079000Y-74753000D02*
X88079000Y-84747000D01*
X88119000Y-74746000D02*
X88119000Y-84754000D01*
X88159000Y-74739000D02*
X88159000Y-84761000D01*
X88199000Y-74732000D02*
X88199000Y-84768000D01*
X88239000Y-74726000D02*
X88239000Y-84774000D01*
X88279000Y-74720000D02*
X88279000Y-84780000D01*
X88320000Y-74715000D02*
X88320000Y-84785000D01*
X88360000Y-74710000D02*
X88360000Y-84790000D01*
X88400000Y-74705000D02*
X88400000Y-84795000D01*
X88440000Y-74700000D02*
X88440000Y-84800000D01*
X88480000Y-74696000D02*
X88480000Y-84804000D01*
X88520000Y-74692000D02*
X88520000Y-84808000D01*
X88560000Y-74688000D02*
X88560000Y-84812000D01*
X88600000Y-74685000D02*
X88600000Y-84815000D01*
X88640000Y-74682000D02*
X88640000Y-84818000D01*
X88680000Y-74680000D02*
X88680000Y-84820000D01*
X88720000Y-74677000D02*
X88720000Y-84823000D01*
X88760000Y-74675000D02*
X88760000Y-84825000D01*
X88800000Y-74673000D02*
X88800000Y-84827000D01*
X88840000Y-74672000D02*
X88840000Y-84828000D01*
X88880000Y-74671000D02*
X88880000Y-84829000D01*
X88920000Y-74670000D02*
X88920000Y-84830000D01*
X88960000Y-74670000D02*
X88960000Y-84830000D01*
X89000000Y-74670000D02*
X89000000Y-84830000D01*
X93962540Y-81010000D02*
G75*
G02*
X93962540Y-78490000I-4962540J1260000D01*
G01*
%TO.C,C26*%
X130765000Y-87011252D02*
X130765000Y-86488748D01*
X132235000Y-87011252D02*
X132235000Y-86488748D01*
%TO.C,C25*%
X129761252Y-71485000D02*
X129238748Y-71485000D01*
X129761252Y-70015000D02*
X129238748Y-70015000D01*
%TO.C,C24*%
X104479646Y-62375000D02*
X104479646Y-63375000D01*
X104979646Y-62875000D02*
X103979646Y-62875000D01*
X94419000Y-65151000D02*
X94419000Y-66349000D01*
X94459000Y-64888000D02*
X94459000Y-66612000D01*
X94499000Y-64688000D02*
X94499000Y-66812000D01*
X94579000Y-66991000D02*
X94579000Y-67128000D01*
X94579000Y-64372000D02*
X94579000Y-64509000D01*
X94619000Y-66991000D02*
X94619000Y-67260000D01*
X94619000Y-64240000D02*
X94619000Y-64509000D01*
X94659000Y-66991000D02*
X94659000Y-67380000D01*
X94659000Y-64120000D02*
X94659000Y-64509000D01*
X94699000Y-66991000D02*
X94699000Y-67492000D01*
X94699000Y-64008000D02*
X94699000Y-64509000D01*
X94739000Y-66991000D02*
X94739000Y-67596000D01*
X94739000Y-63904000D02*
X94739000Y-64509000D01*
X94779000Y-66991000D02*
X94779000Y-67694000D01*
X94779000Y-63806000D02*
X94779000Y-64509000D01*
X94819000Y-66991000D02*
X94819000Y-67787000D01*
X94819000Y-63713000D02*
X94819000Y-64509000D01*
X94859000Y-66991000D02*
X94859000Y-67875000D01*
X94859000Y-63625000D02*
X94859000Y-64509000D01*
X94899000Y-66991000D02*
X94899000Y-67959000D01*
X94899000Y-63541000D02*
X94899000Y-64509000D01*
X94939000Y-66991000D02*
X94939000Y-68039000D01*
X94939000Y-63461000D02*
X94939000Y-64509000D01*
X94979000Y-66991000D02*
X94979000Y-68115000D01*
X94979000Y-63385000D02*
X94979000Y-64509000D01*
X95019000Y-66991000D02*
X95019000Y-68189000D01*
X95019000Y-63311000D02*
X95019000Y-64509000D01*
X95059000Y-66991000D02*
X95059000Y-68260000D01*
X95059000Y-63240000D02*
X95059000Y-64509000D01*
X95099000Y-66991000D02*
X95099000Y-68329000D01*
X95099000Y-63171000D02*
X95099000Y-64509000D01*
X95139000Y-66991000D02*
X95139000Y-68395000D01*
X95139000Y-63105000D02*
X95139000Y-64509000D01*
X95179000Y-66991000D02*
X95179000Y-68459000D01*
X95179000Y-63041000D02*
X95179000Y-64509000D01*
X95219000Y-66991000D02*
X95219000Y-68520000D01*
X95219000Y-62980000D02*
X95219000Y-64509000D01*
X95259000Y-66991000D02*
X95259000Y-68580000D01*
X95259000Y-62920000D02*
X95259000Y-64509000D01*
X95299000Y-66991000D02*
X95299000Y-68639000D01*
X95299000Y-62861000D02*
X95299000Y-64509000D01*
X95339000Y-66991000D02*
X95339000Y-68695000D01*
X95339000Y-62805000D02*
X95339000Y-64509000D01*
X95379000Y-66991000D02*
X95379000Y-68750000D01*
X95379000Y-62750000D02*
X95379000Y-64509000D01*
X95419000Y-66991000D02*
X95419000Y-68804000D01*
X95419000Y-62696000D02*
X95419000Y-64509000D01*
X95459000Y-66991000D02*
X95459000Y-68856000D01*
X95459000Y-62644000D02*
X95459000Y-64509000D01*
X95499000Y-66991000D02*
X95499000Y-68906000D01*
X95499000Y-62594000D02*
X95499000Y-64509000D01*
X95539000Y-66991000D02*
X95539000Y-68956000D01*
X95539000Y-62544000D02*
X95539000Y-64509000D01*
X95579000Y-66991000D02*
X95579000Y-69004000D01*
X95579000Y-62496000D02*
X95579000Y-64509000D01*
X95619000Y-66991000D02*
X95619000Y-69051000D01*
X95619000Y-62449000D02*
X95619000Y-64509000D01*
X95659000Y-66991000D02*
X95659000Y-69097000D01*
X95659000Y-62403000D02*
X95659000Y-64509000D01*
X95699000Y-66991000D02*
X95699000Y-69142000D01*
X95699000Y-62358000D02*
X95699000Y-64509000D01*
X95739000Y-66991000D02*
X95739000Y-69186000D01*
X95739000Y-62314000D02*
X95739000Y-64509000D01*
X95779000Y-66991000D02*
X95779000Y-69228000D01*
X95779000Y-62272000D02*
X95779000Y-64509000D01*
X95819000Y-66991000D02*
X95819000Y-69270000D01*
X95819000Y-62230000D02*
X95819000Y-64509000D01*
X95859000Y-66991000D02*
X95859000Y-69311000D01*
X95859000Y-62189000D02*
X95859000Y-64509000D01*
X95899000Y-66991000D02*
X95899000Y-69351000D01*
X95899000Y-62149000D02*
X95899000Y-64509000D01*
X95939000Y-66991000D02*
X95939000Y-69390000D01*
X95939000Y-62110000D02*
X95939000Y-64509000D01*
X95979000Y-66991000D02*
X95979000Y-69429000D01*
X95979000Y-62071000D02*
X95979000Y-64509000D01*
X96019000Y-66991000D02*
X96019000Y-69466000D01*
X96019000Y-62034000D02*
X96019000Y-64509000D01*
X96059000Y-66991000D02*
X96059000Y-69503000D01*
X96059000Y-61997000D02*
X96059000Y-64509000D01*
X96099000Y-66991000D02*
X96099000Y-69539000D01*
X96099000Y-61961000D02*
X96099000Y-64509000D01*
X96139000Y-66991000D02*
X96139000Y-69574000D01*
X96139000Y-61926000D02*
X96139000Y-64509000D01*
X96179000Y-66991000D02*
X96179000Y-69608000D01*
X96179000Y-61892000D02*
X96179000Y-64509000D01*
X96219000Y-66991000D02*
X96219000Y-69642000D01*
X96219000Y-61858000D02*
X96219000Y-64509000D01*
X96259000Y-66991000D02*
X96259000Y-69675000D01*
X96259000Y-61825000D02*
X96259000Y-64509000D01*
X96299000Y-66991000D02*
X96299000Y-69707000D01*
X96299000Y-61793000D02*
X96299000Y-64509000D01*
X96339000Y-66991000D02*
X96339000Y-69739000D01*
X96339000Y-61761000D02*
X96339000Y-64509000D01*
X96379000Y-66991000D02*
X96379000Y-69770000D01*
X96379000Y-61730000D02*
X96379000Y-64509000D01*
X96419000Y-66991000D02*
X96419000Y-69800000D01*
X96419000Y-61700000D02*
X96419000Y-64509000D01*
X96459000Y-66991000D02*
X96459000Y-69830000D01*
X96459000Y-61670000D02*
X96459000Y-64509000D01*
X96499000Y-66991000D02*
X96499000Y-69860000D01*
X96499000Y-61640000D02*
X96499000Y-64509000D01*
X96539000Y-66991000D02*
X96539000Y-69888000D01*
X96539000Y-61612000D02*
X96539000Y-64509000D01*
X96579000Y-66991000D02*
X96579000Y-69916000D01*
X96579000Y-61584000D02*
X96579000Y-64509000D01*
X96619000Y-66991000D02*
X96619000Y-69944000D01*
X96619000Y-61556000D02*
X96619000Y-64509000D01*
X96659000Y-66991000D02*
X96659000Y-69971000D01*
X96659000Y-61529000D02*
X96659000Y-64509000D01*
X96699000Y-66991000D02*
X96699000Y-69997000D01*
X96699000Y-61503000D02*
X96699000Y-64509000D01*
X96739000Y-66991000D02*
X96739000Y-70023000D01*
X96739000Y-61477000D02*
X96739000Y-64509000D01*
X96779000Y-66991000D02*
X96779000Y-70048000D01*
X96779000Y-61452000D02*
X96779000Y-64509000D01*
X96819000Y-66991000D02*
X96819000Y-70073000D01*
X96819000Y-61427000D02*
X96819000Y-64509000D01*
X96859000Y-66991000D02*
X96859000Y-70097000D01*
X96859000Y-61403000D02*
X96859000Y-64509000D01*
X96899000Y-66991000D02*
X96899000Y-70121000D01*
X96899000Y-61379000D02*
X96899000Y-64509000D01*
X96939000Y-66991000D02*
X96939000Y-70145000D01*
X96939000Y-61355000D02*
X96939000Y-64509000D01*
X96979000Y-66991000D02*
X96979000Y-70167000D01*
X96979000Y-61333000D02*
X96979000Y-64509000D01*
X97019000Y-61310000D02*
X97019000Y-70190000D01*
X97059000Y-61288000D02*
X97059000Y-70212000D01*
X97099000Y-61267000D02*
X97099000Y-70233000D01*
X97139000Y-61246000D02*
X97139000Y-70254000D01*
X97179000Y-61225000D02*
X97179000Y-70275000D01*
X97219000Y-61205000D02*
X97219000Y-70295000D01*
X97259000Y-61186000D02*
X97259000Y-70314000D01*
X97299000Y-61166000D02*
X97299000Y-70334000D01*
X97339000Y-61147000D02*
X97339000Y-70353000D01*
X97379000Y-61129000D02*
X97379000Y-70371000D01*
X97419000Y-61111000D02*
X97419000Y-70389000D01*
X97459000Y-61093000D02*
X97459000Y-70407000D01*
X97499000Y-61076000D02*
X97499000Y-70424000D01*
X97539000Y-61060000D02*
X97539000Y-70440000D01*
X97579000Y-61043000D02*
X97579000Y-70457000D01*
X97619000Y-61027000D02*
X97619000Y-70473000D01*
X97659000Y-61012000D02*
X97659000Y-70488000D01*
X97699000Y-60996000D02*
X97699000Y-70504000D01*
X97739000Y-60982000D02*
X97739000Y-70518000D01*
X97779000Y-60967000D02*
X97779000Y-70533000D01*
X97819000Y-60953000D02*
X97819000Y-70547000D01*
X97859000Y-60939000D02*
X97859000Y-70561000D01*
X97899000Y-60926000D02*
X97899000Y-70574000D01*
X97939000Y-60913000D02*
X97939000Y-70587000D01*
X97979000Y-60900000D02*
X97979000Y-70600000D01*
X98019000Y-60888000D02*
X98019000Y-70612000D01*
X98059000Y-60876000D02*
X98059000Y-70624000D01*
X98099000Y-60865000D02*
X98099000Y-70635000D01*
X98139000Y-60853000D02*
X98139000Y-70647000D01*
X98179000Y-60843000D02*
X98179000Y-70657000D01*
X98219000Y-60832000D02*
X98219000Y-70668000D01*
X98259000Y-60822000D02*
X98259000Y-70678000D01*
X98299000Y-60812000D02*
X98299000Y-70688000D01*
X98339000Y-60803000D02*
X98339000Y-70697000D01*
X98379000Y-60794000D02*
X98379000Y-70706000D01*
X98419000Y-60785000D02*
X98419000Y-70715000D01*
X98459000Y-60776000D02*
X98459000Y-70724000D01*
X98499000Y-60768000D02*
X98499000Y-70732000D01*
X98539000Y-60760000D02*
X98539000Y-70740000D01*
X98579000Y-60753000D02*
X98579000Y-70747000D01*
X98619000Y-60746000D02*
X98619000Y-70754000D01*
X98659000Y-60739000D02*
X98659000Y-70761000D01*
X98699000Y-60732000D02*
X98699000Y-70768000D01*
X98739000Y-60726000D02*
X98739000Y-70774000D01*
X98779000Y-60720000D02*
X98779000Y-70780000D01*
X98820000Y-60715000D02*
X98820000Y-70785000D01*
X98860000Y-60710000D02*
X98860000Y-70790000D01*
X98900000Y-60705000D02*
X98900000Y-70795000D01*
X98940000Y-60700000D02*
X98940000Y-70800000D01*
X98980000Y-60696000D02*
X98980000Y-70804000D01*
X99020000Y-60692000D02*
X99020000Y-70808000D01*
X99060000Y-60688000D02*
X99060000Y-70812000D01*
X99100000Y-60685000D02*
X99100000Y-70815000D01*
X99140000Y-60682000D02*
X99140000Y-70818000D01*
X99180000Y-60680000D02*
X99180000Y-70820000D01*
X99220000Y-60677000D02*
X99220000Y-70823000D01*
X99260000Y-60675000D02*
X99260000Y-70825000D01*
X99300000Y-60673000D02*
X99300000Y-70827000D01*
X99340000Y-60672000D02*
X99340000Y-70828000D01*
X99380000Y-60671000D02*
X99380000Y-70829000D01*
X99420000Y-60670000D02*
X99420000Y-70830000D01*
X99460000Y-60670000D02*
X99460000Y-70830000D01*
X99500000Y-60670000D02*
X99500000Y-70830000D01*
X104462540Y-67010000D02*
G75*
G02*
X104462540Y-64490000I-4962540J1260000D01*
G01*
%TO.C,C23*%
X117761252Y-76735000D02*
X117238748Y-76735000D01*
X117761252Y-75265000D02*
X117238748Y-75265000D01*
%TO.C,C22*%
X137488748Y-80015000D02*
X138011252Y-80015000D01*
X137488748Y-81485000D02*
X138011252Y-81485000D01*
%TO.C,C21*%
X104479646Y-67375000D02*
X104479646Y-68375000D01*
X104979646Y-67875000D02*
X103979646Y-67875000D01*
X94419000Y-70151000D02*
X94419000Y-71349000D01*
X94459000Y-69888000D02*
X94459000Y-71612000D01*
X94499000Y-69688000D02*
X94499000Y-71812000D01*
X94579000Y-71991000D02*
X94579000Y-72128000D01*
X94579000Y-69372000D02*
X94579000Y-69509000D01*
X94619000Y-71991000D02*
X94619000Y-72260000D01*
X94619000Y-69240000D02*
X94619000Y-69509000D01*
X94659000Y-71991000D02*
X94659000Y-72380000D01*
X94659000Y-69120000D02*
X94659000Y-69509000D01*
X94699000Y-71991000D02*
X94699000Y-72492000D01*
X94699000Y-69008000D02*
X94699000Y-69509000D01*
X94739000Y-71991000D02*
X94739000Y-72596000D01*
X94739000Y-68904000D02*
X94739000Y-69509000D01*
X94779000Y-71991000D02*
X94779000Y-72694000D01*
X94779000Y-68806000D02*
X94779000Y-69509000D01*
X94819000Y-71991000D02*
X94819000Y-72787000D01*
X94819000Y-68713000D02*
X94819000Y-69509000D01*
X94859000Y-71991000D02*
X94859000Y-72875000D01*
X94859000Y-68625000D02*
X94859000Y-69509000D01*
X94899000Y-71991000D02*
X94899000Y-72959000D01*
X94899000Y-68541000D02*
X94899000Y-69509000D01*
X94939000Y-71991000D02*
X94939000Y-73039000D01*
X94939000Y-68461000D02*
X94939000Y-69509000D01*
X94979000Y-71991000D02*
X94979000Y-73115000D01*
X94979000Y-68385000D02*
X94979000Y-69509000D01*
X95019000Y-71991000D02*
X95019000Y-73189000D01*
X95019000Y-68311000D02*
X95019000Y-69509000D01*
X95059000Y-71991000D02*
X95059000Y-73260000D01*
X95059000Y-68240000D02*
X95059000Y-69509000D01*
X95099000Y-71991000D02*
X95099000Y-73329000D01*
X95099000Y-68171000D02*
X95099000Y-69509000D01*
X95139000Y-71991000D02*
X95139000Y-73395000D01*
X95139000Y-68105000D02*
X95139000Y-69509000D01*
X95179000Y-71991000D02*
X95179000Y-73459000D01*
X95179000Y-68041000D02*
X95179000Y-69509000D01*
X95219000Y-71991000D02*
X95219000Y-73520000D01*
X95219000Y-67980000D02*
X95219000Y-69509000D01*
X95259000Y-71991000D02*
X95259000Y-73580000D01*
X95259000Y-67920000D02*
X95259000Y-69509000D01*
X95299000Y-71991000D02*
X95299000Y-73639000D01*
X95299000Y-67861000D02*
X95299000Y-69509000D01*
X95339000Y-71991000D02*
X95339000Y-73695000D01*
X95339000Y-67805000D02*
X95339000Y-69509000D01*
X95379000Y-71991000D02*
X95379000Y-73750000D01*
X95379000Y-67750000D02*
X95379000Y-69509000D01*
X95419000Y-71991000D02*
X95419000Y-73804000D01*
X95419000Y-67696000D02*
X95419000Y-69509000D01*
X95459000Y-71991000D02*
X95459000Y-73856000D01*
X95459000Y-67644000D02*
X95459000Y-69509000D01*
X95499000Y-71991000D02*
X95499000Y-73906000D01*
X95499000Y-67594000D02*
X95499000Y-69509000D01*
X95539000Y-71991000D02*
X95539000Y-73956000D01*
X95539000Y-67544000D02*
X95539000Y-69509000D01*
X95579000Y-71991000D02*
X95579000Y-74004000D01*
X95579000Y-67496000D02*
X95579000Y-69509000D01*
X95619000Y-71991000D02*
X95619000Y-74051000D01*
X95619000Y-67449000D02*
X95619000Y-69509000D01*
X95659000Y-71991000D02*
X95659000Y-74097000D01*
X95659000Y-67403000D02*
X95659000Y-69509000D01*
X95699000Y-71991000D02*
X95699000Y-74142000D01*
X95699000Y-67358000D02*
X95699000Y-69509000D01*
X95739000Y-71991000D02*
X95739000Y-74186000D01*
X95739000Y-67314000D02*
X95739000Y-69509000D01*
X95779000Y-71991000D02*
X95779000Y-74228000D01*
X95779000Y-67272000D02*
X95779000Y-69509000D01*
X95819000Y-71991000D02*
X95819000Y-74270000D01*
X95819000Y-67230000D02*
X95819000Y-69509000D01*
X95859000Y-71991000D02*
X95859000Y-74311000D01*
X95859000Y-67189000D02*
X95859000Y-69509000D01*
X95899000Y-71991000D02*
X95899000Y-74351000D01*
X95899000Y-67149000D02*
X95899000Y-69509000D01*
X95939000Y-71991000D02*
X95939000Y-74390000D01*
X95939000Y-67110000D02*
X95939000Y-69509000D01*
X95979000Y-71991000D02*
X95979000Y-74429000D01*
X95979000Y-67071000D02*
X95979000Y-69509000D01*
X96019000Y-71991000D02*
X96019000Y-74466000D01*
X96019000Y-67034000D02*
X96019000Y-69509000D01*
X96059000Y-71991000D02*
X96059000Y-74503000D01*
X96059000Y-66997000D02*
X96059000Y-69509000D01*
X96099000Y-71991000D02*
X96099000Y-74539000D01*
X96099000Y-66961000D02*
X96099000Y-69509000D01*
X96139000Y-71991000D02*
X96139000Y-74574000D01*
X96139000Y-66926000D02*
X96139000Y-69509000D01*
X96179000Y-71991000D02*
X96179000Y-74608000D01*
X96179000Y-66892000D02*
X96179000Y-69509000D01*
X96219000Y-71991000D02*
X96219000Y-74642000D01*
X96219000Y-66858000D02*
X96219000Y-69509000D01*
X96259000Y-71991000D02*
X96259000Y-74675000D01*
X96259000Y-66825000D02*
X96259000Y-69509000D01*
X96299000Y-71991000D02*
X96299000Y-74707000D01*
X96299000Y-66793000D02*
X96299000Y-69509000D01*
X96339000Y-71991000D02*
X96339000Y-74739000D01*
X96339000Y-66761000D02*
X96339000Y-69509000D01*
X96379000Y-71991000D02*
X96379000Y-74770000D01*
X96379000Y-66730000D02*
X96379000Y-69509000D01*
X96419000Y-71991000D02*
X96419000Y-74800000D01*
X96419000Y-66700000D02*
X96419000Y-69509000D01*
X96459000Y-71991000D02*
X96459000Y-74830000D01*
X96459000Y-66670000D02*
X96459000Y-69509000D01*
X96499000Y-71991000D02*
X96499000Y-74860000D01*
X96499000Y-66640000D02*
X96499000Y-69509000D01*
X96539000Y-71991000D02*
X96539000Y-74888000D01*
X96539000Y-66612000D02*
X96539000Y-69509000D01*
X96579000Y-71991000D02*
X96579000Y-74916000D01*
X96579000Y-66584000D02*
X96579000Y-69509000D01*
X96619000Y-71991000D02*
X96619000Y-74944000D01*
X96619000Y-66556000D02*
X96619000Y-69509000D01*
X96659000Y-71991000D02*
X96659000Y-74971000D01*
X96659000Y-66529000D02*
X96659000Y-69509000D01*
X96699000Y-71991000D02*
X96699000Y-74997000D01*
X96699000Y-66503000D02*
X96699000Y-69509000D01*
X96739000Y-71991000D02*
X96739000Y-75023000D01*
X96739000Y-66477000D02*
X96739000Y-69509000D01*
X96779000Y-71991000D02*
X96779000Y-75048000D01*
X96779000Y-66452000D02*
X96779000Y-69509000D01*
X96819000Y-71991000D02*
X96819000Y-75073000D01*
X96819000Y-66427000D02*
X96819000Y-69509000D01*
X96859000Y-71991000D02*
X96859000Y-75097000D01*
X96859000Y-66403000D02*
X96859000Y-69509000D01*
X96899000Y-71991000D02*
X96899000Y-75121000D01*
X96899000Y-66379000D02*
X96899000Y-69509000D01*
X96939000Y-71991000D02*
X96939000Y-75145000D01*
X96939000Y-66355000D02*
X96939000Y-69509000D01*
X96979000Y-71991000D02*
X96979000Y-75167000D01*
X96979000Y-66333000D02*
X96979000Y-69509000D01*
X97019000Y-66310000D02*
X97019000Y-75190000D01*
X97059000Y-66288000D02*
X97059000Y-75212000D01*
X97099000Y-66267000D02*
X97099000Y-75233000D01*
X97139000Y-66246000D02*
X97139000Y-75254000D01*
X97179000Y-66225000D02*
X97179000Y-75275000D01*
X97219000Y-66205000D02*
X97219000Y-75295000D01*
X97259000Y-66186000D02*
X97259000Y-75314000D01*
X97299000Y-66166000D02*
X97299000Y-75334000D01*
X97339000Y-66147000D02*
X97339000Y-75353000D01*
X97379000Y-66129000D02*
X97379000Y-75371000D01*
X97419000Y-66111000D02*
X97419000Y-75389000D01*
X97459000Y-66093000D02*
X97459000Y-75407000D01*
X97499000Y-66076000D02*
X97499000Y-75424000D01*
X97539000Y-66060000D02*
X97539000Y-75440000D01*
X97579000Y-66043000D02*
X97579000Y-75457000D01*
X97619000Y-66027000D02*
X97619000Y-75473000D01*
X97659000Y-66012000D02*
X97659000Y-75488000D01*
X97699000Y-65996000D02*
X97699000Y-75504000D01*
X97739000Y-65982000D02*
X97739000Y-75518000D01*
X97779000Y-65967000D02*
X97779000Y-75533000D01*
X97819000Y-65953000D02*
X97819000Y-75547000D01*
X97859000Y-65939000D02*
X97859000Y-75561000D01*
X97899000Y-65926000D02*
X97899000Y-75574000D01*
X97939000Y-65913000D02*
X97939000Y-75587000D01*
X97979000Y-65900000D02*
X97979000Y-75600000D01*
X98019000Y-65888000D02*
X98019000Y-75612000D01*
X98059000Y-65876000D02*
X98059000Y-75624000D01*
X98099000Y-65865000D02*
X98099000Y-75635000D01*
X98139000Y-65853000D02*
X98139000Y-75647000D01*
X98179000Y-65843000D02*
X98179000Y-75657000D01*
X98219000Y-65832000D02*
X98219000Y-75668000D01*
X98259000Y-65822000D02*
X98259000Y-75678000D01*
X98299000Y-65812000D02*
X98299000Y-75688000D01*
X98339000Y-65803000D02*
X98339000Y-75697000D01*
X98379000Y-65794000D02*
X98379000Y-75706000D01*
X98419000Y-65785000D02*
X98419000Y-75715000D01*
X98459000Y-65776000D02*
X98459000Y-75724000D01*
X98499000Y-65768000D02*
X98499000Y-75732000D01*
X98539000Y-65760000D02*
X98539000Y-75740000D01*
X98579000Y-65753000D02*
X98579000Y-75747000D01*
X98619000Y-65746000D02*
X98619000Y-75754000D01*
X98659000Y-65739000D02*
X98659000Y-75761000D01*
X98699000Y-65732000D02*
X98699000Y-75768000D01*
X98739000Y-65726000D02*
X98739000Y-75774000D01*
X98779000Y-65720000D02*
X98779000Y-75780000D01*
X98820000Y-65715000D02*
X98820000Y-75785000D01*
X98860000Y-65710000D02*
X98860000Y-75790000D01*
X98900000Y-65705000D02*
X98900000Y-75795000D01*
X98940000Y-65700000D02*
X98940000Y-75800000D01*
X98980000Y-65696000D02*
X98980000Y-75804000D01*
X99020000Y-65692000D02*
X99020000Y-75808000D01*
X99060000Y-65688000D02*
X99060000Y-75812000D01*
X99100000Y-65685000D02*
X99100000Y-75815000D01*
X99140000Y-65682000D02*
X99140000Y-75818000D01*
X99180000Y-65680000D02*
X99180000Y-75820000D01*
X99220000Y-65677000D02*
X99220000Y-75823000D01*
X99260000Y-65675000D02*
X99260000Y-75825000D01*
X99300000Y-65673000D02*
X99300000Y-75827000D01*
X99340000Y-65672000D02*
X99340000Y-75828000D01*
X99380000Y-65671000D02*
X99380000Y-75829000D01*
X99420000Y-65670000D02*
X99420000Y-75830000D01*
X99460000Y-65670000D02*
X99460000Y-75830000D01*
X99500000Y-65670000D02*
X99500000Y-75830000D01*
X104462540Y-72010000D02*
G75*
G02*
X104462540Y-69490000I-4962540J1260000D01*
G01*
%TO.C,C19*%
X105625000Y-74770354D02*
X106625000Y-74770354D01*
X106125000Y-74270354D02*
X106125000Y-75270354D01*
X108401000Y-84831000D02*
X109599000Y-84831000D01*
X108138000Y-84791000D02*
X109862000Y-84791000D01*
X107938000Y-84751000D02*
X110062000Y-84751000D01*
X110241000Y-84671000D02*
X110378000Y-84671000D01*
X107622000Y-84671000D02*
X107759000Y-84671000D01*
X110241000Y-84631000D02*
X110510000Y-84631000D01*
X107490000Y-84631000D02*
X107759000Y-84631000D01*
X110241000Y-84591000D02*
X110630000Y-84591000D01*
X107370000Y-84591000D02*
X107759000Y-84591000D01*
X110241000Y-84551000D02*
X110742000Y-84551000D01*
X107258000Y-84551000D02*
X107759000Y-84551000D01*
X110241000Y-84511000D02*
X110846000Y-84511000D01*
X107154000Y-84511000D02*
X107759000Y-84511000D01*
X110241000Y-84471000D02*
X110944000Y-84471000D01*
X107056000Y-84471000D02*
X107759000Y-84471000D01*
X110241000Y-84431000D02*
X111037000Y-84431000D01*
X106963000Y-84431000D02*
X107759000Y-84431000D01*
X110241000Y-84391000D02*
X111125000Y-84391000D01*
X106875000Y-84391000D02*
X107759000Y-84391000D01*
X110241000Y-84351000D02*
X111209000Y-84351000D01*
X106791000Y-84351000D02*
X107759000Y-84351000D01*
X110241000Y-84311000D02*
X111289000Y-84311000D01*
X106711000Y-84311000D02*
X107759000Y-84311000D01*
X110241000Y-84271000D02*
X111365000Y-84271000D01*
X106635000Y-84271000D02*
X107759000Y-84271000D01*
X110241000Y-84231000D02*
X111439000Y-84231000D01*
X106561000Y-84231000D02*
X107759000Y-84231000D01*
X110241000Y-84191000D02*
X111510000Y-84191000D01*
X106490000Y-84191000D02*
X107759000Y-84191000D01*
X110241000Y-84151000D02*
X111579000Y-84151000D01*
X106421000Y-84151000D02*
X107759000Y-84151000D01*
X110241000Y-84111000D02*
X111645000Y-84111000D01*
X106355000Y-84111000D02*
X107759000Y-84111000D01*
X110241000Y-84071000D02*
X111709000Y-84071000D01*
X106291000Y-84071000D02*
X107759000Y-84071000D01*
X110241000Y-84031000D02*
X111770000Y-84031000D01*
X106230000Y-84031000D02*
X107759000Y-84031000D01*
X110241000Y-83991000D02*
X111830000Y-83991000D01*
X106170000Y-83991000D02*
X107759000Y-83991000D01*
X110241000Y-83951000D02*
X111889000Y-83951000D01*
X106111000Y-83951000D02*
X107759000Y-83951000D01*
X110241000Y-83911000D02*
X111945000Y-83911000D01*
X106055000Y-83911000D02*
X107759000Y-83911000D01*
X110241000Y-83871000D02*
X112000000Y-83871000D01*
X106000000Y-83871000D02*
X107759000Y-83871000D01*
X110241000Y-83831000D02*
X112054000Y-83831000D01*
X105946000Y-83831000D02*
X107759000Y-83831000D01*
X110241000Y-83791000D02*
X112106000Y-83791000D01*
X105894000Y-83791000D02*
X107759000Y-83791000D01*
X110241000Y-83751000D02*
X112156000Y-83751000D01*
X105844000Y-83751000D02*
X107759000Y-83751000D01*
X110241000Y-83711000D02*
X112206000Y-83711000D01*
X105794000Y-83711000D02*
X107759000Y-83711000D01*
X110241000Y-83671000D02*
X112254000Y-83671000D01*
X105746000Y-83671000D02*
X107759000Y-83671000D01*
X110241000Y-83631000D02*
X112301000Y-83631000D01*
X105699000Y-83631000D02*
X107759000Y-83631000D01*
X110241000Y-83591000D02*
X112347000Y-83591000D01*
X105653000Y-83591000D02*
X107759000Y-83591000D01*
X110241000Y-83551000D02*
X112392000Y-83551000D01*
X105608000Y-83551000D02*
X107759000Y-83551000D01*
X110241000Y-83511000D02*
X112436000Y-83511000D01*
X105564000Y-83511000D02*
X107759000Y-83511000D01*
X110241000Y-83471000D02*
X112478000Y-83471000D01*
X105522000Y-83471000D02*
X107759000Y-83471000D01*
X110241000Y-83431000D02*
X112520000Y-83431000D01*
X105480000Y-83431000D02*
X107759000Y-83431000D01*
X110241000Y-83391000D02*
X112561000Y-83391000D01*
X105439000Y-83391000D02*
X107759000Y-83391000D01*
X110241000Y-83351000D02*
X112601000Y-83351000D01*
X105399000Y-83351000D02*
X107759000Y-83351000D01*
X110241000Y-83311000D02*
X112640000Y-83311000D01*
X105360000Y-83311000D02*
X107759000Y-83311000D01*
X110241000Y-83271000D02*
X112679000Y-83271000D01*
X105321000Y-83271000D02*
X107759000Y-83271000D01*
X110241000Y-83231000D02*
X112716000Y-83231000D01*
X105284000Y-83231000D02*
X107759000Y-83231000D01*
X110241000Y-83191000D02*
X112753000Y-83191000D01*
X105247000Y-83191000D02*
X107759000Y-83191000D01*
X110241000Y-83151000D02*
X112789000Y-83151000D01*
X105211000Y-83151000D02*
X107759000Y-83151000D01*
X110241000Y-83111000D02*
X112824000Y-83111000D01*
X105176000Y-83111000D02*
X107759000Y-83111000D01*
X110241000Y-83071000D02*
X112858000Y-83071000D01*
X105142000Y-83071000D02*
X107759000Y-83071000D01*
X110241000Y-83031000D02*
X112892000Y-83031000D01*
X105108000Y-83031000D02*
X107759000Y-83031000D01*
X110241000Y-82991000D02*
X112925000Y-82991000D01*
X105075000Y-82991000D02*
X107759000Y-82991000D01*
X110241000Y-82951000D02*
X112957000Y-82951000D01*
X105043000Y-82951000D02*
X107759000Y-82951000D01*
X110241000Y-82911000D02*
X112989000Y-82911000D01*
X105011000Y-82911000D02*
X107759000Y-82911000D01*
X110241000Y-82871000D02*
X113020000Y-82871000D01*
X104980000Y-82871000D02*
X107759000Y-82871000D01*
X110241000Y-82831000D02*
X113050000Y-82831000D01*
X104950000Y-82831000D02*
X107759000Y-82831000D01*
X110241000Y-82791000D02*
X113080000Y-82791000D01*
X104920000Y-82791000D02*
X107759000Y-82791000D01*
X110241000Y-82751000D02*
X113110000Y-82751000D01*
X104890000Y-82751000D02*
X107759000Y-82751000D01*
X110241000Y-82711000D02*
X113138000Y-82711000D01*
X104862000Y-82711000D02*
X107759000Y-82711000D01*
X110241000Y-82671000D02*
X113166000Y-82671000D01*
X104834000Y-82671000D02*
X107759000Y-82671000D01*
X110241000Y-82631000D02*
X113194000Y-82631000D01*
X104806000Y-82631000D02*
X107759000Y-82631000D01*
X110241000Y-82591000D02*
X113221000Y-82591000D01*
X104779000Y-82591000D02*
X107759000Y-82591000D01*
X110241000Y-82551000D02*
X113247000Y-82551000D01*
X104753000Y-82551000D02*
X107759000Y-82551000D01*
X110241000Y-82511000D02*
X113273000Y-82511000D01*
X104727000Y-82511000D02*
X107759000Y-82511000D01*
X110241000Y-82471000D02*
X113298000Y-82471000D01*
X104702000Y-82471000D02*
X107759000Y-82471000D01*
X110241000Y-82431000D02*
X113323000Y-82431000D01*
X104677000Y-82431000D02*
X107759000Y-82431000D01*
X110241000Y-82391000D02*
X113347000Y-82391000D01*
X104653000Y-82391000D02*
X107759000Y-82391000D01*
X110241000Y-82351000D02*
X113371000Y-82351000D01*
X104629000Y-82351000D02*
X107759000Y-82351000D01*
X110241000Y-82311000D02*
X113395000Y-82311000D01*
X104605000Y-82311000D02*
X107759000Y-82311000D01*
X110241000Y-82271000D02*
X113417000Y-82271000D01*
X104583000Y-82271000D02*
X107759000Y-82271000D01*
X104560000Y-82231000D02*
X113440000Y-82231000D01*
X104538000Y-82191000D02*
X113462000Y-82191000D01*
X104517000Y-82151000D02*
X113483000Y-82151000D01*
X104496000Y-82111000D02*
X113504000Y-82111000D01*
X104475000Y-82071000D02*
X113525000Y-82071000D01*
X104455000Y-82031000D02*
X113545000Y-82031000D01*
X104436000Y-81991000D02*
X113564000Y-81991000D01*
X104416000Y-81951000D02*
X113584000Y-81951000D01*
X104397000Y-81911000D02*
X113603000Y-81911000D01*
X104379000Y-81871000D02*
X113621000Y-81871000D01*
X104361000Y-81831000D02*
X113639000Y-81831000D01*
X104343000Y-81791000D02*
X113657000Y-81791000D01*
X104326000Y-81751000D02*
X113674000Y-81751000D01*
X104310000Y-81711000D02*
X113690000Y-81711000D01*
X104293000Y-81671000D02*
X113707000Y-81671000D01*
X104277000Y-81631000D02*
X113723000Y-81631000D01*
X104262000Y-81591000D02*
X113738000Y-81591000D01*
X104246000Y-81551000D02*
X113754000Y-81551000D01*
X104232000Y-81511000D02*
X113768000Y-81511000D01*
X104217000Y-81471000D02*
X113783000Y-81471000D01*
X104203000Y-81431000D02*
X113797000Y-81431000D01*
X104189000Y-81391000D02*
X113811000Y-81391000D01*
X104176000Y-81351000D02*
X113824000Y-81351000D01*
X104163000Y-81311000D02*
X113837000Y-81311000D01*
X104150000Y-81271000D02*
X113850000Y-81271000D01*
X104138000Y-81231000D02*
X113862000Y-81231000D01*
X104126000Y-81191000D02*
X113874000Y-81191000D01*
X104115000Y-81151000D02*
X113885000Y-81151000D01*
X104103000Y-81111000D02*
X113897000Y-81111000D01*
X104093000Y-81071000D02*
X113907000Y-81071000D01*
X104082000Y-81031000D02*
X113918000Y-81031000D01*
X104072000Y-80991000D02*
X113928000Y-80991000D01*
X104062000Y-80951000D02*
X113938000Y-80951000D01*
X104053000Y-80911000D02*
X113947000Y-80911000D01*
X104044000Y-80871000D02*
X113956000Y-80871000D01*
X104035000Y-80831000D02*
X113965000Y-80831000D01*
X104026000Y-80791000D02*
X113974000Y-80791000D01*
X104018000Y-80751000D02*
X113982000Y-80751000D01*
X104010000Y-80711000D02*
X113990000Y-80711000D01*
X104003000Y-80671000D02*
X113997000Y-80671000D01*
X103996000Y-80631000D02*
X114004000Y-80631000D01*
X103989000Y-80591000D02*
X114011000Y-80591000D01*
X103982000Y-80551000D02*
X114018000Y-80551000D01*
X103976000Y-80511000D02*
X114024000Y-80511000D01*
X103970000Y-80471000D02*
X114030000Y-80471000D01*
X103965000Y-80430000D02*
X114035000Y-80430000D01*
X103960000Y-80390000D02*
X114040000Y-80390000D01*
X103955000Y-80350000D02*
X114045000Y-80350000D01*
X103950000Y-80310000D02*
X114050000Y-80310000D01*
X103946000Y-80270000D02*
X114054000Y-80270000D01*
X103942000Y-80230000D02*
X114058000Y-80230000D01*
X103938000Y-80190000D02*
X114062000Y-80190000D01*
X103935000Y-80150000D02*
X114065000Y-80150000D01*
X103932000Y-80110000D02*
X114068000Y-80110000D01*
X103930000Y-80070000D02*
X114070000Y-80070000D01*
X103927000Y-80030000D02*
X114073000Y-80030000D01*
X103925000Y-79990000D02*
X114075000Y-79990000D01*
X103923000Y-79950000D02*
X114077000Y-79950000D01*
X103922000Y-79910000D02*
X114078000Y-79910000D01*
X103921000Y-79870000D02*
X114079000Y-79870000D01*
X103920000Y-79830000D02*
X114080000Y-79830000D01*
X103920000Y-79790000D02*
X114080000Y-79790000D01*
X103920000Y-79750000D02*
X114080000Y-79750000D01*
X110260000Y-74787460D02*
G75*
G02*
X107740000Y-74787460I-1260000J-4962540D01*
G01*
%TO.C,C18*%
X84020354Y-69125000D02*
X84020354Y-68125000D01*
X83520354Y-68625000D02*
X84520354Y-68625000D01*
X94081000Y-66349000D02*
X94081000Y-65151000D01*
X94041000Y-66612000D02*
X94041000Y-64888000D01*
X94001000Y-66812000D02*
X94001000Y-64688000D01*
X93921000Y-64509000D02*
X93921000Y-64372000D01*
X93921000Y-67128000D02*
X93921000Y-66991000D01*
X93881000Y-64509000D02*
X93881000Y-64240000D01*
X93881000Y-67260000D02*
X93881000Y-66991000D01*
X93841000Y-64509000D02*
X93841000Y-64120000D01*
X93841000Y-67380000D02*
X93841000Y-66991000D01*
X93801000Y-64509000D02*
X93801000Y-64008000D01*
X93801000Y-67492000D02*
X93801000Y-66991000D01*
X93761000Y-64509000D02*
X93761000Y-63904000D01*
X93761000Y-67596000D02*
X93761000Y-66991000D01*
X93721000Y-64509000D02*
X93721000Y-63806000D01*
X93721000Y-67694000D02*
X93721000Y-66991000D01*
X93681000Y-64509000D02*
X93681000Y-63713000D01*
X93681000Y-67787000D02*
X93681000Y-66991000D01*
X93641000Y-64509000D02*
X93641000Y-63625000D01*
X93641000Y-67875000D02*
X93641000Y-66991000D01*
X93601000Y-64509000D02*
X93601000Y-63541000D01*
X93601000Y-67959000D02*
X93601000Y-66991000D01*
X93561000Y-64509000D02*
X93561000Y-63461000D01*
X93561000Y-68039000D02*
X93561000Y-66991000D01*
X93521000Y-64509000D02*
X93521000Y-63385000D01*
X93521000Y-68115000D02*
X93521000Y-66991000D01*
X93481000Y-64509000D02*
X93481000Y-63311000D01*
X93481000Y-68189000D02*
X93481000Y-66991000D01*
X93441000Y-64509000D02*
X93441000Y-63240000D01*
X93441000Y-68260000D02*
X93441000Y-66991000D01*
X93401000Y-64509000D02*
X93401000Y-63171000D01*
X93401000Y-68329000D02*
X93401000Y-66991000D01*
X93361000Y-64509000D02*
X93361000Y-63105000D01*
X93361000Y-68395000D02*
X93361000Y-66991000D01*
X93321000Y-64509000D02*
X93321000Y-63041000D01*
X93321000Y-68459000D02*
X93321000Y-66991000D01*
X93281000Y-64509000D02*
X93281000Y-62980000D01*
X93281000Y-68520000D02*
X93281000Y-66991000D01*
X93241000Y-64509000D02*
X93241000Y-62920000D01*
X93241000Y-68580000D02*
X93241000Y-66991000D01*
X93201000Y-64509000D02*
X93201000Y-62861000D01*
X93201000Y-68639000D02*
X93201000Y-66991000D01*
X93161000Y-64509000D02*
X93161000Y-62805000D01*
X93161000Y-68695000D02*
X93161000Y-66991000D01*
X93121000Y-64509000D02*
X93121000Y-62750000D01*
X93121000Y-68750000D02*
X93121000Y-66991000D01*
X93081000Y-64509000D02*
X93081000Y-62696000D01*
X93081000Y-68804000D02*
X93081000Y-66991000D01*
X93041000Y-64509000D02*
X93041000Y-62644000D01*
X93041000Y-68856000D02*
X93041000Y-66991000D01*
X93001000Y-64509000D02*
X93001000Y-62594000D01*
X93001000Y-68906000D02*
X93001000Y-66991000D01*
X92961000Y-64509000D02*
X92961000Y-62544000D01*
X92961000Y-68956000D02*
X92961000Y-66991000D01*
X92921000Y-64509000D02*
X92921000Y-62496000D01*
X92921000Y-69004000D02*
X92921000Y-66991000D01*
X92881000Y-64509000D02*
X92881000Y-62449000D01*
X92881000Y-69051000D02*
X92881000Y-66991000D01*
X92841000Y-64509000D02*
X92841000Y-62403000D01*
X92841000Y-69097000D02*
X92841000Y-66991000D01*
X92801000Y-64509000D02*
X92801000Y-62358000D01*
X92801000Y-69142000D02*
X92801000Y-66991000D01*
X92761000Y-64509000D02*
X92761000Y-62314000D01*
X92761000Y-69186000D02*
X92761000Y-66991000D01*
X92721000Y-64509000D02*
X92721000Y-62272000D01*
X92721000Y-69228000D02*
X92721000Y-66991000D01*
X92681000Y-64509000D02*
X92681000Y-62230000D01*
X92681000Y-69270000D02*
X92681000Y-66991000D01*
X92641000Y-64509000D02*
X92641000Y-62189000D01*
X92641000Y-69311000D02*
X92641000Y-66991000D01*
X92601000Y-64509000D02*
X92601000Y-62149000D01*
X92601000Y-69351000D02*
X92601000Y-66991000D01*
X92561000Y-64509000D02*
X92561000Y-62110000D01*
X92561000Y-69390000D02*
X92561000Y-66991000D01*
X92521000Y-64509000D02*
X92521000Y-62071000D01*
X92521000Y-69429000D02*
X92521000Y-66991000D01*
X92481000Y-64509000D02*
X92481000Y-62034000D01*
X92481000Y-69466000D02*
X92481000Y-66991000D01*
X92441000Y-64509000D02*
X92441000Y-61997000D01*
X92441000Y-69503000D02*
X92441000Y-66991000D01*
X92401000Y-64509000D02*
X92401000Y-61961000D01*
X92401000Y-69539000D02*
X92401000Y-66991000D01*
X92361000Y-64509000D02*
X92361000Y-61926000D01*
X92361000Y-69574000D02*
X92361000Y-66991000D01*
X92321000Y-64509000D02*
X92321000Y-61892000D01*
X92321000Y-69608000D02*
X92321000Y-66991000D01*
X92281000Y-64509000D02*
X92281000Y-61858000D01*
X92281000Y-69642000D02*
X92281000Y-66991000D01*
X92241000Y-64509000D02*
X92241000Y-61825000D01*
X92241000Y-69675000D02*
X92241000Y-66991000D01*
X92201000Y-64509000D02*
X92201000Y-61793000D01*
X92201000Y-69707000D02*
X92201000Y-66991000D01*
X92161000Y-64509000D02*
X92161000Y-61761000D01*
X92161000Y-69739000D02*
X92161000Y-66991000D01*
X92121000Y-64509000D02*
X92121000Y-61730000D01*
X92121000Y-69770000D02*
X92121000Y-66991000D01*
X92081000Y-64509000D02*
X92081000Y-61700000D01*
X92081000Y-69800000D02*
X92081000Y-66991000D01*
X92041000Y-64509000D02*
X92041000Y-61670000D01*
X92041000Y-69830000D02*
X92041000Y-66991000D01*
X92001000Y-64509000D02*
X92001000Y-61640000D01*
X92001000Y-69860000D02*
X92001000Y-66991000D01*
X91961000Y-64509000D02*
X91961000Y-61612000D01*
X91961000Y-69888000D02*
X91961000Y-66991000D01*
X91921000Y-64509000D02*
X91921000Y-61584000D01*
X91921000Y-69916000D02*
X91921000Y-66991000D01*
X91881000Y-64509000D02*
X91881000Y-61556000D01*
X91881000Y-69944000D02*
X91881000Y-66991000D01*
X91841000Y-64509000D02*
X91841000Y-61529000D01*
X91841000Y-69971000D02*
X91841000Y-66991000D01*
X91801000Y-64509000D02*
X91801000Y-61503000D01*
X91801000Y-69997000D02*
X91801000Y-66991000D01*
X91761000Y-64509000D02*
X91761000Y-61477000D01*
X91761000Y-70023000D02*
X91761000Y-66991000D01*
X91721000Y-64509000D02*
X91721000Y-61452000D01*
X91721000Y-70048000D02*
X91721000Y-66991000D01*
X91681000Y-64509000D02*
X91681000Y-61427000D01*
X91681000Y-70073000D02*
X91681000Y-66991000D01*
X91641000Y-64509000D02*
X91641000Y-61403000D01*
X91641000Y-70097000D02*
X91641000Y-66991000D01*
X91601000Y-64509000D02*
X91601000Y-61379000D01*
X91601000Y-70121000D02*
X91601000Y-66991000D01*
X91561000Y-64509000D02*
X91561000Y-61355000D01*
X91561000Y-70145000D02*
X91561000Y-66991000D01*
X91521000Y-64509000D02*
X91521000Y-61333000D01*
X91521000Y-70167000D02*
X91521000Y-66991000D01*
X91481000Y-70190000D02*
X91481000Y-61310000D01*
X91441000Y-70212000D02*
X91441000Y-61288000D01*
X91401000Y-70233000D02*
X91401000Y-61267000D01*
X91361000Y-70254000D02*
X91361000Y-61246000D01*
X91321000Y-70275000D02*
X91321000Y-61225000D01*
X91281000Y-70295000D02*
X91281000Y-61205000D01*
X91241000Y-70314000D02*
X91241000Y-61186000D01*
X91201000Y-70334000D02*
X91201000Y-61166000D01*
X91161000Y-70353000D02*
X91161000Y-61147000D01*
X91121000Y-70371000D02*
X91121000Y-61129000D01*
X91081000Y-70389000D02*
X91081000Y-61111000D01*
X91041000Y-70407000D02*
X91041000Y-61093000D01*
X91001000Y-70424000D02*
X91001000Y-61076000D01*
X90961000Y-70440000D02*
X90961000Y-61060000D01*
X90921000Y-70457000D02*
X90921000Y-61043000D01*
X90881000Y-70473000D02*
X90881000Y-61027000D01*
X90841000Y-70488000D02*
X90841000Y-61012000D01*
X90801000Y-70504000D02*
X90801000Y-60996000D01*
X90761000Y-70518000D02*
X90761000Y-60982000D01*
X90721000Y-70533000D02*
X90721000Y-60967000D01*
X90681000Y-70547000D02*
X90681000Y-60953000D01*
X90641000Y-70561000D02*
X90641000Y-60939000D01*
X90601000Y-70574000D02*
X90601000Y-60926000D01*
X90561000Y-70587000D02*
X90561000Y-60913000D01*
X90521000Y-70600000D02*
X90521000Y-60900000D01*
X90481000Y-70612000D02*
X90481000Y-60888000D01*
X90441000Y-70624000D02*
X90441000Y-60876000D01*
X90401000Y-70635000D02*
X90401000Y-60865000D01*
X90361000Y-70647000D02*
X90361000Y-60853000D01*
X90321000Y-70657000D02*
X90321000Y-60843000D01*
X90281000Y-70668000D02*
X90281000Y-60832000D01*
X90241000Y-70678000D02*
X90241000Y-60822000D01*
X90201000Y-70688000D02*
X90201000Y-60812000D01*
X90161000Y-70697000D02*
X90161000Y-60803000D01*
X90121000Y-70706000D02*
X90121000Y-60794000D01*
X90081000Y-70715000D02*
X90081000Y-60785000D01*
X90041000Y-70724000D02*
X90041000Y-60776000D01*
X90001000Y-70732000D02*
X90001000Y-60768000D01*
X89961000Y-70740000D02*
X89961000Y-60760000D01*
X89921000Y-70747000D02*
X89921000Y-60753000D01*
X89881000Y-70754000D02*
X89881000Y-60746000D01*
X89841000Y-70761000D02*
X89841000Y-60739000D01*
X89801000Y-70768000D02*
X89801000Y-60732000D01*
X89761000Y-70774000D02*
X89761000Y-60726000D01*
X89721000Y-70780000D02*
X89721000Y-60720000D01*
X89680000Y-70785000D02*
X89680000Y-60715000D01*
X89640000Y-70790000D02*
X89640000Y-60710000D01*
X89600000Y-70795000D02*
X89600000Y-60705000D01*
X89560000Y-70800000D02*
X89560000Y-60700000D01*
X89520000Y-70804000D02*
X89520000Y-60696000D01*
X89480000Y-70808000D02*
X89480000Y-60692000D01*
X89440000Y-70812000D02*
X89440000Y-60688000D01*
X89400000Y-70815000D02*
X89400000Y-60685000D01*
X89360000Y-70818000D02*
X89360000Y-60682000D01*
X89320000Y-70820000D02*
X89320000Y-60680000D01*
X89280000Y-70823000D02*
X89280000Y-60677000D01*
X89240000Y-70825000D02*
X89240000Y-60675000D01*
X89200000Y-70827000D02*
X89200000Y-60673000D01*
X89160000Y-70828000D02*
X89160000Y-60672000D01*
X89120000Y-70829000D02*
X89120000Y-60671000D01*
X89080000Y-70830000D02*
X89080000Y-60670000D01*
X89040000Y-70830000D02*
X89040000Y-60670000D01*
X89000000Y-70830000D02*
X89000000Y-60670000D01*
X84037460Y-64490000D02*
G75*
G02*
X84037460Y-67010000I4962540J-1260000D01*
G01*
%TO.C,C15*%
X162488748Y-63015000D02*
X163011252Y-63015000D01*
X162488748Y-64485000D02*
X163011252Y-64485000D01*
%TO.C,C14*%
X166011252Y-64485000D02*
X165488748Y-64485000D01*
X166011252Y-63015000D02*
X165488748Y-63015000D01*
%TO.C,C12*%
X163988748Y-52515000D02*
X164511252Y-52515000D01*
X163988748Y-53985000D02*
X164511252Y-53985000D01*
%TO.C,C11*%
X165515000Y-57511252D02*
X165515000Y-56988748D01*
X166985000Y-57511252D02*
X166985000Y-56988748D01*
%TO.C,U5*%
D10*
X114452380Y-96238095D02*
X115261904Y-96238095D01*
X115357142Y-96285714D01*
X115404761Y-96333333D01*
X115452380Y-96428571D01*
X115452380Y-96619047D01*
X115404761Y-96714285D01*
X115357142Y-96761904D01*
X115261904Y-96809523D01*
X114452380Y-96809523D01*
X114452380Y-97761904D02*
X114452380Y-97285714D01*
X114928571Y-97238095D01*
X114880952Y-97285714D01*
X114833333Y-97380952D01*
X114833333Y-97619047D01*
X114880952Y-97714285D01*
X114928571Y-97761904D01*
X115023809Y-97809523D01*
X115261904Y-97809523D01*
X115357142Y-97761904D01*
X115404761Y-97714285D01*
X115452380Y-97619047D01*
X115452380Y-97380952D01*
X115404761Y-97285714D01*
X115357142Y-97238095D01*
%TO.C,K1*%
D17*
X95307380Y-88224523D02*
X95307380Y-86954523D01*
X94581666Y-88224523D02*
X95125952Y-87498809D01*
X94581666Y-86954523D02*
X95307380Y-87680238D01*
X93372142Y-88224523D02*
X94097857Y-88224523D01*
X93735000Y-88224523D02*
X93735000Y-86954523D01*
X93855952Y-87135952D01*
X93976904Y-87256904D01*
X94097857Y-87317380D01*
%TO.C,J13*%
D10*
X171962380Y-74440476D02*
X172676666Y-74440476D01*
X172819523Y-74392857D01*
X172914761Y-74297619D01*
X172962380Y-74154761D01*
X172962380Y-74059523D01*
X172962380Y-75440476D02*
X172962380Y-74869047D01*
X172962380Y-75154761D02*
X171962380Y-75154761D01*
X172105238Y-75059523D01*
X172200476Y-74964285D01*
X172248095Y-74869047D01*
X171962380Y-75773809D02*
X171962380Y-76392857D01*
X172343333Y-76059523D01*
X172343333Y-76202380D01*
X172390952Y-76297619D01*
X172438571Y-76345238D01*
X172533809Y-76392857D01*
X172771904Y-76392857D01*
X172867142Y-76345238D01*
X172914761Y-76297619D01*
X172962380Y-76202380D01*
X172962380Y-75916666D01*
X172914761Y-75821428D01*
X172867142Y-75773809D01*
%TO.C,J6*%
X71442380Y-67916666D02*
X72156666Y-67916666D01*
X72299523Y-67869047D01*
X72394761Y-67773809D01*
X72442380Y-67630952D01*
X72442380Y-67535714D01*
X71442380Y-68821428D02*
X71442380Y-68630952D01*
X71490000Y-68535714D01*
X71537619Y-68488095D01*
X71680476Y-68392857D01*
X71870952Y-68345238D01*
X72251904Y-68345238D01*
X72347142Y-68392857D01*
X72394761Y-68440476D01*
X72442380Y-68535714D01*
X72442380Y-68726190D01*
X72394761Y-68821428D01*
X72347142Y-68869047D01*
X72251904Y-68916666D01*
X72013809Y-68916666D01*
X71918571Y-68869047D01*
X71870952Y-68821428D01*
X71823333Y-68726190D01*
X71823333Y-68535714D01*
X71870952Y-68440476D01*
X71918571Y-68392857D01*
X72013809Y-68345238D01*
%TO.C,J5*%
X140583333Y-33942380D02*
X140583333Y-34656666D01*
X140630952Y-34799523D01*
X140726190Y-34894761D01*
X140869047Y-34942380D01*
X140964285Y-34942380D01*
X139630952Y-33942380D02*
X140107142Y-33942380D01*
X140154761Y-34418571D01*
X140107142Y-34370952D01*
X140011904Y-34323333D01*
X139773809Y-34323333D01*
X139678571Y-34370952D01*
X139630952Y-34418571D01*
X139583333Y-34513809D01*
X139583333Y-34751904D01*
X139630952Y-34847142D01*
X139678571Y-34894761D01*
X139773809Y-34942380D01*
X140011904Y-34942380D01*
X140107142Y-34894761D01*
X140154761Y-34847142D01*
%TO.C,J3*%
X95583333Y-33942380D02*
X95583333Y-34656666D01*
X95630952Y-34799523D01*
X95726190Y-34894761D01*
X95869047Y-34942380D01*
X95964285Y-34942380D01*
X95202380Y-33942380D02*
X94583333Y-33942380D01*
X94916666Y-34323333D01*
X94773809Y-34323333D01*
X94678571Y-34370952D01*
X94630952Y-34418571D01*
X94583333Y-34513809D01*
X94583333Y-34751904D01*
X94630952Y-34847142D01*
X94678571Y-34894761D01*
X94773809Y-34942380D01*
X95059523Y-34942380D01*
X95154761Y-34894761D01*
X95202380Y-34847142D01*
%TO.C,R31*%
X163632380Y-60607142D02*
X163156190Y-60273809D01*
X163632380Y-60035714D02*
X162632380Y-60035714D01*
X162632380Y-60416666D01*
X162680000Y-60511904D01*
X162727619Y-60559523D01*
X162822857Y-60607142D01*
X162965714Y-60607142D01*
X163060952Y-60559523D01*
X163108571Y-60511904D01*
X163156190Y-60416666D01*
X163156190Y-60035714D01*
X162632380Y-60940476D02*
X162632380Y-61559523D01*
X163013333Y-61226190D01*
X163013333Y-61369047D01*
X163060952Y-61464285D01*
X163108571Y-61511904D01*
X163203809Y-61559523D01*
X163441904Y-61559523D01*
X163537142Y-61511904D01*
X163584761Y-61464285D01*
X163632380Y-61369047D01*
X163632380Y-61083333D01*
X163584761Y-60988095D01*
X163537142Y-60940476D01*
X163632380Y-62511904D02*
X163632380Y-61940476D01*
X163632380Y-62226190D02*
X162632380Y-62226190D01*
X162775238Y-62130952D01*
X162870476Y-62035714D01*
X162918095Y-61940476D01*
%TO.C,R30*%
X168632380Y-60607142D02*
X168156190Y-60273809D01*
X168632380Y-60035714D02*
X167632380Y-60035714D01*
X167632380Y-60416666D01*
X167680000Y-60511904D01*
X167727619Y-60559523D01*
X167822857Y-60607142D01*
X167965714Y-60607142D01*
X168060952Y-60559523D01*
X168108571Y-60511904D01*
X168156190Y-60416666D01*
X168156190Y-60035714D01*
X167632380Y-60940476D02*
X167632380Y-61559523D01*
X168013333Y-61226190D01*
X168013333Y-61369047D01*
X168060952Y-61464285D01*
X168108571Y-61511904D01*
X168203809Y-61559523D01*
X168441904Y-61559523D01*
X168537142Y-61511904D01*
X168584761Y-61464285D01*
X168632380Y-61369047D01*
X168632380Y-61083333D01*
X168584761Y-60988095D01*
X168537142Y-60940476D01*
X167632380Y-62178571D02*
X167632380Y-62273809D01*
X167680000Y-62369047D01*
X167727619Y-62416666D01*
X167822857Y-62464285D01*
X168013333Y-62511904D01*
X168251428Y-62511904D01*
X168441904Y-62464285D01*
X168537142Y-62416666D01*
X168584761Y-62369047D01*
X168632380Y-62273809D01*
X168632380Y-62178571D01*
X168584761Y-62083333D01*
X168537142Y-62035714D01*
X168441904Y-61988095D01*
X168251428Y-61940476D01*
X168013333Y-61940476D01*
X167822857Y-61988095D01*
X167727619Y-62035714D01*
X167680000Y-62083333D01*
X167632380Y-62178571D01*
%TO.C,R29*%
X162272380Y-55107142D02*
X161796190Y-54773809D01*
X162272380Y-54535714D02*
X161272380Y-54535714D01*
X161272380Y-54916666D01*
X161320000Y-55011904D01*
X161367619Y-55059523D01*
X161462857Y-55107142D01*
X161605714Y-55107142D01*
X161700952Y-55059523D01*
X161748571Y-55011904D01*
X161796190Y-54916666D01*
X161796190Y-54535714D01*
X161367619Y-55488095D02*
X161320000Y-55535714D01*
X161272380Y-55630952D01*
X161272380Y-55869047D01*
X161320000Y-55964285D01*
X161367619Y-56011904D01*
X161462857Y-56059523D01*
X161558095Y-56059523D01*
X161700952Y-56011904D01*
X162272380Y-55440476D01*
X162272380Y-56059523D01*
X162272380Y-56535714D02*
X162272380Y-56726190D01*
X162224761Y-56821428D01*
X162177142Y-56869047D01*
X162034285Y-56964285D01*
X161843809Y-57011904D01*
X161462857Y-57011904D01*
X161367619Y-56964285D01*
X161320000Y-56916666D01*
X161272380Y-56821428D01*
X161272380Y-56630952D01*
X161320000Y-56535714D01*
X161367619Y-56488095D01*
X161462857Y-56440476D01*
X161700952Y-56440476D01*
X161796190Y-56488095D01*
X161843809Y-56535714D01*
X161891428Y-56630952D01*
X161891428Y-56821428D01*
X161843809Y-56916666D01*
X161796190Y-56964285D01*
X161700952Y-57011904D01*
%TO.C,R28*%
X118392857Y-79882380D02*
X118726190Y-79406190D01*
X118964285Y-79882380D02*
X118964285Y-78882380D01*
X118583333Y-78882380D01*
X118488095Y-78930000D01*
X118440476Y-78977619D01*
X118392857Y-79072857D01*
X118392857Y-79215714D01*
X118440476Y-79310952D01*
X118488095Y-79358571D01*
X118583333Y-79406190D01*
X118964285Y-79406190D01*
X118011904Y-78977619D02*
X117964285Y-78930000D01*
X117869047Y-78882380D01*
X117630952Y-78882380D01*
X117535714Y-78930000D01*
X117488095Y-78977619D01*
X117440476Y-79072857D01*
X117440476Y-79168095D01*
X117488095Y-79310952D01*
X118059523Y-79882380D01*
X117440476Y-79882380D01*
X116869047Y-79310952D02*
X116964285Y-79263333D01*
X117011904Y-79215714D01*
X117059523Y-79120476D01*
X117059523Y-79072857D01*
X117011904Y-78977619D01*
X116964285Y-78930000D01*
X116869047Y-78882380D01*
X116678571Y-78882380D01*
X116583333Y-78930000D01*
X116535714Y-78977619D01*
X116488095Y-79072857D01*
X116488095Y-79120476D01*
X116535714Y-79215714D01*
X116583333Y-79263333D01*
X116678571Y-79310952D01*
X116869047Y-79310952D01*
X116964285Y-79358571D01*
X117011904Y-79406190D01*
X117059523Y-79501428D01*
X117059523Y-79691904D01*
X117011904Y-79787142D01*
X116964285Y-79834761D01*
X116869047Y-79882380D01*
X116678571Y-79882380D01*
X116583333Y-79834761D01*
X116535714Y-79787142D01*
X116488095Y-79691904D01*
X116488095Y-79501428D01*
X116535714Y-79406190D01*
X116583333Y-79358571D01*
X116678571Y-79310952D01*
%TO.C,R27*%
X125952380Y-87857142D02*
X125476190Y-87523809D01*
X125952380Y-87285714D02*
X124952380Y-87285714D01*
X124952380Y-87666666D01*
X125000000Y-87761904D01*
X125047619Y-87809523D01*
X125142857Y-87857142D01*
X125285714Y-87857142D01*
X125380952Y-87809523D01*
X125428571Y-87761904D01*
X125476190Y-87666666D01*
X125476190Y-87285714D01*
X125047619Y-88238095D02*
X125000000Y-88285714D01*
X124952380Y-88380952D01*
X124952380Y-88619047D01*
X125000000Y-88714285D01*
X125047619Y-88761904D01*
X125142857Y-88809523D01*
X125238095Y-88809523D01*
X125380952Y-88761904D01*
X125952380Y-88190476D01*
X125952380Y-88809523D01*
X124952380Y-89142857D02*
X124952380Y-89809523D01*
X125952380Y-89380952D01*
%TO.C,R26*%
X154142857Y-73952380D02*
X154476190Y-73476190D01*
X154714285Y-73952380D02*
X154714285Y-72952380D01*
X154333333Y-72952380D01*
X154238095Y-73000000D01*
X154190476Y-73047619D01*
X154142857Y-73142857D01*
X154142857Y-73285714D01*
X154190476Y-73380952D01*
X154238095Y-73428571D01*
X154333333Y-73476190D01*
X154714285Y-73476190D01*
X153761904Y-73047619D02*
X153714285Y-73000000D01*
X153619047Y-72952380D01*
X153380952Y-72952380D01*
X153285714Y-73000000D01*
X153238095Y-73047619D01*
X153190476Y-73142857D01*
X153190476Y-73238095D01*
X153238095Y-73380952D01*
X153809523Y-73952380D01*
X153190476Y-73952380D01*
X152333333Y-72952380D02*
X152523809Y-72952380D01*
X152619047Y-73000000D01*
X152666666Y-73047619D01*
X152761904Y-73190476D01*
X152809523Y-73380952D01*
X152809523Y-73761904D01*
X152761904Y-73857142D01*
X152714285Y-73904761D01*
X152619047Y-73952380D01*
X152428571Y-73952380D01*
X152333333Y-73904761D01*
X152285714Y-73857142D01*
X152238095Y-73761904D01*
X152238095Y-73523809D01*
X152285714Y-73428571D01*
X152333333Y-73380952D01*
X152428571Y-73333333D01*
X152619047Y-73333333D01*
X152714285Y-73380952D01*
X152761904Y-73428571D01*
X152809523Y-73523809D01*
%TO.C,R25*%
X154142857Y-72702380D02*
X154476190Y-72226190D01*
X154714285Y-72702380D02*
X154714285Y-71702380D01*
X154333333Y-71702380D01*
X154238095Y-71750000D01*
X154190476Y-71797619D01*
X154142857Y-71892857D01*
X154142857Y-72035714D01*
X154190476Y-72130952D01*
X154238095Y-72178571D01*
X154333333Y-72226190D01*
X154714285Y-72226190D01*
X153761904Y-71797619D02*
X153714285Y-71750000D01*
X153619047Y-71702380D01*
X153380952Y-71702380D01*
X153285714Y-71750000D01*
X153238095Y-71797619D01*
X153190476Y-71892857D01*
X153190476Y-71988095D01*
X153238095Y-72130952D01*
X153809523Y-72702380D01*
X153190476Y-72702380D01*
X152285714Y-71702380D02*
X152761904Y-71702380D01*
X152809523Y-72178571D01*
X152761904Y-72130952D01*
X152666666Y-72083333D01*
X152428571Y-72083333D01*
X152333333Y-72130952D01*
X152285714Y-72178571D01*
X152238095Y-72273809D01*
X152238095Y-72511904D01*
X152285714Y-72607142D01*
X152333333Y-72654761D01*
X152428571Y-72702380D01*
X152666666Y-72702380D01*
X152761904Y-72654761D01*
X152809523Y-72607142D01*
%TO.C,R24*%
X130632380Y-88357142D02*
X130156190Y-88023809D01*
X130632380Y-87785714D02*
X129632380Y-87785714D01*
X129632380Y-88166666D01*
X129680000Y-88261904D01*
X129727619Y-88309523D01*
X129822857Y-88357142D01*
X129965714Y-88357142D01*
X130060952Y-88309523D01*
X130108571Y-88261904D01*
X130156190Y-88166666D01*
X130156190Y-87785714D01*
X129727619Y-88738095D02*
X129680000Y-88785714D01*
X129632380Y-88880952D01*
X129632380Y-89119047D01*
X129680000Y-89214285D01*
X129727619Y-89261904D01*
X129822857Y-89309523D01*
X129918095Y-89309523D01*
X130060952Y-89261904D01*
X130632380Y-88690476D01*
X130632380Y-89309523D01*
X129965714Y-90166666D02*
X130632380Y-90166666D01*
X129584761Y-89928571D02*
X130299047Y-89690476D01*
X130299047Y-90309523D01*
%TO.C,R23*%
X128882380Y-88357142D02*
X128406190Y-88023809D01*
X128882380Y-87785714D02*
X127882380Y-87785714D01*
X127882380Y-88166666D01*
X127930000Y-88261904D01*
X127977619Y-88309523D01*
X128072857Y-88357142D01*
X128215714Y-88357142D01*
X128310952Y-88309523D01*
X128358571Y-88261904D01*
X128406190Y-88166666D01*
X128406190Y-87785714D01*
X127977619Y-88738095D02*
X127930000Y-88785714D01*
X127882380Y-88880952D01*
X127882380Y-89119047D01*
X127930000Y-89214285D01*
X127977619Y-89261904D01*
X128072857Y-89309523D01*
X128168095Y-89309523D01*
X128310952Y-89261904D01*
X128882380Y-88690476D01*
X128882380Y-89309523D01*
X127882380Y-89642857D02*
X127882380Y-90261904D01*
X128263333Y-89928571D01*
X128263333Y-90071428D01*
X128310952Y-90166666D01*
X128358571Y-90214285D01*
X128453809Y-90261904D01*
X128691904Y-90261904D01*
X128787142Y-90214285D01*
X128834761Y-90166666D01*
X128882380Y-90071428D01*
X128882380Y-89785714D01*
X128834761Y-89690476D01*
X128787142Y-89642857D01*
%TO.C,U3*%
X127011904Y-81702380D02*
X127011904Y-82511904D01*
X126964285Y-82607142D01*
X126916666Y-82654761D01*
X126821428Y-82702380D01*
X126630952Y-82702380D01*
X126535714Y-82654761D01*
X126488095Y-82607142D01*
X126440476Y-82511904D01*
X126440476Y-81702380D01*
X126059523Y-81702380D02*
X125440476Y-81702380D01*
X125773809Y-82083333D01*
X125630952Y-82083333D01*
X125535714Y-82130952D01*
X125488095Y-82178571D01*
X125440476Y-82273809D01*
X125440476Y-82511904D01*
X125488095Y-82607142D01*
X125535714Y-82654761D01*
X125630952Y-82702380D01*
X125916666Y-82702380D01*
X126011904Y-82654761D01*
X126059523Y-82607142D01*
%TO.C,RV1*%
X129845238Y-60052380D02*
X130178571Y-59576190D01*
X130416666Y-60052380D02*
X130416666Y-59052380D01*
X130035714Y-59052380D01*
X129940476Y-59100000D01*
X129892857Y-59147619D01*
X129845238Y-59242857D01*
X129845238Y-59385714D01*
X129892857Y-59480952D01*
X129940476Y-59528571D01*
X130035714Y-59576190D01*
X130416666Y-59576190D01*
X129559523Y-59052380D02*
X129226190Y-60052380D01*
X128892857Y-59052380D01*
X128035714Y-60052380D02*
X128607142Y-60052380D01*
X128321428Y-60052380D02*
X128321428Y-59052380D01*
X128416666Y-59195238D01*
X128511904Y-59290476D01*
X128607142Y-59338095D01*
%TO.C,K16*%
D17*
X151672142Y-130424523D02*
X151672142Y-129154523D01*
X150946428Y-130424523D02*
X151490714Y-129698809D01*
X150946428Y-129154523D02*
X151672142Y-129880238D01*
X149736904Y-130424523D02*
X150462619Y-130424523D01*
X150099761Y-130424523D02*
X150099761Y-129154523D01*
X150220714Y-129335952D01*
X150341666Y-129456904D01*
X150462619Y-129517380D01*
X148648333Y-129154523D02*
X148890238Y-129154523D01*
X149011190Y-129215000D01*
X149071666Y-129275476D01*
X149192619Y-129456904D01*
X149253095Y-129698809D01*
X149253095Y-130182619D01*
X149192619Y-130303571D01*
X149132142Y-130364047D01*
X149011190Y-130424523D01*
X148769285Y-130424523D01*
X148648333Y-130364047D01*
X148587857Y-130303571D01*
X148527380Y-130182619D01*
X148527380Y-129880238D01*
X148587857Y-129759285D01*
X148648333Y-129698809D01*
X148769285Y-129638333D01*
X149011190Y-129638333D01*
X149132142Y-129698809D01*
X149192619Y-129759285D01*
X149253095Y-129880238D01*
%TO.C,K15*%
X151672142Y-124424523D02*
X151672142Y-123154523D01*
X150946428Y-124424523D02*
X151490714Y-123698809D01*
X150946428Y-123154523D02*
X151672142Y-123880238D01*
X149736904Y-124424523D02*
X150462619Y-124424523D01*
X150099761Y-124424523D02*
X150099761Y-123154523D01*
X150220714Y-123335952D01*
X150341666Y-123456904D01*
X150462619Y-123517380D01*
X148587857Y-123154523D02*
X149192619Y-123154523D01*
X149253095Y-123759285D01*
X149192619Y-123698809D01*
X149071666Y-123638333D01*
X148769285Y-123638333D01*
X148648333Y-123698809D01*
X148587857Y-123759285D01*
X148527380Y-123880238D01*
X148527380Y-124182619D01*
X148587857Y-124303571D01*
X148648333Y-124364047D01*
X148769285Y-124424523D01*
X149071666Y-124424523D01*
X149192619Y-124364047D01*
X149253095Y-124303571D01*
%TO.C,K14*%
X151672142Y-118424523D02*
X151672142Y-117154523D01*
X150946428Y-118424523D02*
X151490714Y-117698809D01*
X150946428Y-117154523D02*
X151672142Y-117880238D01*
X149736904Y-118424523D02*
X150462619Y-118424523D01*
X150099761Y-118424523D02*
X150099761Y-117154523D01*
X150220714Y-117335952D01*
X150341666Y-117456904D01*
X150462619Y-117517380D01*
X148648333Y-117577857D02*
X148648333Y-118424523D01*
X148950714Y-117094047D02*
X149253095Y-118001190D01*
X148466904Y-118001190D01*
%TO.C,K13*%
X151672142Y-112424523D02*
X151672142Y-111154523D01*
X150946428Y-112424523D02*
X151490714Y-111698809D01*
X150946428Y-111154523D02*
X151672142Y-111880238D01*
X149736904Y-112424523D02*
X150462619Y-112424523D01*
X150099761Y-112424523D02*
X150099761Y-111154523D01*
X150220714Y-111335952D01*
X150341666Y-111456904D01*
X150462619Y-111517380D01*
X149313571Y-111154523D02*
X148527380Y-111154523D01*
X148950714Y-111638333D01*
X148769285Y-111638333D01*
X148648333Y-111698809D01*
X148587857Y-111759285D01*
X148527380Y-111880238D01*
X148527380Y-112182619D01*
X148587857Y-112303571D01*
X148648333Y-112364047D01*
X148769285Y-112424523D01*
X149132142Y-112424523D01*
X149253095Y-112364047D01*
X149313571Y-112303571D01*
%TO.C,K12*%
X151672142Y-106424523D02*
X151672142Y-105154523D01*
X150946428Y-106424523D02*
X151490714Y-105698809D01*
X150946428Y-105154523D02*
X151672142Y-105880238D01*
X149736904Y-106424523D02*
X150462619Y-106424523D01*
X150099761Y-106424523D02*
X150099761Y-105154523D01*
X150220714Y-105335952D01*
X150341666Y-105456904D01*
X150462619Y-105517380D01*
X149253095Y-105275476D02*
X149192619Y-105215000D01*
X149071666Y-105154523D01*
X148769285Y-105154523D01*
X148648333Y-105215000D01*
X148587857Y-105275476D01*
X148527380Y-105396428D01*
X148527380Y-105517380D01*
X148587857Y-105698809D01*
X149313571Y-106424523D01*
X148527380Y-106424523D01*
%TO.C,K11*%
X151672142Y-100424523D02*
X151672142Y-99154523D01*
X150946428Y-100424523D02*
X151490714Y-99698809D01*
X150946428Y-99154523D02*
X151672142Y-99880238D01*
X149736904Y-100424523D02*
X150462619Y-100424523D01*
X150099761Y-100424523D02*
X150099761Y-99154523D01*
X150220714Y-99335952D01*
X150341666Y-99456904D01*
X150462619Y-99517380D01*
X148527380Y-100424523D02*
X149253095Y-100424523D01*
X148890238Y-100424523D02*
X148890238Y-99154523D01*
X149011190Y-99335952D01*
X149132142Y-99456904D01*
X149253095Y-99517380D01*
%TO.C,K10*%
X151672142Y-94424523D02*
X151672142Y-93154523D01*
X150946428Y-94424523D02*
X151490714Y-93698809D01*
X150946428Y-93154523D02*
X151672142Y-93880238D01*
X149736904Y-94424523D02*
X150462619Y-94424523D01*
X150099761Y-94424523D02*
X150099761Y-93154523D01*
X150220714Y-93335952D01*
X150341666Y-93456904D01*
X150462619Y-93517380D01*
X148950714Y-93154523D02*
X148829761Y-93154523D01*
X148708809Y-93215000D01*
X148648333Y-93275476D01*
X148587857Y-93396428D01*
X148527380Y-93638333D01*
X148527380Y-93940714D01*
X148587857Y-94182619D01*
X148648333Y-94303571D01*
X148708809Y-94364047D01*
X148829761Y-94424523D01*
X148950714Y-94424523D01*
X149071666Y-94364047D01*
X149132142Y-94303571D01*
X149192619Y-94182619D01*
X149253095Y-93940714D01*
X149253095Y-93638333D01*
X149192619Y-93396428D01*
X149132142Y-93275476D01*
X149071666Y-93215000D01*
X148950714Y-93154523D01*
%TO.C,K9*%
X151067380Y-88424523D02*
X151067380Y-87154523D01*
X150341666Y-88424523D02*
X150885952Y-87698809D01*
X150341666Y-87154523D02*
X151067380Y-87880238D01*
X149736904Y-88424523D02*
X149495000Y-88424523D01*
X149374047Y-88364047D01*
X149313571Y-88303571D01*
X149192619Y-88122142D01*
X149132142Y-87880238D01*
X149132142Y-87396428D01*
X149192619Y-87275476D01*
X149253095Y-87215000D01*
X149374047Y-87154523D01*
X149615952Y-87154523D01*
X149736904Y-87215000D01*
X149797380Y-87275476D01*
X149857857Y-87396428D01*
X149857857Y-87698809D01*
X149797380Y-87819761D01*
X149736904Y-87880238D01*
X149615952Y-87940714D01*
X149374047Y-87940714D01*
X149253095Y-87880238D01*
X149192619Y-87819761D01*
X149132142Y-87698809D01*
%TO.C,K8*%
X95307380Y-130224523D02*
X95307380Y-128954523D01*
X94581666Y-130224523D02*
X95125952Y-129498809D01*
X94581666Y-128954523D02*
X95307380Y-129680238D01*
X93855952Y-129498809D02*
X93976904Y-129438333D01*
X94037380Y-129377857D01*
X94097857Y-129256904D01*
X94097857Y-129196428D01*
X94037380Y-129075476D01*
X93976904Y-129015000D01*
X93855952Y-128954523D01*
X93614047Y-128954523D01*
X93493095Y-129015000D01*
X93432619Y-129075476D01*
X93372142Y-129196428D01*
X93372142Y-129256904D01*
X93432619Y-129377857D01*
X93493095Y-129438333D01*
X93614047Y-129498809D01*
X93855952Y-129498809D01*
X93976904Y-129559285D01*
X94037380Y-129619761D01*
X94097857Y-129740714D01*
X94097857Y-129982619D01*
X94037380Y-130103571D01*
X93976904Y-130164047D01*
X93855952Y-130224523D01*
X93614047Y-130224523D01*
X93493095Y-130164047D01*
X93432619Y-130103571D01*
X93372142Y-129982619D01*
X93372142Y-129740714D01*
X93432619Y-129619761D01*
X93493095Y-129559285D01*
X93614047Y-129498809D01*
%TO.C,K7*%
X95307380Y-124224523D02*
X95307380Y-122954523D01*
X94581666Y-124224523D02*
X95125952Y-123498809D01*
X94581666Y-122954523D02*
X95307380Y-123680238D01*
X94158333Y-122954523D02*
X93311666Y-122954523D01*
X93855952Y-124224523D01*
%TO.C,K6*%
X95307380Y-118224523D02*
X95307380Y-116954523D01*
X94581666Y-118224523D02*
X95125952Y-117498809D01*
X94581666Y-116954523D02*
X95307380Y-117680238D01*
X93493095Y-116954523D02*
X93735000Y-116954523D01*
X93855952Y-117015000D01*
X93916428Y-117075476D01*
X94037380Y-117256904D01*
X94097857Y-117498809D01*
X94097857Y-117982619D01*
X94037380Y-118103571D01*
X93976904Y-118164047D01*
X93855952Y-118224523D01*
X93614047Y-118224523D01*
X93493095Y-118164047D01*
X93432619Y-118103571D01*
X93372142Y-117982619D01*
X93372142Y-117680238D01*
X93432619Y-117559285D01*
X93493095Y-117498809D01*
X93614047Y-117438333D01*
X93855952Y-117438333D01*
X93976904Y-117498809D01*
X94037380Y-117559285D01*
X94097857Y-117680238D01*
%TO.C,K5*%
X95307380Y-112224523D02*
X95307380Y-110954523D01*
X94581666Y-112224523D02*
X95125952Y-111498809D01*
X94581666Y-110954523D02*
X95307380Y-111680238D01*
X93432619Y-110954523D02*
X94037380Y-110954523D01*
X94097857Y-111559285D01*
X94037380Y-111498809D01*
X93916428Y-111438333D01*
X93614047Y-111438333D01*
X93493095Y-111498809D01*
X93432619Y-111559285D01*
X93372142Y-111680238D01*
X93372142Y-111982619D01*
X93432619Y-112103571D01*
X93493095Y-112164047D01*
X93614047Y-112224523D01*
X93916428Y-112224523D01*
X94037380Y-112164047D01*
X94097857Y-112103571D01*
%TO.C,K4*%
X95307380Y-106224523D02*
X95307380Y-104954523D01*
X94581666Y-106224523D02*
X95125952Y-105498809D01*
X94581666Y-104954523D02*
X95307380Y-105680238D01*
X93493095Y-105377857D02*
X93493095Y-106224523D01*
X93795476Y-104894047D02*
X94097857Y-105801190D01*
X93311666Y-105801190D01*
%TO.C,K3*%
X95307380Y-100224523D02*
X95307380Y-98954523D01*
X94581666Y-100224523D02*
X95125952Y-99498809D01*
X94581666Y-98954523D02*
X95307380Y-99680238D01*
X94158333Y-98954523D02*
X93372142Y-98954523D01*
X93795476Y-99438333D01*
X93614047Y-99438333D01*
X93493095Y-99498809D01*
X93432619Y-99559285D01*
X93372142Y-99680238D01*
X93372142Y-99982619D01*
X93432619Y-100103571D01*
X93493095Y-100164047D01*
X93614047Y-100224523D01*
X93976904Y-100224523D01*
X94097857Y-100164047D01*
X94158333Y-100103571D01*
%TO.C,K2*%
X95307380Y-94224523D02*
X95307380Y-92954523D01*
X94581666Y-94224523D02*
X95125952Y-93498809D01*
X94581666Y-92954523D02*
X95307380Y-93680238D01*
X94097857Y-93075476D02*
X94037380Y-93015000D01*
X93916428Y-92954523D01*
X93614047Y-92954523D01*
X93493095Y-93015000D01*
X93432619Y-93075476D01*
X93372142Y-93196428D01*
X93372142Y-93317380D01*
X93432619Y-93498809D01*
X94158333Y-94224523D01*
X93372142Y-94224523D01*
%TO.C,JP2*%
D10*
X136702380Y-83416666D02*
X137416666Y-83416666D01*
X137559523Y-83369047D01*
X137654761Y-83273809D01*
X137702380Y-83130952D01*
X137702380Y-83035714D01*
X137702380Y-83892857D02*
X136702380Y-83892857D01*
X136702380Y-84273809D01*
X136750000Y-84369047D01*
X136797619Y-84416666D01*
X136892857Y-84464285D01*
X137035714Y-84464285D01*
X137130952Y-84416666D01*
X137178571Y-84369047D01*
X137226190Y-84273809D01*
X137226190Y-83892857D01*
X136797619Y-84845238D02*
X136750000Y-84892857D01*
X136702380Y-84988095D01*
X136702380Y-85226190D01*
X136750000Y-85321428D01*
X136797619Y-85369047D01*
X136892857Y-85416666D01*
X136988095Y-85416666D01*
X137130952Y-85369047D01*
X137702380Y-84797619D01*
X137702380Y-85416666D01*
%TO.C,J12*%
X171962380Y-107440476D02*
X172676666Y-107440476D01*
X172819523Y-107392857D01*
X172914761Y-107297619D01*
X172962380Y-107154761D01*
X172962380Y-107059523D01*
X172962380Y-108440476D02*
X172962380Y-107869047D01*
X172962380Y-108154761D02*
X171962380Y-108154761D01*
X172105238Y-108059523D01*
X172200476Y-107964285D01*
X172248095Y-107869047D01*
X172057619Y-108821428D02*
X172010000Y-108869047D01*
X171962380Y-108964285D01*
X171962380Y-109202380D01*
X172010000Y-109297619D01*
X172057619Y-109345238D01*
X172152857Y-109392857D01*
X172248095Y-109392857D01*
X172390952Y-109345238D01*
X172962380Y-108773809D01*
X172962380Y-109392857D01*
%TO.C,J11*%
X71442380Y-107440476D02*
X72156666Y-107440476D01*
X72299523Y-107392857D01*
X72394761Y-107297619D01*
X72442380Y-107154761D01*
X72442380Y-107059523D01*
X72442380Y-108440476D02*
X72442380Y-107869047D01*
X72442380Y-108154761D02*
X71442380Y-108154761D01*
X71585238Y-108059523D01*
X71680476Y-107964285D01*
X71728095Y-107869047D01*
X72442380Y-109392857D02*
X72442380Y-108821428D01*
X72442380Y-109107142D02*
X71442380Y-109107142D01*
X71585238Y-109011904D01*
X71680476Y-108916666D01*
X71728095Y-108821428D01*
%TO.C,J8*%
X150952380Y-71666666D02*
X151666666Y-71666666D01*
X151809523Y-71619047D01*
X151904761Y-71523809D01*
X151952380Y-71380952D01*
X151952380Y-71285714D01*
X151380952Y-72285714D02*
X151333333Y-72190476D01*
X151285714Y-72142857D01*
X151190476Y-72095238D01*
X151142857Y-72095238D01*
X151047619Y-72142857D01*
X151000000Y-72190476D01*
X150952380Y-72285714D01*
X150952380Y-72476190D01*
X151000000Y-72571428D01*
X151047619Y-72619047D01*
X151142857Y-72666666D01*
X151190476Y-72666666D01*
X151285714Y-72619047D01*
X151333333Y-72571428D01*
X151380952Y-72476190D01*
X151380952Y-72285714D01*
X151428571Y-72190476D01*
X151476190Y-72142857D01*
X151571428Y-72095238D01*
X151761904Y-72095238D01*
X151857142Y-72142857D01*
X151904761Y-72190476D01*
X151952380Y-72285714D01*
X151952380Y-72476190D01*
X151904761Y-72571428D01*
X151857142Y-72619047D01*
X151761904Y-72666666D01*
X151571428Y-72666666D01*
X151476190Y-72619047D01*
X151428571Y-72571428D01*
X151380952Y-72476190D01*
%TO.C,J7*%
X151032380Y-82166666D02*
X151746666Y-82166666D01*
X151889523Y-82119047D01*
X151984761Y-82023809D01*
X152032380Y-81880952D01*
X152032380Y-81785714D01*
X151032380Y-82547619D02*
X151032380Y-83214285D01*
X152032380Y-82785714D01*
%TO.C,J4*%
X150952380Y-73166666D02*
X151666666Y-73166666D01*
X151809523Y-73119047D01*
X151904761Y-73023809D01*
X151952380Y-72880952D01*
X151952380Y-72785714D01*
X151285714Y-74071428D02*
X151952380Y-74071428D01*
X150904761Y-73833333D02*
X151619047Y-73595238D01*
X151619047Y-74214285D01*
%TO.C,C31*%
X125892857Y-104787142D02*
X125940476Y-104834761D01*
X126083333Y-104882380D01*
X126178571Y-104882380D01*
X126321428Y-104834761D01*
X126416666Y-104739523D01*
X126464285Y-104644285D01*
X126511904Y-104453809D01*
X126511904Y-104310952D01*
X126464285Y-104120476D01*
X126416666Y-104025238D01*
X126321428Y-103930000D01*
X126178571Y-103882380D01*
X126083333Y-103882380D01*
X125940476Y-103930000D01*
X125892857Y-103977619D01*
X125559523Y-103882380D02*
X124940476Y-103882380D01*
X125273809Y-104263333D01*
X125130952Y-104263333D01*
X125035714Y-104310952D01*
X124988095Y-104358571D01*
X124940476Y-104453809D01*
X124940476Y-104691904D01*
X124988095Y-104787142D01*
X125035714Y-104834761D01*
X125130952Y-104882380D01*
X125416666Y-104882380D01*
X125511904Y-104834761D01*
X125559523Y-104787142D01*
X123988095Y-104882380D02*
X124559523Y-104882380D01*
X124273809Y-104882380D02*
X124273809Y-103882380D01*
X124369047Y-104025238D01*
X124464285Y-104120476D01*
X124559523Y-104168095D01*
%TO.C,C28*%
X89642857Y-77357142D02*
X89690476Y-77404761D01*
X89833333Y-77452380D01*
X89928571Y-77452380D01*
X90071428Y-77404761D01*
X90166666Y-77309523D01*
X90214285Y-77214285D01*
X90261904Y-77023809D01*
X90261904Y-76880952D01*
X90214285Y-76690476D01*
X90166666Y-76595238D01*
X90071428Y-76500000D01*
X89928571Y-76452380D01*
X89833333Y-76452380D01*
X89690476Y-76500000D01*
X89642857Y-76547619D01*
X89261904Y-76547619D02*
X89214285Y-76500000D01*
X89119047Y-76452380D01*
X88880952Y-76452380D01*
X88785714Y-76500000D01*
X88738095Y-76547619D01*
X88690476Y-76642857D01*
X88690476Y-76738095D01*
X88738095Y-76880952D01*
X89309523Y-77452380D01*
X88690476Y-77452380D01*
X88119047Y-76880952D02*
X88214285Y-76833333D01*
X88261904Y-76785714D01*
X88309523Y-76690476D01*
X88309523Y-76642857D01*
X88261904Y-76547619D01*
X88214285Y-76500000D01*
X88119047Y-76452380D01*
X87928571Y-76452380D01*
X87833333Y-76500000D01*
X87785714Y-76547619D01*
X87738095Y-76642857D01*
X87738095Y-76690476D01*
X87785714Y-76785714D01*
X87833333Y-76833333D01*
X87928571Y-76880952D01*
X88119047Y-76880952D01*
X88214285Y-76928571D01*
X88261904Y-76976190D01*
X88309523Y-77071428D01*
X88309523Y-77261904D01*
X88261904Y-77357142D01*
X88214285Y-77404761D01*
X88119047Y-77452380D01*
X87928571Y-77452380D01*
X87833333Y-77404761D01*
X87785714Y-77357142D01*
X87738095Y-77261904D01*
X87738095Y-77071428D01*
X87785714Y-76976190D01*
X87833333Y-76928571D01*
X87928571Y-76880952D01*
%TO.C,C27*%
X89642857Y-73857142D02*
X89690476Y-73904761D01*
X89833333Y-73952380D01*
X89928571Y-73952380D01*
X90071428Y-73904761D01*
X90166666Y-73809523D01*
X90214285Y-73714285D01*
X90261904Y-73523809D01*
X90261904Y-73380952D01*
X90214285Y-73190476D01*
X90166666Y-73095238D01*
X90071428Y-73000000D01*
X89928571Y-72952380D01*
X89833333Y-72952380D01*
X89690476Y-73000000D01*
X89642857Y-73047619D01*
X89261904Y-73047619D02*
X89214285Y-73000000D01*
X89119047Y-72952380D01*
X88880952Y-72952380D01*
X88785714Y-73000000D01*
X88738095Y-73047619D01*
X88690476Y-73142857D01*
X88690476Y-73238095D01*
X88738095Y-73380952D01*
X89309523Y-73952380D01*
X88690476Y-73952380D01*
X88357142Y-72952380D02*
X87690476Y-72952380D01*
X88119047Y-73952380D01*
%TO.C,C26*%
X137607142Y-86107142D02*
X137654761Y-86059523D01*
X137702380Y-85916666D01*
X137702380Y-85821428D01*
X137654761Y-85678571D01*
X137559523Y-85583333D01*
X137464285Y-85535714D01*
X137273809Y-85488095D01*
X137130952Y-85488095D01*
X136940476Y-85535714D01*
X136845238Y-85583333D01*
X136750000Y-85678571D01*
X136702380Y-85821428D01*
X136702380Y-85916666D01*
X136750000Y-86059523D01*
X136797619Y-86107142D01*
X136797619Y-86488095D02*
X136750000Y-86535714D01*
X136702380Y-86630952D01*
X136702380Y-86869047D01*
X136750000Y-86964285D01*
X136797619Y-87011904D01*
X136892857Y-87059523D01*
X136988095Y-87059523D01*
X137130952Y-87011904D01*
X137702380Y-86440476D01*
X137702380Y-87059523D01*
X136702380Y-87916666D02*
X136702380Y-87726190D01*
X136750000Y-87630952D01*
X136797619Y-87583333D01*
X136940476Y-87488095D01*
X137130952Y-87440476D01*
X137511904Y-87440476D01*
X137607142Y-87488095D01*
X137654761Y-87535714D01*
X137702380Y-87630952D01*
X137702380Y-87821428D01*
X137654761Y-87916666D01*
X137607142Y-87964285D01*
X137511904Y-88011904D01*
X137273809Y-88011904D01*
X137178571Y-87964285D01*
X137130952Y-87916666D01*
X137083333Y-87821428D01*
X137083333Y-87630952D01*
X137130952Y-87535714D01*
X137178571Y-87488095D01*
X137273809Y-87440476D01*
%TO.C,C25*%
X130142857Y-69427142D02*
X130190476Y-69474761D01*
X130333333Y-69522380D01*
X130428571Y-69522380D01*
X130571428Y-69474761D01*
X130666666Y-69379523D01*
X130714285Y-69284285D01*
X130761904Y-69093809D01*
X130761904Y-68950952D01*
X130714285Y-68760476D01*
X130666666Y-68665238D01*
X130571428Y-68570000D01*
X130428571Y-68522380D01*
X130333333Y-68522380D01*
X130190476Y-68570000D01*
X130142857Y-68617619D01*
X129761904Y-68617619D02*
X129714285Y-68570000D01*
X129619047Y-68522380D01*
X129380952Y-68522380D01*
X129285714Y-68570000D01*
X129238095Y-68617619D01*
X129190476Y-68712857D01*
X129190476Y-68808095D01*
X129238095Y-68950952D01*
X129809523Y-69522380D01*
X129190476Y-69522380D01*
X128285714Y-68522380D02*
X128761904Y-68522380D01*
X128809523Y-68998571D01*
X128761904Y-68950952D01*
X128666666Y-68903333D01*
X128428571Y-68903333D01*
X128333333Y-68950952D01*
X128285714Y-68998571D01*
X128238095Y-69093809D01*
X128238095Y-69331904D01*
X128285714Y-69427142D01*
X128333333Y-69474761D01*
X128428571Y-69522380D01*
X128666666Y-69522380D01*
X128761904Y-69474761D01*
X128809523Y-69427142D01*
%TO.C,C24*%
X100142857Y-59857142D02*
X100190476Y-59904761D01*
X100333333Y-59952380D01*
X100428571Y-59952380D01*
X100571428Y-59904761D01*
X100666666Y-59809523D01*
X100714285Y-59714285D01*
X100761904Y-59523809D01*
X100761904Y-59380952D01*
X100714285Y-59190476D01*
X100666666Y-59095238D01*
X100571428Y-59000000D01*
X100428571Y-58952380D01*
X100333333Y-58952380D01*
X100190476Y-59000000D01*
X100142857Y-59047619D01*
X99761904Y-59047619D02*
X99714285Y-59000000D01*
X99619047Y-58952380D01*
X99380952Y-58952380D01*
X99285714Y-59000000D01*
X99238095Y-59047619D01*
X99190476Y-59142857D01*
X99190476Y-59238095D01*
X99238095Y-59380952D01*
X99809523Y-59952380D01*
X99190476Y-59952380D01*
X98333333Y-59285714D02*
X98333333Y-59952380D01*
X98571428Y-58904761D02*
X98809523Y-59619047D01*
X98190476Y-59619047D01*
%TO.C,C23*%
X118142857Y-74677142D02*
X118190476Y-74724761D01*
X118333333Y-74772380D01*
X118428571Y-74772380D01*
X118571428Y-74724761D01*
X118666666Y-74629523D01*
X118714285Y-74534285D01*
X118761904Y-74343809D01*
X118761904Y-74200952D01*
X118714285Y-74010476D01*
X118666666Y-73915238D01*
X118571428Y-73820000D01*
X118428571Y-73772380D01*
X118333333Y-73772380D01*
X118190476Y-73820000D01*
X118142857Y-73867619D01*
X117761904Y-73867619D02*
X117714285Y-73820000D01*
X117619047Y-73772380D01*
X117380952Y-73772380D01*
X117285714Y-73820000D01*
X117238095Y-73867619D01*
X117190476Y-73962857D01*
X117190476Y-74058095D01*
X117238095Y-74200952D01*
X117809523Y-74772380D01*
X117190476Y-74772380D01*
X116857142Y-73772380D02*
X116238095Y-73772380D01*
X116571428Y-74153333D01*
X116428571Y-74153333D01*
X116333333Y-74200952D01*
X116285714Y-74248571D01*
X116238095Y-74343809D01*
X116238095Y-74581904D01*
X116285714Y-74677142D01*
X116333333Y-74724761D01*
X116428571Y-74772380D01*
X116714285Y-74772380D01*
X116809523Y-74724761D01*
X116857142Y-74677142D01*
%TO.C,C22*%
X138392857Y-82787142D02*
X138440476Y-82834761D01*
X138583333Y-82882380D01*
X138678571Y-82882380D01*
X138821428Y-82834761D01*
X138916666Y-82739523D01*
X138964285Y-82644285D01*
X139011904Y-82453809D01*
X139011904Y-82310952D01*
X138964285Y-82120476D01*
X138916666Y-82025238D01*
X138821428Y-81930000D01*
X138678571Y-81882380D01*
X138583333Y-81882380D01*
X138440476Y-81930000D01*
X138392857Y-81977619D01*
X138011904Y-81977619D02*
X137964285Y-81930000D01*
X137869047Y-81882380D01*
X137630952Y-81882380D01*
X137535714Y-81930000D01*
X137488095Y-81977619D01*
X137440476Y-82072857D01*
X137440476Y-82168095D01*
X137488095Y-82310952D01*
X138059523Y-82882380D01*
X137440476Y-82882380D01*
X137059523Y-81977619D02*
X137011904Y-81930000D01*
X136916666Y-81882380D01*
X136678571Y-81882380D01*
X136583333Y-81930000D01*
X136535714Y-81977619D01*
X136488095Y-82072857D01*
X136488095Y-82168095D01*
X136535714Y-82310952D01*
X137107142Y-82882380D01*
X136488095Y-82882380D01*
%TO.C,C21*%
X100142857Y-64857142D02*
X100190476Y-64904761D01*
X100333333Y-64952380D01*
X100428571Y-64952380D01*
X100571428Y-64904761D01*
X100666666Y-64809523D01*
X100714285Y-64714285D01*
X100761904Y-64523809D01*
X100761904Y-64380952D01*
X100714285Y-64190476D01*
X100666666Y-64095238D01*
X100571428Y-64000000D01*
X100428571Y-63952380D01*
X100333333Y-63952380D01*
X100190476Y-64000000D01*
X100142857Y-64047619D01*
X99761904Y-64047619D02*
X99714285Y-64000000D01*
X99619047Y-63952380D01*
X99380952Y-63952380D01*
X99285714Y-64000000D01*
X99238095Y-64047619D01*
X99190476Y-64142857D01*
X99190476Y-64238095D01*
X99238095Y-64380952D01*
X99809523Y-64952380D01*
X99190476Y-64952380D01*
X98238095Y-64952380D02*
X98809523Y-64952380D01*
X98523809Y-64952380D02*
X98523809Y-63952380D01*
X98619047Y-64095238D01*
X98714285Y-64190476D01*
X98809523Y-64238095D01*
%TO.C,C19*%
X103107142Y-79107142D02*
X103154761Y-79059523D01*
X103202380Y-78916666D01*
X103202380Y-78821428D01*
X103154761Y-78678571D01*
X103059523Y-78583333D01*
X102964285Y-78535714D01*
X102773809Y-78488095D01*
X102630952Y-78488095D01*
X102440476Y-78535714D01*
X102345238Y-78583333D01*
X102250000Y-78678571D01*
X102202380Y-78821428D01*
X102202380Y-78916666D01*
X102250000Y-79059523D01*
X102297619Y-79107142D01*
X103202380Y-80059523D02*
X103202380Y-79488095D01*
X103202380Y-79773809D02*
X102202380Y-79773809D01*
X102345238Y-79678571D01*
X102440476Y-79583333D01*
X102488095Y-79488095D01*
X103202380Y-80535714D02*
X103202380Y-80726190D01*
X103154761Y-80821428D01*
X103107142Y-80869047D01*
X102964285Y-80964285D01*
X102773809Y-81011904D01*
X102392857Y-81011904D01*
X102297619Y-80964285D01*
X102250000Y-80916666D01*
X102202380Y-80821428D01*
X102202380Y-80630952D01*
X102250000Y-80535714D01*
X102297619Y-80488095D01*
X102392857Y-80440476D01*
X102630952Y-80440476D01*
X102726190Y-80488095D01*
X102773809Y-80535714D01*
X102821428Y-80630952D01*
X102821428Y-80821428D01*
X102773809Y-80916666D01*
X102726190Y-80964285D01*
X102630952Y-81011904D01*
%TO.C,C18*%
X89642857Y-72357142D02*
X89690476Y-72404761D01*
X89833333Y-72452380D01*
X89928571Y-72452380D01*
X90071428Y-72404761D01*
X90166666Y-72309523D01*
X90214285Y-72214285D01*
X90261904Y-72023809D01*
X90261904Y-71880952D01*
X90214285Y-71690476D01*
X90166666Y-71595238D01*
X90071428Y-71500000D01*
X89928571Y-71452380D01*
X89833333Y-71452380D01*
X89690476Y-71500000D01*
X89642857Y-71547619D01*
X88690476Y-72452380D02*
X89261904Y-72452380D01*
X88976190Y-72452380D02*
X88976190Y-71452380D01*
X89071428Y-71595238D01*
X89166666Y-71690476D01*
X89261904Y-71738095D01*
X88119047Y-71880952D02*
X88214285Y-71833333D01*
X88261904Y-71785714D01*
X88309523Y-71690476D01*
X88309523Y-71642857D01*
X88261904Y-71547619D01*
X88214285Y-71500000D01*
X88119047Y-71452380D01*
X87928571Y-71452380D01*
X87833333Y-71500000D01*
X87785714Y-71547619D01*
X87738095Y-71642857D01*
X87738095Y-71690476D01*
X87785714Y-71785714D01*
X87833333Y-71833333D01*
X87928571Y-71880952D01*
X88119047Y-71880952D01*
X88214285Y-71928571D01*
X88261904Y-71976190D01*
X88309523Y-72071428D01*
X88309523Y-72261904D01*
X88261904Y-72357142D01*
X88214285Y-72404761D01*
X88119047Y-72452380D01*
X87928571Y-72452380D01*
X87833333Y-72404761D01*
X87785714Y-72357142D01*
X87738095Y-72261904D01*
X87738095Y-72071428D01*
X87785714Y-71976190D01*
X87833333Y-71928571D01*
X87928571Y-71880952D01*
%TO.C,C15*%
X163392857Y-65787142D02*
X163440476Y-65834761D01*
X163583333Y-65882380D01*
X163678571Y-65882380D01*
X163821428Y-65834761D01*
X163916666Y-65739523D01*
X163964285Y-65644285D01*
X164011904Y-65453809D01*
X164011904Y-65310952D01*
X163964285Y-65120476D01*
X163916666Y-65025238D01*
X163821428Y-64930000D01*
X163678571Y-64882380D01*
X163583333Y-64882380D01*
X163440476Y-64930000D01*
X163392857Y-64977619D01*
X162440476Y-65882380D02*
X163011904Y-65882380D01*
X162726190Y-65882380D02*
X162726190Y-64882380D01*
X162821428Y-65025238D01*
X162916666Y-65120476D01*
X163011904Y-65168095D01*
X161535714Y-64882380D02*
X162011904Y-64882380D01*
X162059523Y-65358571D01*
X162011904Y-65310952D01*
X161916666Y-65263333D01*
X161678571Y-65263333D01*
X161583333Y-65310952D01*
X161535714Y-65358571D01*
X161488095Y-65453809D01*
X161488095Y-65691904D01*
X161535714Y-65787142D01*
X161583333Y-65834761D01*
X161678571Y-65882380D01*
X161916666Y-65882380D01*
X162011904Y-65834761D01*
X162059523Y-65787142D01*
%TO.C,C14*%
X167142857Y-62107142D02*
X167190476Y-62154761D01*
X167333333Y-62202380D01*
X167428571Y-62202380D01*
X167571428Y-62154761D01*
X167666666Y-62059523D01*
X167714285Y-61964285D01*
X167761904Y-61773809D01*
X167761904Y-61630952D01*
X167714285Y-61440476D01*
X167666666Y-61345238D01*
X167571428Y-61250000D01*
X167428571Y-61202380D01*
X167333333Y-61202380D01*
X167190476Y-61250000D01*
X167142857Y-61297619D01*
X166190476Y-62202380D02*
X166761904Y-62202380D01*
X166476190Y-62202380D02*
X166476190Y-61202380D01*
X166571428Y-61345238D01*
X166666666Y-61440476D01*
X166761904Y-61488095D01*
X165333333Y-61535714D02*
X165333333Y-62202380D01*
X165571428Y-61154761D02*
X165809523Y-61869047D01*
X165190476Y-61869047D01*
%TO.C,C12*%
X164892857Y-55287142D02*
X164940476Y-55334761D01*
X165083333Y-55382380D01*
X165178571Y-55382380D01*
X165321428Y-55334761D01*
X165416666Y-55239523D01*
X165464285Y-55144285D01*
X165511904Y-54953809D01*
X165511904Y-54810952D01*
X165464285Y-54620476D01*
X165416666Y-54525238D01*
X165321428Y-54430000D01*
X165178571Y-54382380D01*
X165083333Y-54382380D01*
X164940476Y-54430000D01*
X164892857Y-54477619D01*
X163940476Y-55382380D02*
X164511904Y-55382380D01*
X164226190Y-55382380D02*
X164226190Y-54382380D01*
X164321428Y-54525238D01*
X164416666Y-54620476D01*
X164511904Y-54668095D01*
X163559523Y-54477619D02*
X163511904Y-54430000D01*
X163416666Y-54382380D01*
X163178571Y-54382380D01*
X163083333Y-54430000D01*
X163035714Y-54477619D01*
X162988095Y-54572857D01*
X162988095Y-54668095D01*
X163035714Y-54810952D01*
X163607142Y-55382380D01*
X162988095Y-55382380D01*
%TO.C,C11*%
X168287142Y-56607142D02*
X168334761Y-56559523D01*
X168382380Y-56416666D01*
X168382380Y-56321428D01*
X168334761Y-56178571D01*
X168239523Y-56083333D01*
X168144285Y-56035714D01*
X167953809Y-55988095D01*
X167810952Y-55988095D01*
X167620476Y-56035714D01*
X167525238Y-56083333D01*
X167430000Y-56178571D01*
X167382380Y-56321428D01*
X167382380Y-56416666D01*
X167430000Y-56559523D01*
X167477619Y-56607142D01*
X168382380Y-57559523D02*
X168382380Y-56988095D01*
X168382380Y-57273809D02*
X167382380Y-57273809D01*
X167525238Y-57178571D01*
X167620476Y-57083333D01*
X167668095Y-56988095D01*
X168382380Y-58511904D02*
X168382380Y-57940476D01*
X168382380Y-58226190D02*
X167382380Y-58226190D01*
X167525238Y-58130952D01*
X167620476Y-58035714D01*
X167668095Y-57940476D01*
%TD*%
M02*
