M48
; DRILL file {KiCad (5.1.10)-1} date 06/11/21 23:30:13
; FORMAT={-:-/ absolute / metric / decimal}
; #@! TF.CreationDate,2021-06-11T23:30:13+03:00
; #@! TF.GenerationSoftware,Kicad,Pcbnew,(5.1.10)-1
; #@! TF.FileFunction,Plated,1,2,PTH
FMAT,2
METRIC
T1C0.400
T2C1.000
T3C1.001
T4C1.100
T5C1.300
T6C1.500
%
G90
G05
T1
X102.0Y-80.0
X102.5Y-85.0
X102.71Y-77.79
X103.0Y-80.0
X103.5Y-85.0
X103.71Y-77.79
X104.0Y-80.0
X109.5Y-80.0
X109.75Y-61.75
X110.5Y-80.0
X114.925Y-98.075
X115.5Y-57.25
X116.25Y-87.75
X116.25Y-99.25
X116.5Y-57.25
X117.75Y-96.5
X119.25Y-95.75
X120.25Y-47.0
X120.25Y-96.25
X120.75Y-81.75
X121.075Y-46.925
X121.25Y-96.25
X122.0Y-78.5
X122.25Y-91.0
X122.25Y-95.75
X123.25Y-78.5
X123.25Y-112.25
X123.75Y-116.25
X123.75Y-117.75
X123.75Y-119.25
X124.25Y-111.75
X125.25Y-111.25
X126.25Y-110.75
X127.0Y-75.75
X127.0Y-77.25
X127.25Y-110.25
X127.625Y-82.875
X129.0Y-75.25
X130.0Y-75.75
X130.0Y-77.25
X131.75Y-75.25
X132.495Y-84.005
X136.725Y-74.525
X137.5Y-73.5
X146.75Y-64.25
X149.918Y-67.945
X150.0Y-69.25
X162.25Y-58.75
T2
X85.25Y-65.75
X85.25Y-70.75
X85.25Y-79.75
X92.75Y-65.75
X92.75Y-70.75
X92.75Y-79.75
X95.75Y-65.75
X95.75Y-70.75
X96.5Y-74.67
X96.5Y-77.21
X96.5Y-79.75
X103.25Y-65.75
X103.25Y-70.75
X109.0Y-76.0
X109.0Y-83.5
X141.63Y-73.75
X141.63Y-77.5
X141.63Y-81.25
X144.17Y-73.75
X144.17Y-77.5
X144.17Y-81.25
X146.71Y-73.75
X146.71Y-77.5
X146.71Y-81.25
X149.25Y-73.75
X149.25Y-77.5
X149.25Y-81.25
X161.75Y-51.25
X161.75Y-65.75
X164.25Y-65.75
X166.75Y-51.25
X166.75Y-65.75
T3
X107.151Y-69.05
X109.691Y-69.05
X112.231Y-69.05
X114.771Y-69.05
X117.311Y-69.05
X119.851Y-69.05
X132.551Y-69.05
X135.091Y-69.05
X137.631Y-69.05
X140.171Y-69.05
X142.711Y-69.05
X145.251Y-69.05
T4
X100.71Y-86.75
X100.71Y-92.75
X100.71Y-98.75
X100.71Y-104.75
X100.71Y-110.75
X100.71Y-116.75
X100.71Y-122.75
X100.71Y-128.75
X103.25Y-86.75
X103.25Y-92.75
X103.25Y-98.75
X103.25Y-104.75
X103.25Y-110.75
X103.25Y-116.75
X103.25Y-122.75
X103.25Y-128.75
X141.25Y-88.75
X141.25Y-94.75
X141.25Y-100.75
X141.25Y-106.75
X141.25Y-112.75
X141.25Y-118.75
X141.25Y-124.75
X141.25Y-130.75
X143.79Y-88.75
X143.79Y-94.75
X143.79Y-100.75
X143.79Y-106.75
X143.79Y-112.75
X143.79Y-118.75
X143.79Y-124.75
X143.79Y-130.75
T5
X75.25Y-40.75
X78.25Y-55.75
X78.25Y-60.75
X78.25Y-65.75
X78.25Y-70.75
X78.25Y-75.75
X78.25Y-80.75
X78.25Y-85.75
X78.25Y-90.75
X78.25Y-95.75
X78.25Y-100.75
X78.25Y-105.75
X78.25Y-110.75
X78.25Y-115.75
X78.25Y-120.75
X78.25Y-125.75
X78.25Y-130.75
X80.25Y-40.75
X85.25Y-40.75
X85.47Y-86.75
X85.47Y-92.75
X85.47Y-98.75
X85.47Y-104.75
X85.47Y-110.75
X85.47Y-116.75
X85.47Y-122.75
X85.47Y-128.75
X90.25Y-40.75
X90.55Y-86.75
X90.55Y-92.75
X90.55Y-98.75
X90.55Y-104.75
X90.55Y-110.75
X90.55Y-116.75
X90.55Y-122.75
X90.55Y-128.75
X95.25Y-40.75
X100.25Y-40.75
X105.25Y-40.75
X110.25Y-40.75
X115.25Y-40.75
X120.25Y-40.75
X125.25Y-40.75
X126.75Y-65.75
X129.25Y-63.25
X129.25Y-68.25
X130.25Y-40.75
X135.25Y-40.75
X140.25Y-40.75
X145.25Y-40.75
X150.25Y-40.75
X153.95Y-88.75
X153.95Y-94.75
X153.95Y-100.75
X153.95Y-106.75
X153.95Y-112.75
X153.95Y-118.75
X153.95Y-124.75
X153.95Y-130.75
X155.25Y-40.75
X159.03Y-88.75
X159.03Y-94.75
X159.03Y-100.75
X159.03Y-106.75
X159.03Y-112.75
X159.03Y-118.75
X159.03Y-124.75
X159.03Y-130.75
X160.25Y-40.75
X166.25Y-70.25
X166.25Y-75.25
X166.25Y-80.25
X166.25Y-85.75
X166.25Y-90.75
X166.25Y-95.75
X166.25Y-100.75
X166.25Y-105.75
X166.25Y-110.75
X166.25Y-115.75
X166.25Y-120.75
X166.25Y-125.75
X166.25Y-130.75
T6
G00X158.65Y-58.9
M15
G01X158.65Y-57.6
M16
G05
G00X169.85Y-58.9
M15
G01X169.85Y-57.6
M16
G05
T0
M30
